<?xml version="1.0" standalone="no"?>
<!DOCTYPE svg PUBLIC "-//W3C//DTD SVG 1.1//EN" "http://www.w3.org/Graphics/SVG/1.1/DTD/svg11.dtd" >
<svg xmlns="http://www.w3.org/2000/svg">
<metadata></metadata>
<defs>
<font id="simplon_normitalic" horiz-adv-x="993" >
<font-face units-per-em="2048" ascent="1651" descent="-397" />
<missing-glyph horiz-adv-x="400" />
<glyph unicode=" "  horiz-adv-x="400" />
<glyph unicode="&#x09;" horiz-adv-x="400" />
<glyph unicode="&#xa0;" horiz-adv-x="400" />
<glyph unicode="!" horiz-adv-x="489" d="M479 1248l-185 -874h-134l185 874h134zM53 0l39 187h188l-40 -187h-187z" />
<glyph unicode="&#x22;" horiz-adv-x="719" d="M702 848h-134v400h134v-400zM401 848h-134v400h134v-400z" />
<glyph unicode="#" horiz-adv-x="1246" d="M335 0h-121l90 367h-122v116h151l70 282h-152v115h181l92 368h121l-93 -368h335l93 368h121l-93 -368h127v-115h-155l-69 -282h153v-116h-182l-91 -367h-121l90 367h-335zM524 765l-70 -282h335l70 282h-335z" />
<glyph unicode="$" horiz-adv-x="897" d="M284 -178l35 171q-119 24 -193.5 110.5t-74.5 226.5q0 28 2 39h134v-27q0 -55 17.5 -100t53.5 -77.5t87 -47.5l97 456l-64 29q-98 44 -145.5 115.5t-47.5 185.5q0 161 104.5 261.5t278.5 100.5q4 0 11 -1t11 -1l34 162h76l-37 -170q105 -25 171.5 -97.5t70.5 -190.5 q0 -25 -4 -35h-133v23q0 63 -36 108t-96 65l-94 -451l31 -14q227 -85 227 -314q0 -79 -25 -146t-73 -116t-121 -76.5t-164 -27.5q-5 0 -12.5 0.5t-10.5 0.5l-34 -162h-76zM665 328q0 77 -34.5 129t-117.5 87l-93 -435h8q98 0 167.5 60t69.5 159zM321 916q0 -77 32 -123.5 t103 -78.5l15 -7l92 432q-107 0 -174.5 -65.5t-67.5 -157.5z" />
<glyph unicode="%" horiz-adv-x="1496" d="M1148 1248h126l-857 -1248h-126zM394 622q50 0 79.5 30.5t39.5 76.5q11 44 39.5 182.5t28.5 152.5q0 42 -31 63.5t-67 21.5q-50 0 -78.5 -30t-40.5 -77q-11 -44 -39.5 -182.5t-28.5 -152.5q0 -42 30.5 -63.5t67.5 -21.5zM379 513q-43 0 -79.5 13.5t-62.5 37.5t-40.5 60 t-14.5 80q0 16 13 82.5t30.5 150.5t20.5 102q10 52 27 90t45.5 68t73 45.5t105.5 15.5q88 0 142 -51t54 -140q0 -15 -12.5 -82t-30.5 -150.5t-21 -101.5q-10 -52 -27 -90t-45 -68.5t-72.5 -46t-105.5 -15.5zM1085 98q50 0 79.5 30.5t39.5 76.5q11 44 39.5 183t28.5 152 q0 42 -30.5 64t-67.5 22q-49 0 -78.5 -30.5t-41.5 -76.5q-10 -43 -38.5 -182.5t-28.5 -152.5q0 -22 9.5 -39t24 -27t31 -15t33.5 -5zM1071 -10q-88 0 -143 51t-55 139q0 16 13 82.5t30.5 151.5t20.5 101q10 52 27 90t46 68t73.5 45.5t104.5 15.5q88 0 142 -51t54 -139 q0 -16 -12.5 -82.5t-30 -151.5t-20.5 -101q-10 -52 -27 -90t-45.5 -68.5t-73 -45.5t-104.5 -15z" />
<glyph unicode="&#x26;" horiz-adv-x="1056" d="M823 1121h-235q-49 0 -94.5 -14t-85 -40.5t-63.5 -73t-24 -106.5q0 -87 48 -142t128 -55h234l32 143h133l-32 -143h228l-28 -125h-226l-120 -565h-369q-124 0 -204.5 74.5t-80.5 210.5q0 131 52.5 221.5t168.5 145.5q-30 22 -52.5 55.5t-35 77.5t-12.5 94q0 92 33 163 t91.5 115.5t136 67.5t169.5 23h235zM376 126h235l93 439h-235q-115 0 -192.5 -68.5t-77.5 -186.5q0 -54 20 -95t60 -65t97 -24z" />
<glyph unicode="'" horiz-adv-x="418" d="M401 848h-134v400h134v-400z" />
<glyph unicode="(" horiz-adv-x="488" d="M294 1035q9 46 18 77t23.5 56t32 39t45.5 24t62 13.5t83 3.5h28l-25 -113h-39q-54 0 -76.5 -19t-32.5 -67q-87 -410 -174 -815q-54 -247 -54 -263q0 -61 79 -61h39l-25 -113h-28q-86 0 -133 44.5t-47 121.5q0 19 11 74t76 358q76 357 137 640z" />
<glyph unicode=")" horiz-adv-x="488" d="M221 9q-9 -46 -18 -77t-23.5 -56t-32 -39t-45.5 -23.5t-62 -13t-83 -3.5h-28l25 113h39q54 0 76.5 18.5t32.5 66.5q87 410 174 815q54 247 54 263q0 62 -79 62h-39l25 113h28q86 0 133 -45t47 -122q0 -19 -11 -74t-76 -358q-76 -357 -137 -640z" />
<glyph unicode="*" horiz-adv-x="845" d="M592 677l-92 173l-163 -173l-84 73l165 177l-197 71l51 96l197 -67l46 221h116l-46 -221l224 67l12 -108l-226 -70l93 -178z" />
<glyph unicode="+" d="M452 139v303h-306v116h306v301h116v-301h298v-116h-298v-303h-116z" />
<glyph unicode="," horiz-adv-x="489" d="M53 0l42 187h187l-42 -187l-97 -168h-114l97 168h-73z" />
<glyph unicode="-" horiz-adv-x="712" d="M611 442h-516l22 116h517z" />
<glyph unicode="." horiz-adv-x="489" d="M53 0l42 187h187l-42 -187h-187z" />
<glyph unicode="/" horiz-adv-x="614" d="M495 1248h129l-505 -1248h-128z" />
<glyph unicode="0" d="M828 335q-40 -183 -140 -267.5t-268 -84.5q-77 0 -138 26t-97 69t-54.5 93t-18.5 103q0 57 42 270.5t77 368.5q41 182 141 267t267 85q53 0 98 -12t78.5 -33.5t59 -49.5t41.5 -61t24 -67.5t8 -68.5q0 -30 -13.5 -113.5t-34 -184t-39 -189t-33.5 -151.5zM695 333 q5 23 40.5 188t53.5 256l-546 -452q-3 -19 -3 -31q0 -85 53 -135t147 -50q91 0 161.5 58.5t93.5 165.5zM365 914q-6 -32 -23 -109.5t-38.5 -172.5t-34.5 -161l547 452q4 24 4 31q0 56 -23 97.5t-68.5 64.5t-108.5 23q-91 0 -162 -59t-93 -166z" />
<glyph unicode="1" d="M399 126l201 938l-282 -205l37 183l283 206h134l-240 -1122h293l-26 -126h-721l27 126h294z" />
<glyph unicode="2" d="M351 873h-133q39 204 139.5 298t276.5 94q78 0 139 -26.5t96.5 -69.5t54 -93t18.5 -103q0 -63 -14.5 -120t-34.5 -98.5t-56.5 -86.5t-66 -74t-77.5 -72l-440 -396h526l-27 -126h-718l27 126l546 491q42 37 72.5 68.5t64.5 76t52 93t18 99.5q0 56 -23 97.5t-68 64.5 t-108 23q-101 0 -174 -69.5t-90 -196.5z" />
<glyph unicode="3" d="M116 357h127q-8 -43 -8 -63q0 -85 52.5 -135t147.5 -50q73 0 133.5 40t93.5 103t33 131q0 37 -12.5 70t-35.5 57.5t-58 39.5t-77 15h-90l29 127h89q75 0 139 39t99.5 99t35.5 124q0 56 -23 97.5t-68 64.5t-108 23q-101 0 -173.5 -69.5t-90.5 -196.5h-133 q38 204 138.5 298t277.5 94q78 0 139 -26.5t96.5 -69.5t54 -93t18.5 -103q0 -132 -62.5 -225.5t-163.5 -136.5q33 -22 57.5 -55t38 -74.5t13.5 -85.5q0 -86 -26 -160t-76 -131t-129 -89.5t-179 -32.5q-77 0 -138.5 26t-97 69t-54 93t-18.5 103q0 51 9 83z" />
<glyph unicode="4" d="M866 337h-130l-71 -337h-134l71 337h-570l27 122l737 789h134l-167 -789h130zM226 459h403l119 558z" />
<glyph unicode="5" d="M731 345q19 92 19 150q0 72 -50 121t-148 49q-67 0 -126.5 -36t-94.5 -102h-137l153 721h656l-27 -127h-522l-89 -415q21 25 53.5 44.5t73.5 30t84 10.5q77 0 138.5 -26.5t97 -69.5t54 -94t18.5 -104q0 -35 -27 -162q-39 -183 -139.5 -267.5t-268.5 -84.5q-78 0 -139 26 t-96.5 69t-54 93t-18.5 103q0 41 9 83h126q-7 -39 -7 -63q0 -85 52.5 -135t147.5 -50q91 0 165 62t97 174z" />
<glyph unicode="6" d="M325 688q30 39 93.5 65t128.5 26q78 0 139 -26.5t97 -69.5t54 -94t18 -104q0 -57 -19 -150q-39 -183 -139.5 -267.5t-268.5 -84.5q-77 0 -138.5 26t-97.5 69t-54.5 93t-18.5 103q0 57 42 270.5t77 368.5q41 182 141 267t267 85q53 0 98 -12t78.5 -33.5t59 -49.5t41.5 -61 t24 -67.5t8 -68.5q0 -33 -9 -82h-126q6 38 6 63q0 56 -22.5 97.5t-68 64.5t-108.5 23q-90 0 -160.5 -59t-94.5 -166q-4 -17 -11.5 -54.5t-17 -84.5t-18.5 -87zM524 652q-44 0 -84.5 -14t-74.5 -42t-59 -71t-37 -97q-21 -101 -21 -134q0 -56 23 -97.5t68 -64.5t108 -23 q91 0 161.5 58.5t93.5 165.5q19 92 19 150q0 72 -50 120.5t-147 48.5z" />
<glyph unicode="7" d="M976 1121l-632 -1121h-150l632 1121h-559l27 127h709z" />
<glyph unicode="8" d="M838 388q0 -120 -42.5 -210t-132 -142.5t-218.5 -52.5q-65 0 -120.5 18.5t-92.5 49.5t-63 71.5t-38 82.5t-12 84q0 133 53.5 229t157.5 140q-75 82 -75 194q0 88 26 163t75.5 131t126 87.5t173.5 31.5q67 0 124 -25.5t93 -67t55.5 -92t19.5 -102.5q0 -128 -52.5 -225 t-152.5 -146q47 -44 71 -102t24 -117zM248 306q0 -86 56.5 -141.5t160.5 -55.5q99 0 171.5 72.5t72.5 187.5q0 42 -14 77.5t-40.5 62.5t-68.5 42t-94 15q-99 0 -171.5 -72.5t-72.5 -187.5zM820 959q0 82 -53.5 131t-134.5 49q-106 0 -177.5 -79.5t-71.5 -188.5 q0 -82 53 -130.5t134 -48.5q106 0 178 79t72 188z" />
<glyph unicode="9" d="M731 559q-31 -38 -94.5 -64t-128.5 -26q-62 0 -114.5 17.5t-87.5 46.5t-59.5 67.5t-36 79.5t-11.5 83q0 52 20 150q27 122 81 200.5t135 115t192 36.5q78 0 139 -26.5t97 -69.5t54 -93t18 -103q0 -57 -41.5 -270t-77.5 -368q-41 -183 -140.5 -267.5t-267.5 -84.5 q-62 0 -114.5 17t-87.5 46t-59.5 67t-35.5 78.5t-11 82.5q0 38 9 83h126q-7 -39 -7 -63q0 -85 52.5 -135t147.5 -50q90 0 160.5 58.5t93.5 165.5q4 16 20 95t29 131zM531 595q59 0 110 25t90 76.5t55 123.5q21 105 21 134q0 85 -52.5 135t-147.5 50q-90 0 -160 -58.5 t-94 -166.5q-20 -96 -20 -149q0 -72 50 -121t148 -49z" />
<glyph unicode=":" horiz-adv-x="489" d="M209 733l41 187h187l-41 -187h-187zM53 0l42 187h187l-42 -187h-187z" />
<glyph unicode=";" horiz-adv-x="489" d="M209 733l41 187h187l-41 -187h-187zM53 0l42 187h187l-42 -187l-97 -168h-114l97 168h-73z" />
<glyph unicode="&#x3c;" d="M267 461l599 -337v-133l-720 405v131l720 405v-133z" />
<glyph unicode="=" d="M866 250h-720v115h720v-115zM866 615h-720v116h720v-116z" />
<glyph unicode="&#x3e;" d="M146 124l599 337l-599 338v133l720 -405v-131l-720 -405v133z" />
<glyph unicode="?" horiz-adv-x="894" d="M244 0l40 187h187l-39 -187h-188zM299 891h-134q41 196 143 285t271 89q78 0 139 -26.5t97 -69.5t54 -93t18 -103q0 -57 -16.5 -111t-44.5 -96t-57 -73t-60 -55l-128 -98q-44 -34 -63 -61t-28 -66l-7 -39h-134l8 39q16 72 50 121t99 100l126 99q127 100 127 221 q0 85 -52.5 135t-147.5 50q-103 0 -172.5 -69t-87.5 -179z" />
<glyph unicode="@" horiz-adv-x="1581" d="M1141 920v-723q0 -30 13 -53t36 -35t51 -12q44 0 72.5 27t28.5 73v459q0 85 -29 162.5t-81 137.5t-120.5 104t-151 67.5t-169.5 23.5q-110 0 -210.5 -37t-175.5 -101t-120 -157.5t-45 -199.5v-392q0 -107 45 -200t120 -157.5t175.5 -101t210.5 -36.5q193 0 340 101 l63 -100q-175 -115 -403 -115q-139 0 -262 45t-212 124.5t-141 193.5t-52 246v392q0 132 52 246t141 193.5t212 124.5t262 45q111 0 212.5 -28.5t183.5 -83t143 -128t94 -168.5t33 -201v-467q0 -102 -57.5 -154t-158.5 -52q-170 0 -234 112q-33 -54 -96.5 -83t-130.5 -29 q-53 0 -103 11t-97.5 37.5t-82 66.5t-56 103t-21.5 141v243q0 65 14.5 120t41 93.5t60.5 67t75 45.5t83 25t86 8q67 0 130.5 -29.5t96.5 -82.5v88h134zM554 586v-246q0 -73 32.5 -126.5t82.5 -78.5t111 -25q96 0 161.5 60.5t65.5 169.5v246q0 56 -18.5 100.5t-50.5 72.5 t-72 42.5t-86 14.5q-95 0 -160.5 -60t-65.5 -170z" />
<glyph unicode="A" horiz-adv-x="1008" d="M757 0l-38 353h-459l-187 -353h-144l664 1248h157l136 -1248h-129zM706 476l-65 593l-315 -593h380z" />
<glyph unicode="B" horiz-adv-x="1030" d="M828 617q48 -34 76 -94.5t28 -123.5q0 -82 -28.5 -153.5t-82 -126.5t-139 -87t-192.5 -32h-446l266 1248h392q77 0 139 -25.5t100 -68t58 -95t20 -109.5q0 -34 -6.5 -69t-21 -73t-36 -72t-54 -65.5t-73.5 -53.5zM609 565h-308l-90 -433h289q130 0 211.5 71t81.5 189 q0 77 -49.5 125t-134.5 48zM330 697h304q108 0 176.5 70t68.5 175q0 53 -22 92t-64.5 60t-102.5 21h-272z" />
<glyph unicode="C" horiz-adv-x="998" d="M665 1265q70 0 131 -19.5t109 -57.5t75.5 -100.5t27.5 -141.5q0 -40 -3 -67h-139q5 32 5 56q0 64 -25 108.5t-75.5 67.5t-125.5 23q-122 0 -203.5 -75t-113.5 -216q-107 -480 -107 -532q0 -96 57 -146.5t169 -50.5q114 0 193 65.5t115 189.5h138q-50 -194 -161 -290 t-304 -96q-56 0 -106.5 11.5t-94 37t-75.5 62.5t-50 90t-18 117q0 16 0.5 26.5t1 22.5t4.5 31.5t8 40t13.5 62t18.5 84t26 119.5t35 156q47 212 159.5 317t314.5 105z" />
<glyph unicode="D" horiz-adv-x="1049" d="M211 132h272q60 0 111.5 19t92 55.5t69 91t44.5 124.5q100 445 100 496q0 64 -25 108t-75.5 66.5t-126.5 22.5h-255zM463 0h-419l266 1248h383q71 0 132 -19.5t109 -57.5t75.5 -100.5t27.5 -142.5q0 -28 -6 -69.5t-17.5 -96.5t-22.5 -104.5t-27.5 -120t-26.5 -115.5 q-47 -212 -160 -317t-314 -105z" />
<glyph unicode="E" horiz-adv-x="965" d="M303 565l-92 -433h571l-29 -132h-709l266 1248h709l-28 -133h-573l-88 -418h571l-28 -132h-570z" />
<glyph unicode="F" horiz-adv-x="947" d="M303 565l-121 -565h-138l266 1248h709l-28 -133h-573l-88 -418h571l-28 -132h-570z" />
<glyph unicode="G" horiz-adv-x="1011" d="M791 529h-264l29 132h403q-14 -66 -58 -256q-47 -212 -159.5 -317t-313.5 -105q-56 0 -106.5 11.5t-94 37t-75.5 62.5t-50 90t-18 117q0 16 0.5 26.5t1 22.5t4.5 31.5t8 40t13.5 62t18.5 84t26 119.5t35 156q47 212 159.5 317t314.5 105q70 0 131 -19.5t109 -57.5 t75.5 -100.5t27.5 -141.5q0 -40 -3 -67h-139q5 32 5 56q0 64 -25 108.5t-75.5 67.5t-125.5 23q-122 0 -203.5 -75t-113.5 -216q-107 -480 -107 -532q0 -96 57 -146.5t169 -50.5q122 0 204 74.5t114 216.5q6 24 14 66t12 58z" />
<glyph unicode="H" horiz-adv-x="1090" d="M860 697l118 551h137l-265 -1248h-137l119 565h-529l-121 -565h-138l266 1248h137l-117 -551h530z" />
<glyph unicode="I" horiz-adv-x="421" d="M44 0l266 1248h137l-265 -1248h-138z" />
<glyph unicode="J" horiz-adv-x="842" d="M5 357h136q-9 -34 -9 -72q0 -75 54.5 -123t138.5 -48q99 0 152.5 58.5t76.5 169.5l192 906h138l-192 -906q-27 -127 -71.5 -203.5t-121.5 -116t-195 -39.5q-55 0 -109 19t-98.5 54.5t-72 91.5t-27.5 123q0 41 8 86z" />
<glyph unicode="K" horiz-adv-x="1086" d="M260 367l-78 -367h-138l266 1248h137l-143 -670l713 670h180l-546 -514l327 -734h-145l-284 639z" />
<glyph unicode="L" horiz-adv-x="877" d="M44 0l266 1248h137l-236 -1116h571l-29 -132h-709z" />
<glyph unicode="M" horiz-adv-x="1278" d="M634 492l533 756h137l-265 -1248h-136l200 939l-426 -604h-128l-161 648l-208 -983h-136l266 1248h137z" />
<glyph unicode="N" horiz-adv-x="1090" d="M1115 1248l-265 -1248h-137l-317 1007l-214 -1007h-138l266 1248h137l318 -1008l213 1008h137z" />
<glyph unicode="O" horiz-adv-x="1018" d="M901 405q-47 -212 -159.5 -317t-313.5 -105q-56 0 -106.5 11.5t-94 37t-75.5 62.5t-50 90t-18 117q0 16 0.5 26.5t1 22.5t4.5 31.5t8 40t13.5 62t18.5 84t26 119.5t35 156q47 212 159.5 317t314.5 105q70 0 131 -19.5t109 -57.5t75.5 -100.5t27.5 -141.5v-22t-0.5 -18 t-2.5 -21.5t-4 -24.5t-7 -35.5t-9.5 -45t-13.5 -63t-18 -79.5t-23.5 -104.5t-28.5 -127.5zM221 311q0 -96 57 -146.5t169 -50.5q122 0 204 74.5t114 216.5q106 476 106 530q0 64 -25 108.5t-75.5 67.5t-125.5 23q-122 0 -203.5 -75t-113.5 -216q-107 -480 -107 -532z" />
<glyph unicode="P" horiz-adv-x="998" d="M1042 911q0 -90 -31 -166.5t-89 -134.5t-148.5 -91t-203.5 -33h-285l-103 -486h-138l266 1248h403q97 0 173.5 -47.5t116 -123.5t39.5 -166zM592 619q132 0 220.5 79.5t88.5 201.5q0 41 -10.5 77t-34 68.5t-67.5 51t-105 18.5h-266l-105 -496h279z" />
<glyph unicode="Q" horiz-adv-x="1037" d="M901 405q-38 -175 -117 -273l102 -132l-100 -80l-98 126q-101 -63 -260 -63q-56 0 -106.5 11.5t-94 37t-75.5 62.5t-50 90t-18 117q0 16 0.5 26.5t1 22.5t4.5 31.5t8 40t13.5 62t18.5 84t26 119.5t35 156q47 212 159.5 317t314.5 105q70 0 131 -19.5t109 -57.5 t75.5 -100.5t27.5 -141.5v-22t-0.5 -18t-2.5 -21.5t-4 -24.5t-7 -35.5t-9.5 -45t-13.5 -63t-18 -79.5t-23.5 -104.5t-28.5 -127.5zM221 311q0 -96 57 -146.5t169 -50.5q95 0 159 41l-111 146l97 80l105 -138q48 70 68 162q106 476 106 530q0 64 -25 108.5t-75.5 67.5 t-125.5 23q-122 0 -203.5 -75t-113.5 -216q-107 -480 -107 -532z" />
<glyph unicode="R" horiz-adv-x="1018" d="M515 566h-214l-119 -566h-138l266 1248h403q77 0 139 -25.5t100 -68t58 -95t20 -109.5q0 -39 -8.5 -79t-26.5 -82.5t-48 -80.5t-70 -68.5t-96.5 -50t-122.5 -23.5l211 -566h-142zM330 695h315q107 0 175.5 71t68.5 176q0 53 -21.5 92t-64.5 60t-103 21h-282z" />
<glyph unicode="S" horiz-adv-x="920" d="M821 345q0 -75 -23 -139t-70 -115t-126 -79.5t-182 -28.5q-40 0 -80 6.5t-77.5 21t-71.5 35t-62 49.5t-48.5 63.5t-32 78.5t-11.5 93q0 28 2 39h139q-1 -14 -1 -27q0 -110 71 -169t184 -59q117 0 184.5 59t67.5 158q0 33 -5 59t-18.5 54t-41.5 50t-70 38l-144 56 q-234 91 -234 319q0 63 16.5 118t48.5 99t77.5 75.5t107 48.5t133.5 17q96 0 173 -34t126 -105.5t52 -170.5q0 -23 -2 -35h-137q2 14 2 22q0 86 -59 139t-160 53q-113 0 -177 -61t-64 -153q0 -52 16 -91t47.5 -66t79.5 -45l144 -55q226 -86 226 -318z" />
<glyph unicode="T" horiz-adv-x="852" d="M497 1115h-333l28 133h804l-29 -133h-333l-236 -1115h-138z" />
<glyph unicode="U" horiz-adv-x="1057" d="M238 311q0 -96 57.5 -146.5t169.5 -50.5q122 0 204.5 75t112.5 216l185 843h138l-185 -843q-47 -212 -160 -317t-315 -105q-70 0 -131 19t-109 57t-75.5 100t-27.5 142q0 22 9.5 77.5t30.5 156.5t41 191t55.5 252t59.5 270h137q-197 -883 -197 -937z" />
<glyph unicode="V" horiz-adv-x="1008" d="M440 187l567 1061h144l-666 -1248h-157l-136 1248h133z" />
<glyph unicode="W" horiz-adv-x="1291" d="M786 0l-55 840l-420 -840h-131l36 1248h131l-29 -968l393 789h129l49 -789l381 968h143l-495 -1248h-132z" />
<glyph unicode="X" horiz-adv-x="1004" d="M549 750l401 498h162l-503 -614l236 -634h-143l-187 519l-418 -519h-163l518 632l-228 616h141z" />
<glyph unicode="Y" horiz-adv-x="970" d="M561 495l-105 -495h-137l105 497l-251 751h133l206 -617l468 617h154z" />
<glyph unicode="Z" horiz-adv-x="956" d="M787 0h-812l28 132l844 983h-628l29 133h796l-29 -133l-842 -983h643z" />
<glyph unicode="[" horiz-adv-x="488" d="M30 -203l308 1451h248l-25 -113h-131l-259 -1225h132l-25 -113h-248z" />
<glyph unicode="\" horiz-adv-x="655" d="M32 1248h128l505 -1248h-129z" />
<glyph unicode="]" horiz-adv-x="488" d="M485 1248l-308 -1451h-247l26 113h129l259 1225h-132l25 113h248z" />
<glyph unicode="^" horiz-adv-x="1097" d="M656 1248l371 -714h-134l-300 576l-299 -576h-134l371 714h125z" />
<glyph unicode="_" horiz-adv-x="719" d="M573 -223h-717l21 116h720z" />
<glyph unicode="`" horiz-adv-x="541" d="M272 1248h180l90 -231h-107z" />
<glyph unicode="a" horiz-adv-x="961" d="M542 818q-106 0 -177.5 -59.5t-95.5 -172.5q-4 -16 -10.5 -46t-11.5 -52.5t-11 -52t-10.5 -53t-8.5 -47t-6 -42t-2 -29.5q0 -52 28 -88t69.5 -51.5t91.5 -15.5q106 0 177 59t95 172q4 18 10 47t11.5 52t11.5 52t10.5 53t9 47t6.5 41.5t2 30.5q0 39 -16 69.5t-43 48.5 t-60 27.5t-70 9.5zM597 0l22 98q-22 -32 -56 -57t-85 -41.5t-109 -16.5q-55 0 -107.5 17.5t-94.5 49.5t-68 83t-26 111q0 19 4 47.5t11.5 68t14 70.5t17.5 81.5t16 73.5q39 190 142.5 274.5t266.5 84.5q53 0 97.5 -16.5t76.5 -46t51 -68.5l23 107h134l-196 -920h-134z" />
<glyph unicode="b" horiz-adv-x="963" d="M422 109q106 0 177.5 59t95.5 172q3 16 14 65.5t17 78t14 68.5t11.5 67.5t3.5 43.5q0 39 -16 69.5t-43 48.5t-60 27.5t-70 9.5q-106 0 -177 -59t-95 -173q-4 -19 -14 -65t-17 -77t-14.5 -69.5t-11.5 -66.5t-4 -44q0 -52 28 -88t69.5 -51.5t91.5 -15.5zM435 1248l-90 -420 q16 24 40 44t55 36.5t71 26t84 9.5q55 0 107.5 -17.5t94.5 -50t68 -83t26 -111.5q0 -18 -4 -46.5t-11.5 -68.5t-14 -70.5t-17.5 -81.5t-16 -73q-20 -97 -57 -167t-90 -112t-117.5 -61t-145.5 -19q-78 0 -136.5 35.5t-87.5 95.5l-24 -114h-134l265 1248h134z" />
<glyph unicode="c" horiz-adv-x="916" d="M860 629h-133q4 28 4 34q0 39 -16 69.5t-43 48.5t-60 27.5t-70 9.5q-106 0 -177.5 -59.5t-95.5 -172.5q-4 -16 -10.5 -46t-11.5 -52.5t-11 -52t-10.5 -53t-8.5 -47t-6 -42t-2 -29.5q0 -52 28 -88t69.5 -51.5t91.5 -15.5q94 0 162.5 48t98.5 141h134q-46 -168 -147 -241.5 t-265 -73.5q-82 0 -151 29.5t-113 90.5t-44 141q0 19 4 47.5t11.5 68t14 70.5t17.5 81.5t16 73.5q40 192 143.5 275.5t278.5 83.5q81 0 150.5 -29.5t113.5 -90.5t44 -142q0 -20 -6 -53z" />
<glyph unicode="d" horiz-adv-x="961" d="M542 818q-106 0 -177.5 -59.5t-95.5 -172.5q-4 -16 -10.5 -46t-11.5 -52.5t-11 -52t-10.5 -53t-8.5 -47t-6 -42t-2 -29.5q0 -52 28 -88t69.5 -51.5t91.5 -15.5q106 0 177 59t95 172q4 18 10 47t11.5 52t11.5 52t10.5 53t9 47t6.5 41.5t2 30.5q0 39 -16 69.5t-43 48.5 t-60 27.5t-70 9.5zM597 0l22 98q-22 -32 -56 -57t-85 -41.5t-109 -16.5q-55 0 -107.5 17.5t-94.5 49.5t-68 83t-26 111q0 19 4 47.5t11.5 68t14 70.5t17.5 81.5t16 73.5q39 190 142.5 274.5t266.5 84.5q53 0 97.5 -16.5t76.5 -46t51 -68.5l92 435h134l-265 -1248h-134z" />
<glyph unicode="e" horiz-adv-x="928" d="M823 430h-588q-26 -131 -26 -166q0 -52 28 -88t69.5 -51.5t91.5 -15.5q61 0 111.5 20t88 60.5t58.5 99.5h135q-31 -110 -88.5 -178.5t-136 -98t-185.5 -29.5q-82 0 -151 29.5t-113 90.5t-44 141q0 19 4 47.5t11.5 68t14 70.5t17.5 81.5t16 73.5q40 192 143.5 275.5 t278.5 83.5q81 0 150.5 -29.5t113.5 -90.5t44 -142q0 -56 -43 -252zM714 551q17 91 17 112q0 39 -16 69.5t-43 48.5t-60 27.5t-70 9.5q-78 0 -137.5 -32.5t-95 -92t-47.5 -142.5h452z" />
<glyph unicode="f" horiz-adv-x="564" d="M682 1121h-140q-48 0 -71 -19t-33 -63l-25 -119h226l-28 -127h-226l-167 -793h-134l167 793h-130l29 127h130l23 108q10 51 21 83.5t30 61t46.5 43.5t68.5 23.5t99 8.5h141z" />
<glyph unicode="g" horiz-adv-x="959" d="M139 -30q-2 -13 -2 -34q0 -52 28.5 -88t69.5 -51.5t91 -15.5q106 0 177.5 59t95.5 172l25 122q-34 -50 -99.5 -83.5t-150.5 -33.5q-55 0 -107.5 18t-94.5 50.5t-68 83t-26 111.5q0 19 3 44t9.5 58.5t12.5 60.5l16 72t15 70q40 190 143 274.5t267 84.5q52 0 97 -16.5 t76.5 -46t50.5 -68.5l23 107h134l-192 -906q-40 -192 -144.5 -275.5t-278.5 -83.5q-82 0 -151 29.5t-113 90.5t-44 141q0 21 5 54h132zM540 818q-106 0 -177.5 -59.5t-95.5 -172.5q-4 -17 -10 -44t-10 -47.5t-9.5 -45.5t-9.5 -45t-7.5 -40t-5 -36.5t-1.5 -28.5q0 -52 28 -88 t69.5 -51.5t91.5 -15.5q106 0 177 59.5t95 172.5q5 21 17.5 77t18.5 85.5t12 67t6 57.5q0 39 -16 69.5t-43 48.5t-60 27.5t-70 9.5z" />
<glyph unicode="h" horiz-adv-x="974" d="M595 944q55 0 107.5 -17.5t94.5 -50t68 -83t26 -111.5q0 -18 -4 -46.5t-11.5 -68.5t-14 -70.5t-17.5 -81.5t-16 -73l-73 -342h-133l73 340q60 260 60 323q0 39 -16 69.5t-43 48.5t-60 27.5t-70 9.5q-106 0 -177 -59t-95 -173l-124 -586h-134l265 1248h134l-90 -420 q16 24 40 44t55 36.5t71 26t84 9.5z" />
<glyph unicode="i" horiz-adv-x="400" d="M435 1248l-37 -174h-134l37 174h134zM365 920l-195 -920h-134l195 920h134z" />
<glyph unicode="j" horiz-adv-x="400" d="M10 -119l221 1039h134l-219 -1029q-11 -51 -22 -83t-29.5 -61t-45.5 -43.5t-67.5 -23t-98.5 -8.5h-27l27 127h27q47 0 69 18.5t31 63.5zM435 1248l-37 -174h-134l37 174h134z" />
<glyph unicode="k" horiz-adv-x="899" d="M435 1248l-161 -751l479 423h179l-408 -361l260 -559h-143l-219 472l-189 -168l-63 -304h-134l265 1248h134z" />
<glyph unicode="l" horiz-adv-x="400" d="M435 1248l-265 -1248h-134l265 1248h134z" />
<glyph unicode="m" horiz-adv-x="1506" d="M595 0l73 340q61 264 61 323q0 74 -54.5 114.5t-127.5 40.5q-92 0 -161 -62.5t-92 -169.5l-124 -586h-134l195 920h134l-20 -92q36 53 95.5 84.5t131.5 31.5q78 0 145.5 -34t107.5 -94q97 128 303 128q54 0 106.5 -17.5t95 -50t68 -83t25.5 -111.5q0 -18 -3.5 -46 t-11.5 -70t-13.5 -69t-17.5 -82.5t-15 -72.5l-74 -342h-134l74 340q60 264 60 323q0 74 -54 114.5t-127 40.5q-92 0 -161.5 -62.5t-92.5 -169.5l-124 -586h-134z" />
<glyph unicode="n" horiz-adv-x="974" d="M595 944q55 0 107.5 -17.5t94.5 -50t68 -83t26 -111.5q0 -18 -4 -46.5t-11.5 -68.5t-14 -70.5t-17.5 -81.5t-16 -73l-73 -342h-133l73 340q60 260 60 323q0 39 -16 69.5t-43 48.5t-60 27.5t-70 9.5q-106 0 -177 -59t-95 -173l-124 -586h-134l195 920h134l-20 -92 q16 24 40 44t55 36.5t71 26t84 9.5z" />
<glyph unicode="o" horiz-adv-x="938" d="M804 342q-40 -192 -144 -275.5t-279 -83.5q-82 0 -151 29.5t-113 90.5t-44 141q0 19 4 47.5t11.5 68t14 70.5t17.5 81.5t16 73.5q40 192 143.5 275.5t278.5 83.5q81 0 150.5 -29.5t113.5 -90.5t44 -142q0 -18 -3.5 -46t-11.5 -70t-13.5 -69t-18 -82.5t-15.5 -72.5z M398 109q106 0 177 59t95 172q4 18 10 47t11.5 52t11.5 52t10.5 53t9 47t6.5 41.5t2 30.5q0 39 -16 69.5t-43 48.5t-60 27.5t-70 9.5q-106 0 -177.5 -59.5t-95.5 -172.5q-4 -16 -10.5 -46t-11.5 -52.5t-11 -52t-10.5 -53t-8.5 -47t-6 -42t-2 -29.5q0 -52 28 -88t69.5 -51.5 t91.5 -15.5z" />
<glyph unicode="p" horiz-adv-x="963" d="M422 109q106 0 177.5 59t95.5 172q3 16 14 65.5t17 78t14 68.5t11.5 67.5t3.5 43.5q0 39 -16 69.5t-43 48.5t-60 27.5t-70 9.5q-106 0 -177 -59t-95 -173q-4 -19 -14 -65t-17 -77t-14.5 -69.5t-11.5 -66.5t-4 -44q0 -52 28 -88t69.5 -51.5t91.5 -15.5zM365 920l-20 -92 q16 24 40 44t55 36.5t71 26t84 9.5q55 0 107.5 -17.5t94.5 -50t68 -83t26 -111.5q0 -18 -4 -46.5t-11.5 -68.5t-14 -70.5t-17.5 -81.5t-16 -73q-20 -97 -57 -167t-90 -112t-117.5 -61t-145.5 -19q-78 0 -136.5 35.5t-87.5 95.5l-94 -442h-134l265 1248h134z" />
<glyph unicode="q" horiz-adv-x="961" d="M542 818q-106 0 -177.5 -59.5t-95.5 -172.5q-4 -16 -10.5 -46t-11.5 -52.5t-11 -52t-10.5 -53t-8.5 -47t-6 -42t-2 -29.5q0 -52 28 -88t69.5 -51.5t91.5 -15.5q106 0 177 59t95 172q4 18 10 47t11.5 52t11.5 52t10.5 53t9 47t6.5 41.5t2 30.5q0 39 -16 69.5t-43 48.5 t-60 27.5t-70 9.5zM527 -328l92 426q-22 -32 -56 -57t-85 -41.5t-109 -16.5q-55 0 -107.5 17.5t-94.5 49.5t-68 83t-26 111q0 19 4 47.5t11.5 68t14 70.5t17.5 81.5t16 73.5q39 190 142.5 274.5t266.5 84.5q53 0 97.5 -16.5t76.5 -46t51 -68.5l23 107h134l-266 -1248h-134z " />
<glyph unicode="r" horiz-adv-x="582" d="M626 809h-61q-106 0 -177.5 -59t-95.5 -172l-122 -578h-134l195 920h134l-21 -100q21 31 55 56.5t85 42t109 16.5h59z" />
<glyph unicode="s" horiz-adv-x="838" d="M782 651h-134v12q0 74 -52.5 114.5t-126.5 40.5q-47 0 -87.5 -14.5t-68.5 -47.5t-28 -79q0 -98 103 -128l120 -36q98 -29 154.5 -87.5t56.5 -141.5q0 -140 -87.5 -220.5t-257.5 -80.5q-65 0 -124.5 17.5t-108.5 51t-78 89t-29 124.5q0 20 2 29h134v-18q0 -56 31.5 -95 t80.5 -55.5t110 -16.5q34 0 66 7.5t61.5 23.5t47.5 46.5t18 70.5q0 98 -122 135l-119 36q-90 26 -142 86.5t-52 146.5q0 127 85.5 205t243.5 78q134 0 219.5 -74.5t85.5 -189.5q0 -15 -2 -29z" />
<glyph unicode="t" horiz-adv-x="607" d="M607 793h-226q-32 -151 -74 -350q-56 -259 -56 -268q0 -49 74 -49h142l-27 -126h-142q-87 0 -132 41t-45 114q0 32 15 109.5t76 361.5q23 105 36 167h-131l27 127h130l45 208h133l-44 -208h226z" />
<glyph unicode="u" horiz-adv-x="963" d="M378 -17q-54 0 -105.5 17.5t-93.5 49.5t-68 83t-26 111q0 16 3 40.5t7.5 49.5t11.5 60.5t13 62.5t14.5 66.5t13.5 61.5l71 335h134l-71 -334q-4 -19 -14.5 -65t-17 -77t-14 -69.5t-11.5 -66.5t-4 -44q0 -76 54 -115.5t130 -39.5q103 0 173 59.5t94 171.5l122 580h134 l-195 -920h-134l21 98q-33 -48 -97.5 -81.5t-144.5 -33.5z" />
<glyph unicode="v" horiz-adv-x="833" d="M921 920l-525 -920h-150l-137 920h129l111 -762l428 762h144z" />
<glyph unicode="w" horiz-adv-x="1218" d="M775 920l45 -717l336 717h138l-437 -920h-139l-46 733l-364 -733h-138l-49 920h129l32 -699l345 699h148z" />
<glyph unicode="x" horiz-adv-x="843" d="M568 0l-162 364l-316 -364h-160l412 467l-205 453h139l161 -350l303 350h160l-403 -457l207 -463h-136z" />
<glyph unicode="y" horiz-adv-x="831" d="M175 -146l73 129l-141 937h130l110 -762l428 762h145l-660 -1153q-30 -52 -81.5 -73t-141.5 -22h-51l26 127h68q27 0 46 7.5t29 18.5t20 29z" />
<glyph unicode="z" horiz-adv-x="829" d="M823 793l-646 -667h518l-27 -126h-691l26 126l648 667h-496l27 127h668z" />
<glyph unicode="{" horiz-adv-x="544" d="M243 -29q0 -61 78 -61h39l-25 -113h-29q-85 0 -132.5 44.5t-47.5 121.5q0 23 45 228t45 226q0 19 -8 29.5t-24.5 14.5t-46.5 4h-39l23 114h39q53 0 78 21t34 70l79 365q10 47 19 77t24 55.5t32 39.5t45 24t61.5 13.5t82.5 3.5h28l-24 -113h-40q-53 0 -76 -19t-32 -67 l-79 -365q-4 -23 -6.5 -32.5t-7.5 -29t-9 -29t-12 -24.5t-16.5 -23.5t-21 -18t-27.5 -15.5q39 -30 39 -82q0 -32 -44 -236.5t-44 -222.5z" />
<glyph unicode="|" horiz-adv-x="400" d="M143 -178v1426h115v-1426h-115z" />
<glyph unicode="}" horiz-adv-x="544" d="M328 1073q0 62 -78 62h-39l24 113h29q57 0 97.5 -21t61.5 -58t21 -88q0 -23 -44.5 -228t-44.5 -226q0 -27 17 -37.5t61 -10.5h39l-23 -114h-39q-53 0 -78 -21t-34 -70l-79 -365q-8 -40 -16.5 -67.5t-19 -51t-24.5 -38.5t-32 -26.5t-43.5 -17t-55.5 -8.5t-72 -3h-29 l25 113h39q54 0 77 18.5t32 66.5l78 365q5 20 6 25t5 23t6 23.5t7.5 20.5t9.5 21t11.5 17.5t15 17.5t17.5 12.5t22 11.5q-40 30 -40 83q0 32 45 236t45 222z" />
<glyph unicode="~" horiz-adv-x="933" d="M189 401l-75 82q55 61 116.5 88.5t118.5 27.5q41 0 80 -13t63.5 -28.5t56 -28t60.5 -12.5q34 0 67.5 18.5t82.5 63.5l74 -82q-54 -61 -115.5 -88.5t-118.5 -27.5q-42 0 -80.5 13t-63.5 28t-56.5 28t-60.5 13q-34 0 -67 -18.5t-82 -63.5z" />
<glyph unicode="&#xa1;" horiz-adv-x="435" d="M-16 -328l186 873h133l-186 -873h-133zM410 920l-39 -187h-187l39 187h187z" />
<glyph unicode="&#xa2;" horiz-adv-x="935" d="M303 -178l273 1283h76l-273 -1283h-76zM869 629h-133q4 28 4 34q0 39 -16 69.5t-43.5 48.5t-60.5 27.5t-69 9.5q-106 0 -178 -59.5t-95 -172.5q-4 -16 -10.5 -46t-11.5 -52.5t-11 -52t-10.5 -53t-8.5 -47t-6 -42t-2 -29.5q0 -52 28 -88t69 -51.5t91 -15.5q95 0 163.5 48 t98.5 141h134q-31 -114 -88 -184t-135.5 -100.5t-187.5 -30.5q-82 0 -151.5 29.5t-113.5 90.5t-44 141q0 14 2 33t6 43t8.5 47.5t11 54t11.5 54.5t12 56t11 53q40 192 144 275.5t278 83.5q82 0 151.5 -29.5t113.5 -90.5t44 -142q0 -15 -6 -53z" />
<glyph unicode="&#xa3;" horiz-adv-x="1047" d="M1035 905h-127q6 38 6 49q0 85 -52.5 135t-147.5 50q-90 0 -160.5 -59t-94.5 -166l-51 -242h452l-19 -94h-453l-77 -359q-8 -40 -15.5 -59.5t-23.5 -33.5h607l-27 -126h-832l24 126h29q38 0 66.5 19.5t37.5 61.5l78 371h-114l19 94h114l52 241q38 182 139 267t269 85 q78 0 139 -26.5t97 -69.5t54 -93t18 -103q0 -32 -7 -68z" />
<glyph unicode="&#xa4;" horiz-adv-x="1277" d="M146 150l152 151q-109 131 -109 305q0 171 109 305l-152 151l68 67l151 -153q130 111 305 111q84 0 162 -28.5t141 -80.5l151 151l68 -67l-151 -151q34 -41 58.5 -89.5t38 -104t13.5 -111.5q0 -171 -110 -307l151 -149l-68 -68l-151 151q-63 -52 -141 -80.5t-162 -28.5 q-174 0 -305 109l-151 -151zM318 605.5q0 -95.5 47 -176.5t128 -128.5t176.5 -47.5t177 47.5t129 128.5t47.5 176.5t-47.5 177t-129 129t-176.5 47.5t-176.5 -47.5t-128.5 -129t-47 -177z" />
<glyph unicode="&#xa5;" horiz-adv-x="1045" d="M668 592h243l-22 -95h-292l-34 -153h294l-19 -94h-294l-52 -250h-134l52 250h-291l20 94h291l33 153h-292l21 95h240l-221 656h129l207 -616l470 616h154z" />
<glyph unicode="&#xa6;" horiz-adv-x="400" d="M258 1248v-605h-115v605h115zM143 -178v603h115v-603h-115z" />
<glyph unicode="&#xa7;" horiz-adv-x="976" d="M51 -36h119q-2 -23 -2 -35q0 -41 19 -73.5t49.5 -51.5t65 -29t69.5 -10q42 0 81 12t70.5 34.5t50.5 59t19 81.5q0 60 -28.5 109t-85.5 69l-168 61q-104 37 -152 101t-48 173q0 112 61.5 185t168.5 105q-32 39 -50.5 92.5t-18.5 111.5q0 138 92.5 222t258.5 84 q133 0 221.5 -76t88.5 -200v-16h-118q0 28 -6 52.5t-17 42.5t-26.5 33t-33.5 25t-38.5 16.5t-40.5 9t-41 2.5q-57 0 -106 -20t-81.5 -63.5t-32.5 -103.5t28.5 -108.5t85.5 -69.5l167 -60q103 -38 151 -102t48 -173q0 -112 -62 -186t-170 -104q72 -89 72 -203 q0 -91 -40 -159.5t-120 -107.5t-191 -39q-135 0 -222.5 74t-87.5 187q0 9 1 48zM620 617l-142 49q-109 -9 -177 -64.5t-68 -130.5q0 -26 4.5 -46.5t17 -44t39.5 -43.5t68 -34l143 -52q107 9 175 66t68 132q0 26 -4 46t-16.5 44t-39.5 43.5t-68 34.5z" />
<glyph unicode="&#xa8;" horiz-adv-x="726" d="M413 1219l-37 -173h-133l37 173h133zM768 1219l-37 -173h-134l37 173h134z" />
<glyph unicode="&#xa9;" horiz-adv-x="1442" d="M114 624q0 131 50.5 249.5t136.5 204.5t204.5 136.5t249.5 50.5t250 -50.5t205 -136.5t136.5 -204.5t50.5 -249.5t-50.5 -250t-136.5 -204.5t-205 -136t-250 -50.5t-249.5 50.5t-204.5 136t-136.5 204.5t-50.5 250zM230 624q0 -108 41 -205.5t111.5 -168t167.5 -112 t205 -41.5t205.5 41.5t168 112t112 168t41.5 205.5t-41.5 205.5t-112 168t-168 112t-205.5 41.5q-86 0 -166.5 -26.5t-145 -75t-113 -113.5t-74.5 -145.5t-26 -166.5zM755 240q-123 0 -197.5 72.5t-74.5 193.5v235q0 120 74.5 193t197.5 73q117 0 192 -66t81 -178h-121 q-8 61 -52 92t-100 31q-60 0 -105.5 -37t-45.5 -108v-235q0 -49 23.5 -83t56.5 -48.5t71 -14.5q55 0 99.5 32t52.5 93h121q-7 -112 -81.5 -178.5t-191.5 -66.5z" />
<glyph unicode="&#xaa;" horiz-adv-x="578" d="M311 704q-82 0 -129.5 42.5t-47.5 112.5q0 67 33 107t113 61q78 19 239 22q1 7 1 18q0 39 -25.5 62.5t-74.5 23.5q-26 0 -48 -9.5t-37.5 -25.5t-24.5 -37h-118q24 91 80.5 136t162.5 45q85 0 141 -48t56 -131q0 -21 -2.5 -45t-5 -36t-9.5 -45.5t-9 -43.5l-43 -199h-116 l12 63q-12 -20 -32.5 -36t-50.5 -26.5t-65 -10.5zM326 813q25 0 48 4.5t48.5 16t44.5 37t26 61.5l4 16q-140 -5 -189 -18q-62 -15 -62 -59q0 -30 22 -44t58 -14z" />
<glyph unicode="&#xab;" horiz-adv-x="833" d="M335 158l-240 262l26 132l355 262l-36 -168l-235 -172l160 -175zM654 158l-241 262l27 132l354 262l-35 -168l-235 -172l160 -175z" />
<glyph unicode="&#xac;" d="M750 139v303h-604v116h720v-419h-116z" />
<glyph unicode="&#xad;" horiz-adv-x="712" d="M611 442h-516l22 116h517z" />
<glyph unicode="&#xae;" horiz-adv-x="1442" d="M114 624q0 131 50.5 249.5t136.5 204.5t204.5 136.5t249.5 50.5t250 -50.5t205 -136.5t136.5 -204.5t50.5 -249.5t-50.5 -250t-136.5 -204.5t-205 -136t-250 -50.5t-249.5 50.5t-204.5 136t-136.5 204.5t-50.5 250zM230 624q0 -108 41 -205.5t111.5 -168t167.5 -112 t205 -41.5t205.5 41.5t168 112t112 168t41.5 205.5t-41.5 205.5t-112 168t-168 112t-205.5 41.5q-86 0 -166.5 -26.5t-145 -75t-113 -113.5t-74.5 -145.5t-26 -166.5zM1066 251h-136l-185 315h-116v-315h-121v745h303q108 0 169.5 -57t61.5 -159q0 -56 -19.5 -99.5t-56 -71 t-89.5 -37.5zM629 875v-191h182q49 0 78 24.5t29 70.5q0 47 -29 71.5t-78 24.5h-182z" />
<glyph unicode="&#xaf;" horiz-adv-x="758" d="M244 1074l23 116h532l-24 -116h-531z" />
<glyph unicode="&#xb0;" horiz-adv-x="736" d="M201 978q0 115 82 196.5t196.5 81.5t196 -81.5t81.5 -196.5t-81.5 -196.5t-196.5 -81.5q-75 0 -139 37.5t-101.5 101.5t-37.5 139zM306 978q0 -73 50.5 -123.5t123 -50.5t122.5 50.5t50 123t-50 124t-123 51.5q-47 0 -87 -23.5t-63 -64t-23 -87.5z" />
<glyph unicode="&#xb1;" d="M866 547h-298v-256h-116v256h-306v116h306v257h116v-257h298v-116zM866 0h-720v116h720v-116z" />
<glyph unicode="&#xb2;" horiz-adv-x="549" d="M98 714l25 109l315 267q41 34 63.5 58.5t34 50t11.5 56.5q0 41 -30.5 63t-67.5 22q-30 0 -52.5 -11.5t-36 -31t-21 -39.5t-11.5 -43h-116q29 234 253 234q88 0 142 -51.5t54 -139.5q0 -66 -32 -123t-102 -116l-231 -196h276l-23 -109h-451z" />
<glyph unicode="&#xb3;" horiz-adv-x="546" d="M340 704q-88 0 -143.5 51t-55.5 139q0 19 2 27h114q-2 -7 -2 -23q0 -42 32 -63.5t70 -21.5q54 0 84.5 32.5t30.5 89.5q0 39 -27 64.5t-66 25.5h-61l22 101h61q61 0 99 37.5t38 91.5q0 41 -30.5 63t-67.5 22q-47 0 -79 -30t-40 -77h-116q10 50 27 87t45.5 67.5t73 46 t103.5 15.5q89 0 143.5 -51.5t54.5 -139.5q0 -56 -33.5 -114t-82.5 -82q23 -19 37.5 -52.5t14.5 -69.5q0 -22 -4 -45.5t-13.5 -51.5t-28 -52t-44.5 -44t-66.5 -31.5t-91.5 -11.5z" />
<glyph unicode="&#xb4;" horiz-adv-x="541" d="M398 1248h192l-211 -231h-119z" />
<glyph unicode="&#xb6;" horiz-adv-x="1008" d="M1025 1248l-298 -1403h-114l274 1289h-195l-275 -1289h-116l146 689h-17q-83 0 -149.5 43.5t-102 115t-35.5 155.5q0 175 122 287.5t316 112.5h444z" />
<glyph unicode="&#xb7;" horiz-adv-x="507" d="M151 424l41 187h187l-41 -187h-187z" />
<glyph unicode="&#xb8;" horiz-adv-x="476" d="M-53 -282l126 282h116l-68 -282h-174z" />
<glyph unicode="&#xb9;" horiz-adv-x="386" d="M238 714l122 569l-164 -120l32 156l164 119h116l-153 -724h-117z" />
<glyph unicode="&#xba;" horiz-adv-x="573" d="M372 813q45 0 76.5 27t41.5 68q32 132 32 159q0 19 -6 34.5t-18.5 27t-31.5 18t-44 6.5q-45 0 -76.5 -27.5t-41.5 -69.5q-33 -132 -33 -156q0 -39 26 -63t75 -24zM358 704q-55 0 -100 21t-72.5 62.5t-27.5 96.5q0 21 3 43.5t6 37.5t10 44t10 44q23 105 79.5 157t170.5 52 q85 0 141 -48t56 -131q0 -21 -2.5 -45t-5 -36t-10 -45.5t-9.5 -43.5q-23 -105 -79.5 -157t-169.5 -52z" />
<glyph unicode="&#xbb;" horiz-adv-x="833" d="M512 814l240 -262l-26 -132l-355 -262l35 168l235 173l-160 174zM192 814l241 -262l-27 -132l-355 -262l36 168l236 173l-161 174z" />
<glyph unicode="&#xbc;" horiz-adv-x="1275" d="M271 524l121 568l-164 -119l32 155l164 120h116l-154 -724h-115zM1017 1248h127l-857 -1248h-127zM927 0l37 177h-318l22 105l412 441h115l-94 -441h77l-24 -105h-74l-38 -177h-115zM823 282h163l49 226z" />
<glyph unicode="&#xbd;" horiz-adv-x="1343" d="M271 524l121 568l-164 -119l32 155l164 120h116l-154 -724h-115zM1017 1248h127l-857 -1248h-127zM693 0l25 109l316 267q60 51 84 85.5t24 78.5q0 42 -30.5 64t-67.5 22q-30 0 -52.5 -11.5t-36 -31.5t-21 -40t-11.5 -43h-116q29 234 254 234q88 0 141.5 -51t53.5 -139 q0 -66 -32 -123t-102 -117l-231 -195h276l-23 -109h-451z" />
<glyph unicode="&#xbe;" horiz-adv-x="1367" d="M337 513q-89 0 -144.5 51.5t-55.5 139.5q0 18 2 27h114q-2 -7 -2 -24q0 -41 32 -63t70 -22q55 0 85.5 32.5t30.5 90.5q0 39 -27 63.5t-66 24.5h-63l24 102h61q61 0 98.5 37.5t37.5 91.5q0 42 -30 63.5t-67 21.5q-32 0 -57.5 -14t-41 -38t-20.5 -55h-117q10 50 27 87.5 t45.5 67.5t73 45.5t104.5 15.5q89 0 143 -51t54 -140q0 -56 -33.5 -114t-82.5 -82q16 -13 27.5 -32t18.5 -42.5t7 -46.5t-4 -46t-13.5 -51.5t-28 -52t-44.5 -43.5t-67 -32t-91 -12zM1108 1248h127l-857 -1248h-127zM1017 0l37 177h-316l21 105l412 441h116l-95 -441h76 l-22 -105h-75l-37 -177h-117zM914 282h162l50 226z" />
<glyph unicode="&#xbf;" horiz-adv-x="862" d="M636 920l-39 -187h-187l39 187h187zM581 29h133q-40 -197 -142 -285.5t-271 -88.5q-77 0 -138.5 26t-97 69t-54 93.5t-18.5 103.5q0 57 17 111t45 96t56.5 73t59.5 55l128 97q44 34 63 61t29 66l7 39h133l-7 -39q-16 -72 -50 -121t-100 -100l-126 -98 q-127 -101 -127 -221q0 -85 52.5 -135t147.5 -50q103 0 172.5 69t87.5 179z" />
<glyph unicode="&#xc0;" horiz-adv-x="1008" d="M757 0l-38 353h-459l-187 -353h-144l664 1248h157l136 -1248h-129zM706 476l-65 593l-315 -593h380zM469 1522h183l123 -194h-119z" />
<glyph unicode="&#xc1;" horiz-adv-x="1008" d="M757 0l-38 353h-459l-187 -353h-144l664 1248h157l136 -1248h-129zM706 476l-65 593l-315 -593h380zM733 1522h195l-228 -194h-132z" />
<glyph unicode="&#xc2;" horiz-adv-x="1008" d="M757 0l-38 353h-459l-187 -353h-144l664 1248h157l136 -1248h-129zM706 476l-65 593l-315 -593h380zM802 1328l-86 90l-124 -90h-186l264 194h117l182 -194h-167z" />
<glyph unicode="&#xc3;" horiz-adv-x="1008" d="M757 0l-38 353h-459l-187 -353h-144l664 1248h157l136 -1248h-129zM706 476l-65 593l-315 -593h380zM609 1518q52 0 98 -25l53 -29q28 -14 47 -14q24 0 42.5 16.5t27.5 48.5h116q-17 -80 -67.5 -131t-116.5 -51q-52 0 -98 25l-53 28q-30 15 -47 15q-24 0 -42 -16.5 t-27 -48.5h-117q17 80 67.5 131t116.5 51z" />
<glyph unicode="&#xc4;" horiz-adv-x="1008" d="M757 0l-38 353h-459l-187 -353h-144l664 1248h157l136 -1248h-129zM706 476l-65 593l-315 -593h380zM973 1511l-38 -173h-136l37 173h137zM622 1511l-37 -173h-138l38 173h137z" />
<glyph unicode="&#xc5;" horiz-adv-x="1008" d="M757 0l-38 353h-459l-187 -353h-144l664 1248h157l136 -1248h-129zM706 476l-65 593l-315 -593h380zM576 1423q0 36 17.5 67t47.5 49t66 18q55 0 94.5 -39.5t39.5 -94.5q0 -54 -39.5 -92.5t-94.5 -38.5q-54 0 -92.5 38.5t-38.5 92.5zM661 1423q0 -19 13.5 -32.5 t32.5 -13.5t32.5 13.5t13.5 32.5t-13.5 33t-32.5 14q-12 0 -22.5 -6.5t-17 -17t-6.5 -23.5z" />
<glyph unicode="&#xc6;" horiz-adv-x="1494" d="M388 476h287l132 622zM1283 0h-710l75 353h-342l-236 -353h-154l837 1248h796l-29 -133h-572l-89 -418h572l-29 -132h-570l-92 -433h571z" />
<glyph unicode="&#xc7;" horiz-adv-x="998" d="M250 -282l112 270q-124 16 -201 95.5t-77 217.5q0 16 0.5 26.5t1 22.5t4.5 31.5t8 40t13.5 62t18.5 84t26 119.5t35 156q47 212 159.5 317t314.5 105q70 0 131 -19.5t109 -57.5t75.5 -100.5t27.5 -141.5q0 -40 -3 -67h-139q5 32 5 56q0 64 -25 108.5t-75.5 67.5 t-125.5 23q-122 0 -203.5 -75t-113.5 -216q-107 -480 -107 -532q0 -96 57 -146.5t169 -50.5q114 0 193 65.5t115 189.5h138q-46 -177 -142.5 -272.5t-258.5 -110.5l-64 -268h-178z" />
<glyph unicode="&#xc8;" horiz-adv-x="965" d="M303 565l-92 -433h571l-29 -132h-709l266 1248h709l-28 -133h-573l-88 -418h571l-28 -132h-570zM461 1522h184l123 -194h-120z" />
<glyph unicode="&#xc9;" horiz-adv-x="965" d="M303 565l-92 -433h571l-29 -132h-709l266 1248h709l-28 -133h-573l-88 -418h571l-28 -132h-570zM726 1522h195l-228 -194h-132z" />
<glyph unicode="&#xca;" horiz-adv-x="965" d="M303 565l-92 -433h571l-29 -132h-709l266 1248h709l-28 -133h-573l-88 -418h571l-28 -132h-570zM794 1328l-85 90l-124 -90h-186l264 194h117l182 -194h-168z" />
<glyph unicode="&#xcb;" horiz-adv-x="965" d="M303 565l-92 -433h571l-29 -132h-709l266 1248h709l-28 -133h-573l-88 -418h571l-28 -132h-570zM966 1511l-38 -173h-137l37 173h138zM615 1511l-37 -173h-138l38 173h137z" />
<glyph unicode="&#xcc;" horiz-adv-x="421" d="M44 0l266 1248h137l-265 -1248h-138zM175 1522h183l123 -194h-119z" />
<glyph unicode="&#xcd;" horiz-adv-x="421" d="M44 0l266 1248h137l-265 -1248h-138zM440 1522h196l-228 -194h-132z" />
<glyph unicode="&#xce;" horiz-adv-x="421" d="M44 0l266 1248h137l-265 -1248h-138zM508 1328l-86 90l-124 -90h-186l264 194h117l182 -194h-167z" />
<glyph unicode="&#xcf;" horiz-adv-x="421" d="M44 0l266 1248h137l-265 -1248h-138zM679 1511l-38 -173h-136l37 173h137zM328 1511l-37 -173h-138l38 173h137z" />
<glyph unicode="&#xd0;" horiz-adv-x="1068" d="M483 0h-419l123 576h-124l19 97h125l123 575h383q55 0 105.5 -12t94 -37.5t75.5 -62.5t50 -90.5t18 -117.5q0 -34 -10.5 -97t-22 -116t-34 -150t-32.5 -143q-47 -212 -160 -317t-314 -105zM230 132h273q48 0 90.5 12t78.5 36t64.5 58.5t49.5 81t34 102.5q57 257 78.5 361 t21.5 135q0 64 -25 108t-75.5 66.5t-126.5 22.5h-255l-94 -442h265l-19 -97h-265z" />
<glyph unicode="&#xd1;" horiz-adv-x="1090" d="M1115 1248l-265 -1248h-137l-317 1007l-214 -1007h-138l266 1248h137l318 -1008l213 1008h137zM652 1518q52 0 98 -25l54 -29q28 -14 46 -14q23 0 42 16.5t28 48.5h115q-16 -80 -66.5 -131t-116.5 -51q-52 0 -99 25l-53 28q-29 15 -46 15q-23 0 -41.5 -16.5t-27.5 -48.5 h-116q16 80 67 131t116 51z" />
<glyph unicode="&#xd2;" horiz-adv-x="1018" d="M901 405q-47 -212 -159.5 -317t-313.5 -105q-56 0 -106.5 11.5t-94 37t-75.5 62.5t-50 90t-18 117q0 16 0.5 26.5t1 22.5t4.5 31.5t8 40t13.5 62t18.5 84t26 119.5t35 156q47 212 159.5 317t314.5 105q70 0 131 -19.5t109 -57.5t75.5 -100.5t27.5 -141.5v-22t-0.5 -18 t-2.5 -21.5t-4 -24.5t-7 -35.5t-9.5 -45t-13.5 -63t-18 -79.5t-23.5 -104.5t-28.5 -127.5zM221 311q0 -96 57 -146.5t169 -50.5q122 0 204 74.5t114 216.5q106 476 106 530q0 64 -25 108.5t-75.5 67.5t-125.5 23q-122 0 -203.5 -75t-113.5 -216q-107 -480 -107 -532z M472 1522h184l123 -194h-120z" />
<glyph unicode="&#xd3;" horiz-adv-x="1018" d="M901 405q-47 -212 -159.5 -317t-313.5 -105q-56 0 -106.5 11.5t-94 37t-75.5 62.5t-50 90t-18 117q0 16 0.5 26.5t1 22.5t4.5 31.5t8 40t13.5 62t18.5 84t26 119.5t35 156q47 212 159.5 317t314.5 105q70 0 131 -19.5t109 -57.5t75.5 -100.5t27.5 -141.5v-22t-0.5 -18 t-2.5 -21.5t-4 -24.5t-7 -35.5t-9.5 -45t-13.5 -63t-18 -79.5t-23.5 -104.5t-28.5 -127.5zM221 311q0 -96 57 -146.5t169 -50.5q122 0 204 74.5t114 216.5q106 476 106 530q0 64 -25 108.5t-75.5 67.5t-125.5 23q-122 0 -203.5 -75t-113.5 -216q-107 -480 -107 -532z M738 1522h196l-228 -194h-133z" />
<glyph unicode="&#xd4;" horiz-adv-x="1018" d="M901 405q-47 -212 -159.5 -317t-313.5 -105q-56 0 -106.5 11.5t-94 37t-75.5 62.5t-50 90t-18 117q0 16 0.5 26.5t1 22.5t4.5 31.5t8 40t13.5 62t18.5 84t26 119.5t35 156q47 212 159.5 317t314.5 105q70 0 131 -19.5t109 -57.5t75.5 -100.5t27.5 -141.5v-22t-0.5 -18 t-2.5 -21.5t-4 -24.5t-7 -35.5t-9.5 -45t-13.5 -63t-18 -79.5t-23.5 -104.5t-28.5 -127.5zM221 311q0 -96 57 -146.5t169 -50.5q122 0 204 74.5t114 216.5q106 476 106 530q0 64 -25 108.5t-75.5 67.5t-125.5 23q-122 0 -203.5 -75t-113.5 -216q-107 -480 -107 -532z M809 1328l-86 90l-124 -90h-186l264 194h117l182 -194h-167z" />
<glyph unicode="&#xd5;" horiz-adv-x="1018" d="M901 405q-47 -212 -159.5 -317t-313.5 -105q-56 0 -106.5 11.5t-94 37t-75.5 62.5t-50 90t-18 117q0 16 0.5 26.5t1 22.5t4.5 31.5t8 40t13.5 62t18.5 84t26 119.5t35 156q47 212 159.5 317t314.5 105q70 0 131 -19.5t109 -57.5t75.5 -100.5t27.5 -141.5v-22t-0.5 -18 t-2.5 -21.5t-4 -24.5t-7 -35.5t-9.5 -45t-13.5 -63t-18 -79.5t-23.5 -104.5t-28.5 -127.5zM221 311q0 -96 57 -146.5t169 -50.5q122 0 204 74.5t114 216.5q106 476 106 530q0 64 -25 108.5t-75.5 67.5t-125.5 23q-122 0 -203.5 -75t-113.5 -216q-107 -480 -107 -532z M615 1518q51 0 98 -25l53 -29q28 -14 47 -14q23 0 41.5 16.5t27.5 48.5h116q-17 -80 -67.5 -131t-116.5 -51q-52 0 -98 25l-53 28q-30 15 -46 15q-24 0 -42.5 -16.5t-27.5 -48.5h-115q8 40 25 73.5t41 57.5t54 37.5t63 13.5z" />
<glyph unicode="&#xd6;" horiz-adv-x="1018" d="M901 405q-47 -212 -159.5 -317t-313.5 -105q-56 0 -106.5 11.5t-94 37t-75.5 62.5t-50 90t-18 117q0 16 0.5 26.5t1 22.5t4.5 31.5t8 40t13.5 62t18.5 84t26 119.5t35 156q47 212 159.5 317t314.5 105q70 0 131 -19.5t109 -57.5t75.5 -100.5t27.5 -141.5v-22t-0.5 -18 t-2.5 -21.5t-4 -24.5t-7 -35.5t-9.5 -45t-13.5 -63t-18 -79.5t-23.5 -104.5t-28.5 -127.5zM221 311q0 -96 57 -146.5t169 -50.5q122 0 204 74.5t114 216.5q106 476 106 530q0 64 -25 108.5t-75.5 67.5t-125.5 23q-122 0 -203.5 -75t-113.5 -216q-107 -480 -107 -532z M978 1511l-38 -173h-136l37 173h137zM627 1511l-37 -173h-138l38 173h137z" />
<glyph unicode="&#xd7;" d="M134 211l288 288l-290 292l82 82l291 -292l291 292l83 -82l-293 -292l291 -288l-83 -83l-289 289l-289 -289z" />
<glyph unicode="&#xd8;" horiz-adv-x="1029" d="M907 405q-48 -212 -160 -317t-314 -105q-159 0 -249 85l-86 -111l-84 55l107 138q-32 63 -32 151q0 16 0.5 26.5t1.5 22.5t4.5 31.5t7.5 40t13.5 62t19 84t26.5 119.5t34 156q47 212 159.5 317t314.5 105q150 0 248 -84l83 109l84 -57l-105 -135q34 -64 34 -152 q0 -46 -7.5 -86t-48.5 -224q-30 -136 -51 -231zM877 935q0 19 -2 27l-606 -784q56 -64 183 -64q122 0 204 74.5t114 216.5q107 480 107 530zM226 311v-24l606 784q-58 63 -181 63q-122 0 -204 -75t-114 -216q-107 -480 -107 -532z" />
<glyph unicode="&#xd9;" horiz-adv-x="1057" d="M238 311q0 -96 57.5 -146.5t169.5 -50.5q122 0 204.5 75t112.5 216l185 843h138l-185 -843q-47 -212 -160 -317t-315 -105q-70 0 -131 19t-109 57t-75.5 100t-27.5 142q0 22 9.5 77.5t30.5 156.5t41 191t55.5 252t59.5 270h137q-197 -883 -197 -937zM497 1522h183 l124 -194h-120z" />
<glyph unicode="&#xda;" horiz-adv-x="1057" d="M238 311q0 -96 57.5 -146.5t169.5 -50.5q122 0 204.5 75t112.5 216l185 843h138l-185 -843q-47 -212 -160 -317t-315 -105q-70 0 -131 19t-109 57t-75.5 100t-27.5 142q0 22 9.5 77.5t30.5 156.5t41 191t55.5 252t59.5 270h137q-197 -883 -197 -937zM760 1522h197 l-228 -194h-132z" />
<glyph unicode="&#xdb;" horiz-adv-x="1057" d="M238 311q0 -96 57.5 -146.5t169.5 -50.5q122 0 204.5 75t112.5 216l185 843h138l-185 -843q-47 -212 -160 -317t-315 -105q-70 0 -131 19t-109 57t-75.5 100t-27.5 142q0 22 9.5 77.5t30.5 156.5t41 191t55.5 252t59.5 270h137q-197 -883 -197 -937zM830 1328l-85 90 l-125 -90h-185l264 194h117l182 -194h-168z" />
<glyph unicode="&#xdc;" horiz-adv-x="1057" d="M238 311q0 -96 57.5 -146.5t169.5 -50.5q122 0 204.5 75t112.5 216l185 843h138l-185 -843q-47 -212 -160 -317t-315 -105q-70 0 -131 19t-109 57t-75.5 100t-27.5 142q0 22 9.5 77.5t30.5 156.5t41 191t55.5 252t59.5 270h137q-197 -883 -197 -937zM1000 1511l-38 -173 h-137l37 173h138zM648 1511l-37 -173h-137l38 173h136z" />
<glyph unicode="&#xdd;" horiz-adv-x="970" d="M561 495l-105 -495h-137l105 497l-251 751h133l206 -617l468 617h154zM714 1522h197l-229 -194h-131z" />
<glyph unicode="&#xde;" horiz-adv-x="981" d="M991 666q0 -89 -31 -165.5t-89.5 -134.5t-149 -90.5t-202.5 -32.5h-286l-51 -243h-138l266 1248h137l-51 -245h265q98 0 174 -47t116 -123.5t40 -166.5zM540 374q132 0 221 80t89 202q0 41 -10.5 77t-34 68t-68 51t-105.5 19h-265l-105 -497h278z" />
<glyph unicode="&#xdf;" horiz-adv-x="938" d="M311 -9l29 133q42 -15 105 -15q117 0 189 81.5t72 200.5q0 41 -11.5 78.5t-35 69.5t-64.5 51t-95 19h-56l27 127h37q105 3 168.5 77.5t63.5 186.5q0 45 -18 76.5t-50.5 47t-78.5 15.5q-87 0 -145 -51.5t-79 -152.5l-199 -935h-134l199 935q20 93 53.5 157.5t82.5 102 t109.5 54t139.5 16.5q113 0 184 -69t71 -182q0 -110 -41 -198t-120 -141q60 -44 93.5 -113.5t33.5 -156.5q0 -93 -25 -169t-76 -133t-132.5 -88.5t-189.5 -31.5q-62 0 -107 8z" />
<glyph unicode="&#xe0;" horiz-adv-x="961" d="M542 818q-106 0 -177.5 -59.5t-95.5 -172.5q-4 -16 -10.5 -46t-11.5 -52.5t-11 -52t-10.5 -53t-8.5 -47t-6 -42t-2 -29.5q0 -52 28 -88t69.5 -51.5t91.5 -15.5q106 0 177 59t95 172q4 18 10 47t11.5 52t11.5 52t10.5 53t9 47t6.5 41.5t2 30.5q0 39 -16 69.5t-43 48.5 t-60 27.5t-70 9.5zM597 0l22 98q-22 -32 -56 -57t-85 -41.5t-109 -16.5q-55 0 -107.5 17.5t-94.5 49.5t-68 83t-26 111q0 19 4 47.5t11.5 68t14 70.5t17.5 81.5t16 73.5q39 190 142.5 274.5t266.5 84.5q53 0 97.5 -16.5t76.5 -46t51 -68.5l23 107h134l-196 -920h-134z M396 1248h180l89 -231h-107z" />
<glyph unicode="&#xe1;" horiz-adv-x="961" d="M542 818q-106 0 -177.5 -59.5t-95.5 -172.5q-4 -16 -10.5 -46t-11.5 -52.5t-11 -52t-10.5 -53t-8.5 -47t-6 -42t-2 -29.5q0 -52 28 -88t69.5 -51.5t91.5 -15.5q106 0 177 59t95 172q4 18 10 47t11.5 52t11.5 52t10.5 53t9 47t6.5 41.5t2 30.5q0 39 -16 69.5t-43 48.5 t-60 27.5t-70 9.5zM597 0l22 98q-22 -32 -56 -57t-85 -41.5t-109 -16.5q-55 0 -107.5 17.5t-94.5 49.5t-68 83t-26 111q0 19 4 47.5t11.5 68t14 70.5t17.5 81.5t16 73.5q39 190 142.5 274.5t266.5 84.5q53 0 97.5 -16.5t76.5 -46t51 -68.5l23 107h134l-196 -920h-134z M617 1248h192l-210 -231h-120z" />
<glyph unicode="&#xe2;" horiz-adv-x="961" d="M542 818q-106 0 -177.5 -59.5t-95.5 -172.5q-4 -16 -10.5 -46t-11.5 -52.5t-11 -52t-10.5 -53t-8.5 -47t-6 -42t-2 -29.5q0 -52 28 -88t69.5 -51.5t91.5 -15.5q106 0 177 59t95 172q4 18 10 47t11.5 52t11.5 52t10.5 53t9 47t6.5 41.5t2 30.5q0 39 -16 69.5t-43 48.5 t-60 27.5t-70 9.5zM597 0l22 98q-22 -32 -56 -57t-85 -41.5t-109 -16.5q-55 0 -107.5 17.5t-94.5 49.5t-68 83t-26 111q0 19 4 47.5t11.5 68t14 70.5t17.5 81.5t16 73.5q39 190 142.5 274.5t266.5 84.5q53 0 97.5 -16.5t76.5 -46t51 -68.5l23 107h134l-196 -920h-134z M695 1248l174 -231h-150l-95 127l-150 -127h-168l272 231h117z" />
<glyph unicode="&#xe3;" horiz-adv-x="961" d="M542 818q-106 0 -177.5 -59.5t-95.5 -172.5q-4 -16 -10.5 -46t-11.5 -52.5t-11 -52t-10.5 -53t-8.5 -47t-6 -42t-2 -29.5q0 -52 28 -88t69.5 -51.5t91.5 -15.5q106 0 177 59t95 172q4 18 10 47t11.5 52t11.5 52t10.5 53t9 47t6.5 41.5t2 30.5q0 39 -16 69.5t-43 48.5 t-60 27.5t-70 9.5zM597 0l22 98q-22 -32 -56 -57t-85 -41.5t-109 -16.5q-55 0 -107.5 17.5t-94.5 49.5t-68 83t-26 111q0 19 4 47.5t11.5 68t14 70.5t17.5 81.5t16 73.5q39 190 142.5 274.5t266.5 84.5q53 0 97.5 -16.5t76.5 -46t51 -68.5l23 107h134l-196 -920h-134z M432 1044h-104q16 80 67 131t117 51q51 0 97 -25l54 -30q26 -17 55 -17q15 0 30 9t27 24.5t16 34.5h103q-16 -80 -66.5 -130.5t-116.5 -50.5q-51 0 -98 25l-54 30q-25 16 -54 16q-24 0 -45.5 -19.5t-27.5 -48.5z" />
<glyph unicode="&#xe4;" horiz-adv-x="961" d="M542 818q-106 0 -177.5 -59.5t-95.5 -172.5q-4 -16 -10.5 -46t-11.5 -52.5t-11 -52t-10.5 -53t-8.5 -47t-6 -42t-2 -29.5q0 -52 28 -88t69.5 -51.5t91.5 -15.5q106 0 177 59t95 172q4 18 10 47t11.5 52t11.5 52t10.5 53t9 47t6.5 41.5t2 30.5q0 39 -16 69.5t-43 48.5 t-60 27.5t-70 9.5zM597 0l22 98q-22 -32 -56 -57t-85 -41.5t-109 -16.5q-55 0 -107.5 17.5t-94.5 49.5t-68 83t-26 111q0 19 4 47.5t11.5 68t14 70.5t17.5 81.5t16 73.5q39 190 142.5 274.5t266.5 84.5q53 0 97.5 -16.5t76.5 -46t51 -68.5l23 107h134l-196 -920h-134z M520 1219l-37 -173h-134l37 173h134zM875 1219l-37 -173h-134l37 173h134z" />
<glyph unicode="&#xe5;" horiz-adv-x="961" d="M542 818q-106 0 -177.5 -59.5t-95.5 -172.5q-4 -16 -10.5 -46t-11.5 -52.5t-11 -52t-10.5 -53t-8.5 -47t-6 -42t-2 -29.5q0 -52 28 -88t69.5 -51.5t91.5 -15.5q106 0 177 59t95 172q4 18 10 47t11.5 52t11.5 52t10.5 53t9 47t6.5 41.5t2 30.5q0 39 -16 69.5t-43 48.5 t-60 27.5t-70 9.5zM597 0l22 98q-22 -32 -56 -57t-85 -41.5t-109 -16.5q-55 0 -107.5 17.5t-94.5 49.5t-68 83t-26 111q0 19 4 47.5t11.5 68t14 70.5t17.5 81.5t16 73.5q39 190 142.5 274.5t266.5 84.5q53 0 97.5 -16.5t76.5 -46t51 -68.5l23 107h134l-196 -920h-134z M561 1131q0 -10 4 -19t10.5 -16t16 -11t19.5 -4q20 0 35 15t15 35t-15 35t-35 15q-13 0 -24.5 -6.5t-18.5 -18.5t-7 -25zM479 1131q0 27 10.5 51.5t28 43t42 29t51.5 10.5t51.5 -11t42.5 -29t29 -42.5t11 -51.5q0 -55 -39.5 -93t-94.5 -38t-93.5 38t-38.5 93z" />
<glyph unicode="&#xe6;" horiz-adv-x="1503" d="M957 -17q-59 0 -115 17t-103.5 53.5t-68.5 85.5q-117 -156 -330 -156q-69 0 -126 20.5t-93.5 55t-56.5 78.5t-20 91q0 120 54 186t184 105q52 15 130.5 26t134.5 15t160 10q12 68 12 93q0 39 -15.5 69.5t-43 48.5t-60.5 27.5t-69 9.5q-93 0 -160 -46t-99 -134h-135 q46 162 147 234t263 72q59 0 111.5 -16t93.5 -47t64 -74q46 70 130 103.5t188 33.5q60 0 115.5 -17.5t98.5 -50t68.5 -83t25.5 -111.5q0 -56 -43 -252h-588q-27 -135 -27 -166q0 -40 16 -70.5t43 -48.5t60 -27t70 -9q93 0 159.5 45.5t98.5 134.5h136q-46 -163 -147 -234.5 t-263 -71.5zM659 340l23 109q-84 -4 -135 -8t-100 -10.5t-85 -16t-73 -23.5q-55 -23 -82 -57.5t-27 -93.5q0 -58 48.5 -94.5t140.5 -36.5q110 0 188.5 59t101.5 172zM838 551h452q16 83 16 112q0 32 -10.5 58t-28.5 43.5t-42.5 30t-51.5 18t-56 5.5q-64 0 -118.5 -23.5 t-90.5 -67.5q-50 -60 -70 -176z" />
<glyph unicode="&#xe7;" horiz-adv-x="916" d="M207 -282l119 268q-108 14 -180.5 82.5t-72.5 175.5q0 19 4 47.5t11.5 68t14 70.5t17.5 81.5t16 73.5q40 192 143.5 275.5t278.5 83.5q81 0 150.5 -29.5t113.5 -90.5t44 -142q0 -20 -6 -53h-133q4 28 4 34q0 39 -16 69.5t-43 48.5t-60 27.5t-70 9.5q-106 0 -177.5 -59.5 t-95.5 -172.5q-4 -16 -10.5 -46t-11.5 -52.5t-11 -52t-10.5 -53t-8.5 -47t-6 -42t-2 -29.5q0 -52 28 -88t69.5 -51.5t91.5 -15.5q94 0 162.5 48t98.5 141h134q-43 -152 -128 -226t-220 -86l-64 -268h-174z" />
<glyph unicode="&#xe8;" horiz-adv-x="928" d="M823 430h-588q-26 -131 -26 -166q0 -52 28 -88t69.5 -51.5t91.5 -15.5q61 0 111.5 20t88 60.5t58.5 99.5h135q-31 -110 -88.5 -178.5t-136 -98t-185.5 -29.5q-82 0 -151 29.5t-113 90.5t-44 141q0 19 4 47.5t11.5 68t14 70.5t17.5 81.5t16 73.5q40 192 143.5 275.5 t278.5 83.5q81 0 150.5 -29.5t113.5 -90.5t44 -142q0 -56 -43 -252zM714 551q17 91 17 112q0 39 -16 69.5t-43 48.5t-60 27.5t-70 9.5q-78 0 -137.5 -32.5t-95 -92t-47.5 -142.5h452zM398 1248h180l88 -231h-107z" />
<glyph unicode="&#xe9;" horiz-adv-x="928" d="M823 430h-588q-26 -131 -26 -166q0 -52 28 -88t69.5 -51.5t91.5 -15.5q61 0 111.5 20t88 60.5t58.5 99.5h135q-31 -110 -88.5 -178.5t-136 -98t-185.5 -29.5q-82 0 -151 29.5t-113 90.5t-44 141q0 19 4 47.5t11.5 68t14 70.5t17.5 81.5t16 73.5q40 192 143.5 275.5 t278.5 83.5q81 0 150.5 -29.5t113.5 -90.5t44 -142q0 -56 -43 -252zM714 551q17 91 17 112q0 39 -16 69.5t-43 48.5t-60 27.5t-70 9.5q-78 0 -137.5 -32.5t-95 -92t-47.5 -142.5h452zM615 1248h192l-210 -231h-119z" />
<glyph unicode="&#xea;" horiz-adv-x="928" d="M823 430h-588q-26 -131 -26 -166q0 -52 28 -88t69.5 -51.5t91.5 -15.5q61 0 111.5 20t88 60.5t58.5 99.5h135q-31 -110 -88.5 -178.5t-136 -98t-185.5 -29.5q-82 0 -151 29.5t-113 90.5t-44 141q0 19 4 47.5t11.5 68t14 70.5t17.5 81.5t16 73.5q40 192 143.5 275.5 t278.5 83.5q81 0 150.5 -29.5t113.5 -90.5t44 -142q0 -56 -43 -252zM714 551q17 91 17 112q0 39 -16 69.5t-43 48.5t-60 27.5t-70 9.5q-78 0 -137.5 -32.5t-95 -92t-47.5 -142.5h452zM695 1248l174 -231h-150l-95 127l-150 -127h-168l272 231h117z" />
<glyph unicode="&#xeb;" horiz-adv-x="928" d="M823 430h-588q-26 -131 -26 -166q0 -52 28 -88t69.5 -51.5t91.5 -15.5q61 0 111.5 20t88 60.5t58.5 99.5h135q-31 -110 -88.5 -178.5t-136 -98t-185.5 -29.5q-82 0 -151 29.5t-113 90.5t-44 141q0 19 4 47.5t11.5 68t14 70.5t17.5 81.5t16 73.5q40 192 143.5 275.5 t278.5 83.5q81 0 150.5 -29.5t113.5 -90.5t44 -142q0 -56 -43 -252zM714 551q17 91 17 112q0 39 -16 69.5t-43 48.5t-60 27.5t-70 9.5q-78 0 -137.5 -32.5t-95 -92t-47.5 -142.5h452zM520 1219l-37 -173h-134l37 173h134zM875 1219l-37 -173h-134l37 173h134z" />
<glyph unicode="&#xec;" horiz-adv-x="400" d="M365 920l-194 -920h-134l194 920h134zM126 1248h180l90 -231h-107z" />
<glyph unicode="&#xed;" horiz-adv-x="400" d="M365 920l-194 -920h-134l194 920h134zM344 1248h192l-210 -231h-119z" />
<glyph unicode="&#xee;" horiz-adv-x="400" d="M365 920l-194 -920h-134l194 920h134zM425 1248l175 -231h-149l-96 127l-150 -127h-168l271 231h117z" />
<glyph unicode="&#xef;" horiz-adv-x="400" d="M365 920l-194 -920h-134l194 920h134zM251 1219l-37 -173h-134l37 173h134zM606 1219l-38 -173h-133l37 173h134z" />
<glyph unicode="&#xf0;" horiz-adv-x="938" d="M804 342q-40 -192 -144 -275.5t-279 -83.5q-82 0 -151 29.5t-113 90.5t-44 141q0 19 4 47.5t11.5 68t14 70.5t17.5 81.5t16 73.5q40 192 143.5 275.5t278.5 83.5q40 0 64 -7l-57 109h-230l20 95h160l-56 107h147l55 -107h165l-19 -95h-96l112 -216q11 -19 20.5 -42.5 t16 -52t6.5 -53.5q0 -18 -3.5 -46t-11.5 -70t-13.5 -69t-18 -82.5t-15.5 -72.5zM398 109q106 0 177 59t95 172q4 18 10 47t11.5 52t11.5 52t10.5 53t9 47t6.5 41.5t2 30.5q0 39 -16 69.5t-43 48.5t-60 27.5t-70 9.5q-106 0 -177.5 -59.5t-95.5 -172.5q-4 -16 -10.5 -46 t-11.5 -52.5t-11 -52t-10.5 -53t-8.5 -47t-6 -42t-2 -29.5q0 -52 28 -88t69.5 -51.5t91.5 -15.5z" />
<glyph unicode="&#xf1;" horiz-adv-x="974" d="M595 944q55 0 107.5 -17.5t94.5 -50t68 -83t26 -111.5q0 -18 -4 -46.5t-11.5 -68.5t-14 -70.5t-17.5 -81.5t-16 -73l-73 -342h-133l73 340q60 260 60 323q0 39 -16 69.5t-43 48.5t-60 27.5t-70 9.5q-106 0 -177 -59t-95 -173l-124 -586h-134l195 920h134l-20 -92 q16 24 40 44t55 36.5t71 26t84 9.5zM458 1044h-103q16 80 66.5 131t116.5 51q52 0 98 -25l54 -30q26 -17 55 -17q15 0 30 9t27 24.5t16 34.5h103q-8 -39 -25 -72.5t-41 -57.5t-54.5 -37.5t-62.5 -13.5q-52 0 -99 25l-53 30q-25 16 -55 16q-15 0 -30.5 -8.5t-27 -24.5 t-15.5 -35z" />
<glyph unicode="&#xf2;" horiz-adv-x="938" d="M804 342q-40 -192 -144 -275.5t-279 -83.5q-82 0 -151 29.5t-113 90.5t-44 141q0 19 4 47.5t11.5 68t14 70.5t17.5 81.5t16 73.5q40 192 143.5 275.5t278.5 83.5q81 0 150.5 -29.5t113.5 -90.5t44 -142q0 -18 -3.5 -46t-11.5 -70t-13.5 -69t-18 -82.5t-15.5 -72.5z M398 109q106 0 177 59t95 172q4 18 10 47t11.5 52t11.5 52t10.5 53t9 47t6.5 41.5t2 30.5q0 39 -16 69.5t-43 48.5t-60 27.5t-70 9.5q-106 0 -177.5 -59.5t-95.5 -172.5q-4 -16 -10.5 -46t-11.5 -52.5t-11 -52t-10.5 -53t-8.5 -47t-6 -42t-2 -29.5q0 -52 28 -88t69.5 -51.5 t91.5 -15.5zM398 1248h180l88 -231h-107z" />
<glyph unicode="&#xf3;" horiz-adv-x="938" d="M804 342q-40 -192 -144 -275.5t-279 -83.5q-82 0 -151 29.5t-113 90.5t-44 141q0 19 4 47.5t11.5 68t14 70.5t17.5 81.5t16 73.5q40 192 143.5 275.5t278.5 83.5q81 0 150.5 -29.5t113.5 -90.5t44 -142q0 -18 -3.5 -46t-11.5 -70t-13.5 -69t-18 -82.5t-15.5 -72.5z M398 109q106 0 177 59t95 172q4 18 10 47t11.5 52t11.5 52t10.5 53t9 47t6.5 41.5t2 30.5q0 39 -16 69.5t-43 48.5t-60 27.5t-70 9.5q-106 0 -177.5 -59.5t-95.5 -172.5q-4 -16 -10.5 -46t-11.5 -52.5t-11 -52t-10.5 -53t-8.5 -47t-6 -42t-2 -29.5q0 -52 28 -88t69.5 -51.5 t91.5 -15.5zM615 1248h192l-210 -231h-119z" />
<glyph unicode="&#xf4;" horiz-adv-x="938" d="M804 342q-40 -192 -144 -275.5t-279 -83.5q-82 0 -151 29.5t-113 90.5t-44 141q0 19 4 47.5t11.5 68t14 70.5t17.5 81.5t16 73.5q40 192 143.5 275.5t278.5 83.5q81 0 150.5 -29.5t113.5 -90.5t44 -142q0 -18 -3.5 -46t-11.5 -70t-13.5 -69t-18 -82.5t-15.5 -72.5z M398 109q106 0 177 59t95 172q4 18 10 47t11.5 52t11.5 52t10.5 53t9 47t6.5 41.5t2 30.5q0 39 -16 69.5t-43 48.5t-60 27.5t-70 9.5q-106 0 -177.5 -59.5t-95.5 -172.5q-4 -16 -10.5 -46t-11.5 -52.5t-11 -52t-10.5 -53t-8.5 -47t-6 -42t-2 -29.5q0 -52 28 -88t69.5 -51.5 t91.5 -15.5zM695 1248l174 -231h-150l-95 127l-150 -127h-168l272 231h117z" />
<glyph unicode="&#xf5;" horiz-adv-x="938" d="M804 342q-40 -192 -144 -275.5t-279 -83.5q-82 0 -151 29.5t-113 90.5t-44 141q0 19 4 47.5t11.5 68t14 70.5t17.5 81.5t16 73.5q40 192 143.5 275.5t278.5 83.5q81 0 150.5 -29.5t113.5 -90.5t44 -142q0 -18 -3.5 -46t-11.5 -70t-13.5 -69t-18 -82.5t-15.5 -72.5z M398 109q106 0 177 59t95 172q4 18 10 47t11.5 52t11.5 52t10.5 53t9 47t6.5 41.5t2 30.5q0 39 -16 69.5t-43 48.5t-60 27.5t-70 9.5q-106 0 -177.5 -59.5t-95.5 -172.5q-4 -16 -10.5 -46t-11.5 -52.5t-11 -52t-10.5 -53t-8.5 -47t-6 -42t-2 -29.5q0 -52 28 -88t69.5 -51.5 t91.5 -15.5zM432 1044h-104q16 80 67 131t117 51q51 0 97 -25l54 -30q26 -17 55 -17q15 0 30 9t27 24.5t16 34.5h103q-16 -80 -66.5 -130.5t-116.5 -50.5q-51 0 -98 25l-54 30q-25 16 -54 16q-24 0 -45.5 -19.5t-27.5 -48.5z" />
<glyph unicode="&#xf6;" horiz-adv-x="938" d="M804 342q-40 -192 -144 -275.5t-279 -83.5q-82 0 -151 29.5t-113 90.5t-44 141q0 19 4 47.5t11.5 68t14 70.5t17.5 81.5t16 73.5q40 192 143.5 275.5t278.5 83.5q81 0 150.5 -29.5t113.5 -90.5t44 -142q0 -18 -3.5 -46t-11.5 -70t-13.5 -69t-18 -82.5t-15.5 -72.5z M398 109q106 0 177 59t95 172q4 18 10 47t11.5 52t11.5 52t10.5 53t9 47t6.5 41.5t2 30.5q0 39 -16 69.5t-43 48.5t-60 27.5t-70 9.5q-106 0 -177.5 -59.5t-95.5 -172.5q-4 -16 -10.5 -46t-11.5 -52.5t-11 -52t-10.5 -53t-8.5 -47t-6 -42t-2 -29.5q0 -52 28 -88t69.5 -51.5 t91.5 -15.5zM520 1219l-37 -173h-134l37 173h134zM875 1219l-37 -173h-134l37 173h134z" />
<glyph unicode="&#xf7;" d="M413 833q0 39 27.5 67t65.5 28q26 0 47.5 -13t34 -34.5t12.5 -47.5q0 -38 -27.5 -65t-66 -27t-66 27t-27.5 65zM413 164q0 38 27.5 66t66 28t66 -28t27.5 -66q0 -39 -27.5 -66t-66 -27t-66 27t-27.5 66zM866 442h-720v116h720v-116z" />
<glyph unicode="&#xf8;" horiz-adv-x="947" d="M809 342q-40 -192 -144 -275.5t-279 -83.5q-125 0 -213 65l-81 -91l-75 59l93 105q-32 50 -32 123q0 19 4 47.5t11.5 68t14 70.5t17.5 81.5t16 73.5q40 192 144 275.5t278 83.5q123 0 210 -65l82 92l77 -60l-92 -105q31 -56 31 -124q0 -18 -3.5 -46t-11.5 -70t-13.5 -69 t-17.5 -82.5t-16 -72.5zM403 109q106 0 177 59t95 172q4 18 10.5 47t11.5 52t11 52t11 53t9 47t6 41.5t2 30.5q0 3 -1 11t-1 12l-470 -535q55 -42 139 -42zM214 263.5q0 -16.5 2 -23.5l468 535q-50 43 -137 43q-70 0 -125.5 -26t-93.5 -78t-54 -128q-3 -15 -14 -64.5 t-17 -78t-14 -68.5t-11.5 -67.5t-3.5 -44z" />
<glyph unicode="&#xf9;" horiz-adv-x="963" d="M378 -17q-54 0 -105.5 17.5t-93.5 49.5t-68 83t-26 111q0 16 3 40.5t7.5 49.5t11.5 60.5t13 62.5t14.5 66.5t13.5 61.5l71 335h134l-71 -334q-4 -19 -14.5 -65t-17 -77t-14 -69.5t-11.5 -66.5t-4 -44q0 -76 54 -115.5t130 -39.5q103 0 173 59.5t94 171.5l122 580h134 l-195 -920h-134l21 98q-33 -48 -97.5 -81.5t-144.5 -33.5zM405 1248h180l88 -231h-107z" />
<glyph unicode="&#xfa;" horiz-adv-x="963" d="M378 -17q-54 0 -105.5 17.5t-93.5 49.5t-68 83t-26 111q0 16 3 40.5t7.5 49.5t11.5 60.5t13 62.5t14.5 66.5t13.5 61.5l71 335h134l-71 -334q-4 -19 -14.5 -65t-17 -77t-14 -69.5t-11.5 -66.5t-4 -44q0 -76 54 -115.5t130 -39.5q103 0 173 59.5t94 171.5l122 580h134 l-195 -920h-134l21 98q-33 -48 -97.5 -81.5t-144.5 -33.5zM622 1248h192l-210 -231h-119z" />
<glyph unicode="&#xfb;" horiz-adv-x="963" d="M378 -17q-54 0 -105.5 17.5t-93.5 49.5t-68 83t-26 111q0 16 3 40.5t7.5 49.5t11.5 60.5t13 62.5t14.5 66.5t13.5 61.5l71 335h134l-71 -334q-4 -19 -14.5 -65t-17 -77t-14 -69.5t-11.5 -66.5t-4 -44q0 -76 54 -115.5t130 -39.5q103 0 173 59.5t94 171.5l122 580h134 l-195 -920h-134l21 98q-33 -48 -97.5 -81.5t-144.5 -33.5zM700 1248l175 -231h-149l-97 127l-150 -127h-168l272 231h117z" />
<glyph unicode="&#xfc;" horiz-adv-x="963" d="M378 -17q-54 0 -105.5 17.5t-93.5 49.5t-68 83t-26 111q0 16 3 40.5t7.5 49.5t11.5 60.5t13 62.5t14.5 66.5t13.5 61.5l71 335h134l-71 -334q-4 -19 -14.5 -65t-17 -77t-14 -69.5t-11.5 -66.5t-4 -44q0 -76 54 -115.5t130 -39.5q103 0 173 59.5t94 171.5l122 580h134 l-195 -920h-134l21 98q-33 -48 -97.5 -81.5t-144.5 -33.5zM525 1219l-37 -173h-133l37 173h133zM880 1219l-37 -173h-134l37 173h134z" />
<glyph unicode="&#xfd;" horiz-adv-x="831" d="M175 -146l73 129l-141 937h130l110 -762l428 762h145l-660 -1153q-30 -52 -81.5 -73t-141.5 -22h-51l26 127h68q27 0 46 7.5t29 18.5t20 29zM561 1248h192l-209 -231h-120z" />
<glyph unicode="&#xfe;" horiz-adv-x="963" d="M422 109q106 0 177.5 59t95.5 172q3 16 14 65.5t17 78t14 68.5t11.5 67.5t3.5 43.5q0 39 -16 69.5t-43 48.5t-60 27.5t-70 9.5q-106 0 -177 -59t-95 -173q-4 -19 -14 -65t-17 -77t-14.5 -69.5t-11.5 -66.5t-4 -44q0 -52 28 -88t69.5 -51.5t91.5 -15.5zM435 1248l-90 -420 q16 24 40 44t55 36.5t71 26t84 9.5q55 0 107.5 -17.5t94.5 -50t68 -83t26 -111.5q0 -18 -4 -46.5t-11.5 -68.5t-14 -70.5t-17.5 -81.5t-16 -73q-20 -97 -57 -167t-90 -112t-117.5 -61t-145.5 -19q-78 0 -136.5 35.5t-87.5 95.5l-94 -442h-134l335 1576h134z" />
<glyph unicode="&#xff;" horiz-adv-x="831" d="M175 -146l73 129l-141 937h130l110 -762l428 762h145l-660 -1153q-30 -52 -81.5 -73t-141.5 -22h-51l26 127h68q27 0 46 7.5t29 18.5t20 29zM467 1219l-37 -173h-134l37 173h134zM821 1219l-37 -173h-133l37 173h133z" />
<glyph unicode="&#x100;" horiz-adv-x="1008" d="M757 0l-38 353h-459l-187 -353h-144l664 1248h157l136 -1248h-129zM706 476l-65 593l-315 -593h380zM430 1365l26 119h531l-27 -119h-530z" />
<glyph unicode="&#x101;" horiz-adv-x="961" d="M542 818q-106 0 -177.5 -59.5t-95.5 -172.5q-4 -16 -10.5 -46t-11.5 -52.5t-11 -52t-10.5 -53t-8.5 -47t-6 -42t-2 -29.5q0 -52 28 -88t69.5 -51.5t91.5 -15.5q106 0 177 59t95 172q4 18 10 47t11.5 52t11.5 52t10.5 53t9 47t6.5 41.5t2 30.5q0 39 -16 69.5t-43 48.5 t-60 27.5t-70 9.5zM597 0l22 98q-22 -32 -56 -57t-85 -41.5t-109 -16.5q-55 0 -107.5 17.5t-94.5 49.5t-68 83t-26 111q0 19 4 47.5t11.5 68t14 70.5t17.5 81.5t16 73.5q39 190 142.5 274.5t266.5 84.5q53 0 97.5 -16.5t76.5 -46t51 -68.5l23 107h134l-196 -920h-134z M335 1074l23 116h531l-23 -116h-531z" />
<glyph unicode="&#x102;" horiz-adv-x="1008" d="M757 0l-38 353h-459l-187 -353h-144l664 1248h157l136 -1248h-129zM706 476l-65 593l-315 -593h380zM775 1440q35 0 63.5 23.5t34.5 58.5h120q-20 -88 -76 -141t-157 -53h-141q-40 0 -76 20t-59 57t-23 81q0 5 4 36h108q-1 -6 -1 -16q0 -29 19 -47.5t50 -18.5h134z" />
<glyph unicode="&#x103;" horiz-adv-x="961" d="M542 818q-106 0 -177.5 -59.5t-95.5 -172.5q-4 -16 -10.5 -46t-11.5 -52.5t-11 -52t-10.5 -53t-8.5 -47t-6 -42t-2 -29.5q0 -52 28 -88t69.5 -51.5t91.5 -15.5q106 0 177 59t95 172q4 18 10 47t11.5 52t11.5 52t10.5 53t9 47t6.5 41.5t2 30.5q0 39 -16 69.5t-43 48.5 t-60 27.5t-70 9.5zM597 0l22 98q-22 -32 -56 -57t-85 -41.5t-109 -16.5q-55 0 -107.5 17.5t-94.5 49.5t-68 83t-26 111q0 19 4 47.5t11.5 68t14 70.5t17.5 81.5t16 73.5q39 190 142.5 274.5t266.5 84.5q53 0 97.5 -16.5t76.5 -46t51 -68.5l23 107h134l-196 -920h-134z M572 1017q-82 0 -134.5 52.5t-52.5 131.5q0 19 6 47h102q-3 -18 -3 -26q0 -41 30.5 -68.5t74.5 -27.5h68q47 0 89 35.5t52 86.5h114q-22 -102 -92.5 -166.5t-186.5 -64.5h-67z" />
<glyph unicode="&#x104;" horiz-adv-x="1008" d="M750 1248l136 -1248q-2 -1 -7 -4q-21 -13 -33.5 -21t-37 -24.5t-40.5 -31.5t-33 -33t-26 -37t-9 -38q0 -35 45 -35q43 0 98 30l-23 -110q-52 -33 -113 -33q-62 0 -106.5 33t-44.5 92q0 74 60.5 132t140.5 80l-38 353h-459l-187 -353h-144l664 1248h157zM706 476l-65 593 l-315 -593h380z" />
<glyph unicode="&#x105;" horiz-adv-x="961" d="M597 0l22 98q-22 -32 -56 -57t-85 -41.5t-109 -16.5q-55 0 -107.5 17.5t-94.5 49.5t-68 83t-26 111q0 19 4 47.5t11.5 68t14 70.5t17.5 81.5t16 73.5q39 190 142.5 274.5t266.5 84.5q53 0 97.5 -16.5t76.5 -46t51 -68.5l23 107h134l-196 -920q-5 -3 -31 -18.5t-41 -25 t-39.5 -28.5t-38.5 -34t-25 -35.5t-11 -40.5q0 -10 3.5 -19t9 -15t13.5 -9t17 -3q41 0 100 31l-23 -107q-53 -33 -120 -33q-58 0 -97.5 33.5t-39.5 91.5q0 145 189 212zM542 818q-106 0 -177.5 -59.5t-95.5 -172.5q-4 -16 -10.5 -46t-11.5 -52.5t-11 -52t-10.5 -53t-8.5 -47 t-6 -42t-2 -29.5q0 -52 28 -88t69.5 -51.5t91.5 -15.5q106 0 177 59t95 172q4 18 10 47t11.5 52t11.5 52t10.5 53t9 47t6.5 41.5t2 30.5q0 39 -16 69.5t-43 48.5t-60 27.5t-70 9.5z" />
<glyph unicode="&#x106;" horiz-adv-x="998" d="M665 1265q70 0 131 -19.5t109 -57.5t75.5 -100.5t27.5 -141.5q0 -40 -3 -67h-139q5 32 5 56q0 64 -25 108.5t-75.5 67.5t-125.5 23q-122 0 -203.5 -75t-113.5 -216q-107 -480 -107 -532q0 -96 57 -146.5t169 -50.5q114 0 193 65.5t115 189.5h138q-50 -194 -161 -290 t-304 -96q-56 0 -106.5 11.5t-94 37t-75.5 62.5t-50 90t-18 117q0 16 0.5 26.5t1 22.5t4.5 31.5t8 40t13.5 62t18.5 84t26 119.5t35 156q47 212 159.5 317t314.5 105zM738 1522h196l-228 -194h-133z" />
<glyph unicode="&#x107;" horiz-adv-x="916" d="M860 629h-133q4 28 4 34q0 39 -16 69.5t-43 48.5t-60 27.5t-70 9.5q-106 0 -177.5 -59.5t-95.5 -172.5q-4 -16 -10.5 -46t-11.5 -52.5t-11 -52t-10.5 -53t-8.5 -47t-6 -42t-2 -29.5q0 -52 28 -88t69.5 -51.5t91.5 -15.5q94 0 162.5 48t98.5 141h134q-46 -168 -147 -241.5 t-265 -73.5q-82 0 -151 29.5t-113 90.5t-44 141q0 19 4 47.5t11.5 68t14 70.5t17.5 81.5t16 73.5q40 192 143.5 275.5t278.5 83.5q81 0 150.5 -29.5t113.5 -90.5t44 -142q0 -20 -6 -53zM615 1248h192l-210 -231h-119z" />
<glyph unicode="&#x108;" horiz-adv-x="998" d="M665 1265q70 0 131 -19.5t109 -57.5t75.5 -100.5t27.5 -141.5q0 -40 -3 -67h-139q5 32 5 56q0 64 -25 108.5t-75.5 67.5t-125.5 23q-122 0 -203.5 -75t-113.5 -216q-107 -480 -107 -532q0 -96 57 -146.5t169 -50.5q114 0 193 65.5t115 189.5h138q-50 -194 -161 -290 t-304 -96q-56 0 -106.5 11.5t-94 37t-75.5 62.5t-50 90t-18 117q0 16 0.5 26.5t1 22.5t4.5 31.5t8 40t13.5 62t18.5 84t26 119.5t35 156q47 212 159.5 317t314.5 105zM807 1328l-86 90l-124 -90h-185l263 194h118l181 -194h-167z" />
<glyph unicode="&#x109;" horiz-adv-x="916" d="M860 629h-133q4 28 4 34q0 39 -16 69.5t-43 48.5t-60 27.5t-70 9.5q-106 0 -177.5 -59.5t-95.5 -172.5q-4 -16 -10.5 -46t-11.5 -52.5t-11 -52t-10.5 -53t-8.5 -47t-6 -42t-2 -29.5q0 -52 28 -88t69.5 -51.5t91.5 -15.5q94 0 162.5 48t98.5 141h134q-46 -168 -147 -241.5 t-265 -73.5q-82 0 -151 29.5t-113 90.5t-44 141q0 19 4 47.5t11.5 68t14 70.5t17.5 81.5t16 73.5q40 192 143.5 275.5t278.5 83.5q81 0 150.5 -29.5t113.5 -90.5t44 -142q0 -20 -6 -53zM693 1248l174 -231h-149l-96 127l-150 -127h-168l272 231h117z" />
<glyph unicode="&#x10a;" horiz-adv-x="998" d="M665 1265q70 0 131 -19.5t109 -57.5t75.5 -100.5t27.5 -141.5q0 -40 -3 -67h-139q5 32 5 56q0 64 -25 108.5t-75.5 67.5t-125.5 23q-122 0 -203.5 -75t-113.5 -216q-107 -480 -107 -532q0 -96 57 -146.5t169 -50.5q114 0 193 65.5t115 189.5h138q-50 -194 -161 -290 t-304 -96q-56 0 -106.5 11.5t-94 37t-75.5 62.5t-50 90t-18 117q0 16 0.5 26.5t1 22.5t4.5 31.5t8 40t13.5 62t18.5 84t26 119.5t35 156q47 212 159.5 317t314.5 105zM804 1511l-38 -173h-137l37 173h138z" />
<glyph unicode="&#x10b;" horiz-adv-x="916" d="M860 629h-133q4 28 4 34q0 39 -16 69.5t-43 48.5t-60 27.5t-70 9.5q-106 0 -177.5 -59.5t-95.5 -172.5q-4 -16 -10.5 -46t-11.5 -52.5t-11 -52t-10.5 -53t-8.5 -47t-6 -42t-2 -29.5q0 -52 28 -88t69.5 -51.5t91.5 -15.5q94 0 162.5 48t98.5 141h134q-46 -168 -147 -241.5 t-265 -73.5q-82 0 -151 29.5t-113 90.5t-44 141q0 19 4 47.5t11.5 68t14 70.5t17.5 81.5t16 73.5q40 192 143.5 275.5t278.5 83.5q81 0 150.5 -29.5t113.5 -90.5t44 -142q0 -20 -6 -53zM697 1219l-38 -173h-134l38 173h134z" />
<glyph unicode="&#x10c;" horiz-adv-x="998" d="M665 1265q70 0 131 -19.5t109 -57.5t75.5 -100.5t27.5 -141.5q0 -40 -3 -67h-139q5 32 5 56q0 64 -25 108.5t-75.5 67.5t-125.5 23q-122 0 -203.5 -75t-113.5 -216q-107 -480 -107 -532q0 -96 57 -146.5t169 -50.5q114 0 193 65.5t115 189.5h138q-50 -194 -161 -290 t-304 -96q-56 0 -106.5 11.5t-94 37t-75.5 62.5t-50 90t-18 117q0 16 0.5 26.5t1 22.5t4.5 31.5t8 40t13.5 62t18.5 84t26 119.5t35 156q47 212 159.5 317t314.5 105zM620 1522l86 -91l124 91h185l-263 -194h-118l-182 194h168z" />
<glyph unicode="&#x10d;" horiz-adv-x="916" d="M860 629h-133q4 28 4 34q0 39 -16 69.5t-43 48.5t-60 27.5t-70 9.5q-106 0 -177.5 -59.5t-95.5 -172.5q-4 -16 -10.5 -46t-11.5 -52.5t-11 -52t-10.5 -53t-8.5 -47t-6 -42t-2 -29.5q0 -52 28 -88t69.5 -51.5t91.5 -15.5q94 0 162.5 48t98.5 141h134q-46 -168 -147 -241.5 t-265 -73.5q-82 0 -151 29.5t-113 90.5t-44 141q0 19 4 47.5t11.5 68t14 70.5t17.5 81.5t16 73.5q40 192 143.5 275.5t278.5 83.5q81 0 150.5 -29.5t113.5 -90.5t44 -142q0 -20 -6 -53zM527 1017l-174 231h150l96 -127l149 127h168l-271 -231h-118z" />
<glyph unicode="&#x10e;" horiz-adv-x="1049" d="M211 132h272q60 0 111.5 19t92 55.5t69 91t44.5 124.5q100 445 100 496q0 64 -25 108t-75.5 66.5t-126.5 22.5h-255zM463 0h-419l266 1248h383q71 0 132 -19.5t109 -57.5t75.5 -100.5t27.5 -142.5q0 -28 -6 -69.5t-17.5 -96.5t-22.5 -104.5t-27.5 -120t-26.5 -115.5 q-47 -212 -160 -317t-314 -105zM593 1522l86 -91l125 91h185l-263 -194h-119l-182 194h168z" />
<glyph unicode="&#x10f;" horiz-adv-x="961" d="M1277 1248l-183 -282h-105l109 282h179zM542 818q-106 0 -177.5 -59.5t-95.5 -172.5q-4 -16 -10.5 -46t-11.5 -52.5t-11 -52t-10.5 -53t-8.5 -47t-6 -42t-2 -29.5q0 -52 28 -88t69.5 -51.5t91.5 -15.5q106 0 177 59t95 172q4 18 10 47t11.5 52t11.5 52t10.5 53t9 47 t6.5 41.5t2 30.5q0 39 -16 69.5t-43 48.5t-60 27.5t-70 9.5zM597 0l22 98q-22 -32 -56 -57t-85 -41.5t-109 -16.5q-55 0 -107.5 17.5t-94.5 49.5t-68 83t-26 111q0 19 4 47.5t11.5 68t14 70.5t17.5 81.5t16 73.5q39 190 142.5 274.5t266.5 84.5q53 0 97.5 -16.5t76.5 -46 t51 -68.5l92 435h134l-265 -1248h-134z" />
<glyph unicode="&#x110;" horiz-adv-x="1068" d="M483 0h-419l123 576h-124l19 97h125l123 575h383q55 0 105.5 -12t94 -37.5t75.5 -62.5t50 -90.5t18 -117.5q0 -34 -10.5 -97t-22 -116t-34 -150t-32.5 -143q-47 -212 -160 -317t-314 -105zM230 132h273q48 0 90.5 12t78.5 36t64.5 58.5t49.5 81t34 102.5q57 257 78.5 361 t21.5 135q0 64 -25 108t-75.5 66.5t-126.5 22.5h-255l-94 -442h265l-19 -97h-265z" />
<glyph unicode="&#x111;" horiz-adv-x="963" d="M597 0l22 98q-22 -32 -56 -57t-85 -41.5t-109 -16.5q-55 0 -107.5 17.5t-94.5 49.5t-68 83t-26 111q0 19 4 47.5t11.5 68t14 70.5t17.5 81.5t16 73.5q39 190 142.5 274.5t266.5 84.5q53 0 97.5 -16.5t76.5 -46t51 -68.5l50 236h-227l20 95h227l22 104h134l-23 -104h125 l-20 -95h-124l-223 -1049h-134zM542 818q-106 0 -177.5 -59.5t-95.5 -172.5q-4 -16 -10.5 -46t-11.5 -52.5t-11 -52t-10.5 -53t-8.5 -47t-6 -42t-2 -29.5q0 -52 28 -88t69.5 -51.5t91.5 -15.5q106 0 177 59t95 172q4 18 10 47t11.5 52t11.5 52t10.5 53t9 47t6.5 41.5t2 30.5 q0 39 -16 69.5t-43 48.5t-60 27.5t-70 9.5z" />
<glyph unicode="&#x112;" horiz-adv-x="965" d="M303 565l-92 -433h571l-29 -132h-709l266 1248h709l-28 -133h-573l-88 -418h571l-28 -132h-570zM422 1365l27 119h531l-26 -119h-532z" />
<glyph unicode="&#x113;" horiz-adv-x="928" d="M823 430h-588q-26 -131 -26 -166q0 -52 28 -88t69.5 -51.5t91.5 -15.5q61 0 111.5 20t88 60.5t58.5 99.5h135q-31 -110 -88.5 -178.5t-136 -98t-185.5 -29.5q-82 0 -151 29.5t-113 90.5t-44 141q0 19 4 47.5t11.5 68t14 70.5t17.5 81.5t16 73.5q40 192 143.5 275.5 t278.5 83.5q81 0 150.5 -29.5t113.5 -90.5t44 -142q0 -56 -43 -252zM714 551q17 91 17 112q0 39 -16 69.5t-43 48.5t-60 27.5t-70 9.5q-78 0 -137.5 -32.5t-95 -92t-47.5 -142.5h452zM335 1074l23 116h531l-23 -116h-531z" />
<glyph unicode="&#x114;" horiz-adv-x="965" d="M303 565l-92 -433h571l-29 -132h-709l266 1248h709l-28 -133h-573l-88 -418h571l-28 -132h-570zM768 1440q35 0 63 23.5t35 58.5h120q-8 -34 -20 -62t-31.5 -53t-44.5 -42t-60 -27t-77 -10h-142q-61 0 -109 46t-48 112q0 11 4 36h108q-1 -6 -1 -16q0 -29 19.5 -47.5 t49.5 -18.5h134z" />
<glyph unicode="&#x115;" horiz-adv-x="928" d="M823 430h-588q-26 -131 -26 -166q0 -52 28 -88t69.5 -51.5t91.5 -15.5q61 0 111.5 20t88 60.5t58.5 99.5h135q-31 -110 -88.5 -178.5t-136 -98t-185.5 -29.5q-82 0 -151 29.5t-113 90.5t-44 141q0 19 4 47.5t11.5 68t14 70.5t17.5 81.5t16 73.5q40 192 143.5 275.5 t278.5 83.5q81 0 150.5 -29.5t113.5 -90.5t44 -142q0 -56 -43 -252zM714 551q17 91 17 112q0 39 -16 69.5t-43 48.5t-60 27.5t-70 9.5q-78 0 -137.5 -32.5t-95 -92t-47.5 -142.5h452zM554 1017q-82 0 -134.5 52.5t-52.5 131.5q0 23 5 47h104q-4 -18 -4 -26q0 -41 30.5 -68.5 t75.5 -27.5h67q47 0 88.5 35.5t52.5 86.5h114q-22 -102 -92.5 -166.5t-185.5 -64.5h-68z" />
<glyph unicode="&#x116;" horiz-adv-x="965" d="M303 565l-92 -433h571l-29 -132h-709l266 1248h709l-28 -133h-573l-88 -418h571l-28 -132h-570zM791 1511l-38 -173h-136l37 173h137z" />
<glyph unicode="&#x117;" horiz-adv-x="928" d="M823 430h-588q-26 -131 -26 -166q0 -52 28 -88t69.5 -51.5t91.5 -15.5q61 0 111.5 20t88 60.5t58.5 99.5h135q-31 -110 -88.5 -178.5t-136 -98t-185.5 -29.5q-82 0 -151 29.5t-113 90.5t-44 141q0 19 4 47.5t11.5 68t14 70.5t17.5 81.5t16 73.5q40 192 143.5 275.5 t278.5 83.5q81 0 150.5 -29.5t113.5 -90.5t44 -142q0 -56 -43 -252zM714 551q17 91 17 112q0 39 -16 69.5t-43 48.5t-60 27.5t-70 9.5q-78 0 -137.5 -32.5t-95 -92t-47.5 -142.5h452zM699 1219l-38 -173h-134l38 173h134z" />
<glyph unicode="&#x118;" horiz-adv-x="965" d="M303 565l-92 -433h571l-29 -132q-2 -1 -6 -4q-26 -15 -42 -25.5t-45 -32t-46.5 -39.5t-31.5 -42t-14 -46q0 -35 45 -35q43 0 98 30l-23 -110q-52 -33 -112 -33q-40 0 -73.5 13.5t-56 42.5t-22.5 69q0 73 55.5 128.5t137.5 83.5h-573l266 1248h709l-28 -133h-573l-88 -418 h571l-28 -132h-570z" />
<glyph unicode="&#x119;" horiz-adv-x="928" d="M823 430h-588q-26 -131 -26 -166q0 -52 28 -88t69.5 -51.5t91.5 -15.5q61 0 111.5 20t88 60.5t58.5 99.5h135q-52 -184 -178 -255q-5 -3 -28.5 -16t-37 -21t-39 -23.5t-41 -27t-35.5 -29t-31.5 -32.5t-20 -32.5t-8.5 -34.5q0 -21 12 -33.5t31 -12.5q41 0 100 31l-23 -107 q-53 -33 -120 -33q-58 0 -97.5 33.5t-39.5 91.5q0 128 144 195q-60 0 -115 17.5t-97.5 50t-68 82.5t-25.5 111q0 19 4 47.5t11.5 68t14 70.5t17.5 81.5t16 73.5q40 192 143.5 275.5t278.5 83.5q81 0 150.5 -29.5t113.5 -90.5t44 -142q0 -56 -43 -252zM714 551q17 91 17 112 q0 39 -16 69.5t-43 48.5t-60 27.5t-70 9.5q-78 0 -137.5 -32.5t-95 -92t-47.5 -142.5h452z" />
<glyph unicode="&#x11a;" horiz-adv-x="965" d="M303 565l-92 -433h571l-29 -132h-709l266 1248h709l-28 -133h-573l-88 -418h571l-28 -132h-570zM607 1522l86 -91l125 91h185l-263 -194h-118l-182 194h167z" />
<glyph unicode="&#x11b;" horiz-adv-x="928" d="M823 430h-588q-26 -131 -26 -166q0 -52 28 -88t69.5 -51.5t91.5 -15.5q61 0 111.5 20t88 60.5t58.5 99.5h135q-31 -110 -88.5 -178.5t-136 -98t-185.5 -29.5q-82 0 -151 29.5t-113 90.5t-44 141q0 19 4 47.5t11.5 68t14 70.5t17.5 81.5t16 73.5q40 192 143.5 275.5 t278.5 83.5q81 0 150.5 -29.5t113.5 -90.5t44 -142q0 -56 -43 -252zM714 551q17 91 17 112q0 39 -16 69.5t-43 48.5t-60 27.5t-70 9.5q-78 0 -137.5 -32.5t-95 -92t-47.5 -142.5h452zM529 1017l-174 231h150l95 -127l150 127h168l-272 -231h-117z" />
<glyph unicode="&#x11c;" horiz-adv-x="1011" d="M791 529h-264l29 132h403q-14 -66 -58 -256q-47 -212 -159.5 -317t-313.5 -105q-56 0 -106.5 11.5t-94 37t-75.5 62.5t-50 90t-18 117q0 16 0.5 26.5t1 22.5t4.5 31.5t8 40t13.5 62t18.5 84t26 119.5t35 156q47 212 159.5 317t314.5 105q70 0 131 -19.5t109 -57.5 t75.5 -100.5t27.5 -141.5q0 -40 -3 -67h-139q5 32 5 56q0 64 -25 108.5t-75.5 67.5t-125.5 23q-122 0 -203.5 -75t-113.5 -216q-107 -480 -107 -532q0 -96 57 -146.5t169 -50.5q122 0 204 74.5t114 216.5q6 24 14 66t12 58zM809 1328l-86 90l-124 -90h-186l264 194h117 l182 -194h-167z" />
<glyph unicode="&#x11d;" horiz-adv-x="959" d="M139 -30q-2 -13 -2 -34q0 -52 28.5 -88t69.5 -51.5t91 -15.5q106 0 177.5 59t95.5 172l25 122q-34 -50 -99.5 -83.5t-150.5 -33.5q-55 0 -107.5 18t-94.5 50.5t-68 83t-26 111.5q0 19 3 44t9.5 58.5t12.5 60.5l16 72t15 70q40 190 143 274.5t267 84.5q52 0 97 -16.5 t76.5 -46t50.5 -68.5l23 107h134l-192 -906q-40 -192 -144.5 -275.5t-278.5 -83.5q-82 0 -151 29.5t-113 90.5t-44 141q0 21 5 54h132zM540 818q-106 0 -177.5 -59.5t-95.5 -172.5q-4 -17 -10 -44t-10 -47.5t-9.5 -45.5t-9.5 -45t-7.5 -40t-5 -36.5t-1.5 -28.5q0 -52 28 -88 t69.5 -51.5t91.5 -15.5q106 0 177 59.5t95 172.5q5 21 17.5 77t18.5 85.5t12 67t6 57.5q0 39 -16 69.5t-43 48.5t-60 27.5t-70 9.5zM693 1248l174 -231h-149l-96 127l-150 -127h-168l272 231h117z" />
<glyph unicode="&#x11e;" horiz-adv-x="1011" d="M791 529h-264l29 132h403q-14 -66 -58 -256q-47 -212 -159.5 -317t-313.5 -105q-56 0 -106.5 11.5t-94 37t-75.5 62.5t-50 90t-18 117q0 16 0.5 26.5t1 22.5t4.5 31.5t8 40t13.5 62t18.5 84t26 119.5t35 156q47 212 159.5 317t314.5 105q70 0 131 -19.5t109 -57.5 t75.5 -100.5t27.5 -141.5q0 -40 -3 -67h-139q5 32 5 56q0 64 -25 108.5t-75.5 67.5t-125.5 23q-122 0 -203.5 -75t-113.5 -216q-107 -480 -107 -532q0 -96 57 -146.5t169 -50.5q122 0 204 74.5t114 216.5q6 24 14 66t12 58zM782 1440q35 0 63.5 23.5t34.5 58.5h120 q-20 -89 -75.5 -141.5t-156.5 -52.5h-142q-61 0 -109 46t-48 112q0 11 3 36h109q-2 -6 -2 -16q0 -29 19.5 -47.5t49.5 -18.5h134z" />
<glyph unicode="&#x11f;" horiz-adv-x="959" d="M139 -30q-2 -13 -2 -34q0 -52 28.5 -88t69.5 -51.5t91 -15.5q106 0 177.5 59t95.5 172l25 122q-34 -50 -99.5 -83.5t-150.5 -33.5q-55 0 -107.5 18t-94.5 50.5t-68 83t-26 111.5q0 19 3 44t9.5 58.5t12.5 60.5l16 72t15 70q40 190 143 274.5t267 84.5q52 0 97 -16.5 t76.5 -46t50.5 -68.5l23 107h134l-192 -906q-40 -192 -144.5 -275.5t-278.5 -83.5q-82 0 -151 29.5t-113 90.5t-44 141q0 21 5 54h132zM540 818q-106 0 -177.5 -59.5t-95.5 -172.5q-4 -17 -10 -44t-10 -47.5t-9.5 -45.5t-9.5 -45t-7.5 -40t-5 -36.5t-1.5 -28.5q0 -52 28 -88 t69.5 -51.5t91.5 -15.5q106 0 177 59.5t95 172.5q5 21 17.5 77t18.5 85.5t12 67t6 57.5q0 39 -16 69.5t-43 48.5t-60 27.5t-70 9.5zM554 1017q-82 0 -134.5 52.5t-52.5 131.5q0 23 5 47h104q-4 -18 -4 -26q0 -41 30.5 -68.5t75.5 -27.5h67q47 0 88.5 35.5t52.5 86.5h114 q-22 -102 -92.5 -166.5t-185.5 -64.5h-68z" />
<glyph unicode="&#x120;" horiz-adv-x="1011" d="M791 529h-264l29 132h403q-14 -66 -58 -256q-47 -212 -159.5 -317t-313.5 -105q-56 0 -106.5 11.5t-94 37t-75.5 62.5t-50 90t-18 117q0 16 0.5 26.5t1 22.5t4.5 31.5t8 40t13.5 62t18.5 84t26 119.5t35 156q47 212 159.5 317t314.5 105q70 0 131 -19.5t109 -57.5 t75.5 -100.5t27.5 -141.5q0 -40 -3 -67h-139q5 32 5 56q0 64 -25 108.5t-75.5 67.5t-125.5 23q-122 0 -203.5 -75t-113.5 -216q-107 -480 -107 -532q0 -96 57 -146.5t169 -50.5q122 0 204 74.5t114 216.5q6 24 14 66t12 58zM806 1511l-38 -173h-137l37 173h138z" />
<glyph unicode="&#x121;" horiz-adv-x="959" d="M139 -30q-2 -13 -2 -34q0 -52 28.5 -88t69.5 -51.5t91 -15.5q106 0 177.5 59t95.5 172l25 122q-34 -50 -99.5 -83.5t-150.5 -33.5q-55 0 -107.5 18t-94.5 50.5t-68 83t-26 111.5q0 19 3 44t9.5 58.5t12.5 60.5l16 72t15 70q40 190 143 274.5t267 84.5q52 0 97 -16.5 t76.5 -46t50.5 -68.5l23 107h134l-192 -906q-40 -192 -144.5 -275.5t-278.5 -83.5q-82 0 -151 29.5t-113 90.5t-44 141q0 21 5 54h132zM540 818q-106 0 -177.5 -59.5t-95.5 -172.5q-4 -17 -10 -44t-10 -47.5t-9.5 -45.5t-9.5 -45t-7.5 -40t-5 -36.5t-1.5 -28.5q0 -52 28 -88 t69.5 -51.5t91.5 -15.5q106 0 177 59.5t95 172.5q5 21 17.5 77t18.5 85.5t12 67t6 57.5q0 39 -16 69.5t-43 48.5t-60 27.5t-70 9.5zM697 1219l-38 -173h-134l38 173h134z" />
<glyph unicode="&#x122;" horiz-adv-x="1011" d="M791 529h-264l29 132h403q-14 -66 -58 -256q-47 -212 -159.5 -317t-313.5 -105q-56 0 -106.5 11.5t-94 37t-75.5 62.5t-50 90t-18 117q0 16 0.5 26.5t1 22.5t4.5 31.5t8 40t13.5 62t18.5 84t26 119.5t35 156q47 212 159.5 317t314.5 105q70 0 131 -19.5t109 -57.5 t75.5 -100.5t27.5 -141.5q0 -40 -3 -67h-139q5 32 5 56q0 64 -25 108.5t-75.5 67.5t-125.5 23q-122 0 -203.5 -75t-113.5 -216q-107 -480 -107 -532q0 -96 57 -146.5t169 -50.5q122 0 204 74.5t114 216.5q6 24 14 66t12 58zM272 -258l38 169h169l-37 -169l-77 -150h-114 l77 150h-56z" />
<glyph unicode="&#x123;" horiz-adv-x="959" d="M139 -30q-2 -13 -2 -34q0 -52 28.5 -88t69.5 -51.5t91 -15.5q106 0 177.5 59t95.5 172l25 122q-34 -50 -99.5 -83.5t-150.5 -33.5q-55 0 -107.5 18t-94.5 50.5t-68 83t-26 111.5q0 19 3 44t9.5 58.5t12.5 60.5l16 72t15 70q40 190 143 274.5t267 84.5q52 0 97 -16.5 t76.5 -46t50.5 -68.5l23 107h134l-192 -906q-40 -192 -144.5 -275.5t-278.5 -83.5q-82 0 -151 29.5t-113 90.5t-44 141q0 21 5 54h132zM540 818q-106 0 -177.5 -59.5t-95.5 -172.5q-4 -17 -10 -44t-10 -47.5t-9.5 -45.5t-9.5 -45t-7.5 -40t-5 -36.5t-1.5 -28.5q0 -52 28 -88 t69.5 -51.5t91.5 -15.5q106 0 177 59.5t95 172.5q5 21 17.5 77t18.5 85.5t12 67t6 57.5q0 39 -16 69.5t-43 48.5t-60 27.5t-70 9.5zM709 1187l-37 -170h-169l37 170l77 149h114l-77 -149h55z" />
<glyph unicode="&#x124;" horiz-adv-x="1090" d="M860 697l118 551h137l-265 -1248h-137l119 565h-529l-121 -565h-138l266 1248h137l-117 -551h530zM843 1328l-86 90l-125 -90h-185l264 194h117l182 -194h-167z" />
<glyph unicode="&#x125;" horiz-adv-x="974" d="M595 944q55 0 107.5 -17.5t94.5 -50t68 -83t26 -111.5q0 -18 -4 -46.5t-11.5 -68.5t-14 -70.5t-17.5 -81.5t-16 -73l-73 -342h-133l73 340q60 260 60 323q0 39 -16 69.5t-43 48.5t-60 27.5t-70 9.5q-106 0 -177 -59t-95 -173l-124 -586h-134l265 1248h134l-90 -420 q16 24 40 44t55 36.5t71 26t84 9.5zM786 1557l174 -229h-149l-97 126l-149 -126h-167l270 229h118z" />
<glyph unicode="&#x126;" horiz-adv-x="1090" d="M447 1248l-48 -225h531l48 225h137l-265 -1248h-137l119 565h-529l-121 -565h-138l266 1248h137zM860 697l48 228h-530l-48 -228h530z" />
<glyph unicode="&#x127;" horiz-adv-x="974" d="M595 944q55 0 107.5 -17.5t94.5 -50t68 -83t26 -111.5q0 -18 -4 -46.5t-11.5 -68.5t-14 -70.5t-17.5 -81.5t-16 -73l-73 -342h-133l73 340q60 260 60 323q0 39 -16 69.5t-43 48.5t-60 27.5t-70 9.5q-106 0 -177 -59t-95 -173l-124 -586h-134l222 1049h-122l17 95h125 l23 104h134l-23 -104h226l-19 -95h-227l-47 -221q16 24 40 44t55 36.5t71 26t84 9.5z" />
<glyph unicode="&#x128;" horiz-adv-x="421" d="M44 0l266 1248h137l-265 -1248h-138zM315 1518q52 0 98 -25l54 -29q28 -14 46 -14q24 0 42.5 16.5t27.5 48.5h116q-17 -80 -67.5 -131t-116.5 -51q-52 0 -98 25l-53 28q-30 15 -46 15q-24 0 -42.5 -16.5t-27.5 -48.5h-116q17 80 67 131t116 51z" />
<glyph unicode="&#x129;" horiz-adv-x="400" d="M365 920l-194 -920h-134l194 920h134zM164 1044h-103q16 80 67 131t116 51q52 0 98 -25l54 -30q26 -17 55 -17q15 0 30 9t27 24.5t16 34.5h103q-11 -52 -37 -93.5t-64.5 -64.5t-81.5 -23q-52 0 -99 25l-53 30q-25 16 -55 16q-24 0 -45.5 -19.5t-27.5 -48.5z" />
<glyph unicode="&#x12a;" horiz-adv-x="421" d="M44 0l266 1248h137l-265 -1248h-138zM137 1365l27 119h531l-27 -119h-531z" />
<glyph unicode="&#x12b;" horiz-adv-x="400" d="M365 920l-194 -920h-134l194 920h134zM66 1074l23 116h531l-23 -116h-531z" />
<glyph unicode="&#x12c;" horiz-adv-x="421" d="M44 0l266 1248h137l-265 -1248h-138zM481 1440q35 0 63.5 23.5t34.5 58.5h120q-20 -89 -75.5 -141.5t-156.5 -52.5h-142q-30 0 -58 12t-50 32.5t-35.5 50.5t-13.5 63q0 11 3 36h109q-2 -8 -2 -16q0 -29 19 -47.5t50 -18.5h134z" />
<glyph unicode="&#x12d;" horiz-adv-x="400" d="M365 920l-194 -920h-134l194 920h134zM285 1017q-82 0 -134.5 52.5t-52.5 131.5q0 23 6 47h103q-4 -22 -4 -26q0 -41 30.5 -68.5t74.5 -27.5h68q47 0 88.5 35.5t52.5 86.5h114q-22 -102 -92.5 -166.5t-185.5 -64.5h-68z" />
<glyph unicode="&#x12e;" horiz-adv-x="421" d="M44 0l266 1248h137l-265 -1248q-2 -1 -7 -4q-25 -15 -41 -25.5t-45 -32t-46.5 -39.5t-31.5 -42t-14 -46q0 -35 44 -35q43 0 98 30l-23 -110q-52 -33 -113 -33q-62 0 -106.5 33t-44.5 92q0 74 55.5 129t136.5 83z" />
<glyph unicode="&#x12f;" horiz-adv-x="400" d="M365 920l-195 -920q-5 -3 -31 -18.5t-41 -25t-39.5 -28.5t-38.5 -34t-25 -35.5t-11 -40.5q0 -21 12 -33.5t31 -12.5q40 0 99 31l-22 -107q-53 -33 -120 -33q-58 0 -97.5 33.5t-39.5 91.5q0 145 189 212l195 920h134zM435 1248l-37 -174h-134l37 174h134z" />
<glyph unicode="&#x130;" horiz-adv-x="421" d="M44 0l266 1248h137l-265 -1248h-138zM505 1511l-38 -173h-137l37 173h138z" />
<glyph unicode="&#x131;" horiz-adv-x="400" d="M365 920l-194 -920h-134l194 920h134z" />
<glyph unicode="&#x134;" horiz-adv-x="842" d="M5 357h136q-9 -34 -9 -72q0 -75 54.5 -123t138.5 -48q99 0 152.5 58.5t76.5 169.5l192 906h138l-192 -906q-27 -127 -71.5 -203.5t-121.5 -116t-195 -39.5q-55 0 -109 19t-98.5 54.5t-72 91.5t-27.5 123q0 41 8 86zM944 1328l-85 90l-125 -90h-185l264 194h117l182 -194 h-168z" />
<glyph unicode="&#x135;" horiz-adv-x="400" d="M10 -119l221 1039h134l-219 -1029q-25 -120 -82 -169.5t-181 -49.5h-29l27 129h29q31 0 51 7.5t31.5 25t17.5 47.5zM425 1248l175 -231h-149l-96 127l-150 -127h-168l271 231h117z" />
<glyph unicode="&#x136;" horiz-adv-x="1086" d="M260 367l-78 -367h-138l266 1248h137l-143 -670l713 670h180l-546 -514l327 -734h-145l-284 639zM342 -258l37 169h170l-37 -169l-77 -150h-114l77 150h-56z" />
<glyph unicode="&#x137;" horiz-adv-x="899" d="M435 1248l-161 -751l479 423h179l-408 -361l260 -559h-143l-219 472l-189 -168l-63 -304h-134l265 1248h134zM240 -258l38 169h169l-37 -169l-77 -150h-114l77 150h-56z" />
<glyph unicode="&#x139;" horiz-adv-x="877" d="M44 0l266 1248h137l-236 -1116h571l-29 -132h-709zM438 1522h196l-228 -194h-132z" />
<glyph unicode="&#x13a;" horiz-adv-x="400" d="M435 1248l-265 -1248h-134l265 1248h134zM413 1557h193l-210 -229h-120z" />
<glyph unicode="&#x13b;" horiz-adv-x="877" d="M44 0l266 1248h137l-236 -1116h571l-29 -132h-709zM260 -258l38 169h169l-37 -169l-77 -150h-115l77 150h-55z" />
<glyph unicode="&#x13c;" horiz-adv-x="400" d="M435 1248l-265 -1248h-134l265 1248h134zM-37 -258l37 169h170l-38 -169l-77 -150h-114l76 150h-54z" />
<glyph unicode="&#x13d;" horiz-adv-x="877" d="M889 1248l-173 -282h-119l109 282h183zM44 0l266 1248h137l-236 -1116h571l-29 -132h-709z" />
<glyph unicode="&#x13e;" horiz-adv-x="400" d="M718 1248l-184 -282h-104l108 282h180zM435 1248l-265 -1248h-134l265 1248h134z" />
<glyph unicode="&#x13f;" horiz-adv-x="877" d="M44 0l266 1248h137l-236 -1116h571l-29 -132h-709zM773 779l-37 -173h-137l37 173h137z" />
<glyph unicode="&#x140;" horiz-adv-x="515" d="M435 1248l-265 -1248h-134l265 1248h134zM581 707l-37 -173h-134l37 173h134z" />
<glyph unicode="&#x141;" horiz-adv-x="897" d="M64 0l101 481l-135 -68l23 119l139 68l138 648h137l-122 -571l298 148l-24 -119l-298 -148l-91 -426h572l-29 -132h-709z" />
<glyph unicode="&#x142;" horiz-adv-x="428" d="M449 1248l-105 -489l128 62l-23 -110l-128 -63l-137 -648h-134l121 573l-127 -61l24 110l126 62l121 564h134z" />
<glyph unicode="&#x143;" horiz-adv-x="1090" d="M1115 1248l-265 -1248h-137l-317 1007l-214 -1007h-138l266 1248h137l318 -1008l213 1008h137zM773 1522h196l-228 -194h-132z" />
<glyph unicode="&#x144;" horiz-adv-x="974" d="M595 944q55 0 107.5 -17.5t94.5 -50t68 -83t26 -111.5q0 -18 -4 -46.5t-11.5 -68.5t-14 -70.5t-17.5 -81.5t-16 -73l-73 -342h-133l73 340q60 260 60 323q0 39 -16 69.5t-43 48.5t-60 27.5t-70 9.5q-106 0 -177 -59t-95 -173l-124 -586h-134l195 920h134l-20 -92 q16 24 40 44t55 36.5t71 26t84 9.5zM639 1248h193l-210 -231h-119z" />
<glyph unicode="&#x145;" horiz-adv-x="1090" d="M1115 1248l-265 -1248h-137l-317 1007l-214 -1007h-138l266 1248h137l318 -1008l213 1008h137zM308 -258l37 169h170l-37 -169l-77 -150h-114l77 150h-56z" />
<glyph unicode="&#x146;" horiz-adv-x="974" d="M595 944q55 0 107.5 -17.5t94.5 -50t68 -83t26 -111.5q0 -18 -4 -46.5t-11.5 -68.5t-14 -70.5t-17.5 -81.5t-16 -73l-73 -342h-133l73 340q60 260 60 323q0 39 -16 69.5t-43 48.5t-60 27.5t-70 9.5q-106 0 -177 -59t-95 -173l-124 -586h-134l195 920h134l-20 -92 q16 24 40 44t55 36.5t71 26t84 9.5zM257 -258l37 169h169l-38 -169l-76 -150h-114l76 150h-54z" />
<glyph unicode="&#x147;" horiz-adv-x="1090" d="M1115 1248l-265 -1248h-137l-317 1007l-214 -1007h-138l266 1248h137l318 -1008l213 1008h137zM654 1522l86 -91l124 91h185l-263 -194h-118l-182 194h168z" />
<glyph unicode="&#x148;" horiz-adv-x="974" d="M595 944q55 0 107.5 -17.5t94.5 -50t68 -83t26 -111.5q0 -18 -4 -46.5t-11.5 -68.5t-14 -70.5t-17.5 -81.5t-16 -73l-73 -342h-133l73 340q60 260 60 323q0 39 -16 69.5t-43 48.5t-60 27.5t-70 9.5q-106 0 -177 -59t-95 -173l-124 -586h-134l195 920h134l-20 -92 q16 24 40 44t55 36.5t71 26t84 9.5zM554 1017l-175 231h150l97 -127l149 127h167l-270 -231h-118z" />
<glyph unicode="&#x14a;" horiz-adv-x="1090" d="M1115 1248l-265 -1248q-18 -86 -47.5 -147t-74.5 -101.5t-106.5 -60t-142.5 -19.5h-98l29 134h89q161 0 214 194l-317 1007l-214 -1007h-138l266 1248h137l318 -1008l213 1008h137z" />
<glyph unicode="&#x14b;" horiz-adv-x="974" d="M755 663q0 39 -16 69.5t-43 48.5t-60 27.5t-70 9.5q-106 0 -177 -59t-95 -173l-124 -586h-134l195 920h134l-20 -92q16 24 40 44t55 36.5t71 26t84 9.5q55 0 107.5 -17.5t94.5 -50t68 -83t26 -111.5q0 -18 -4 -46.5t-11.5 -68.5t-14 -70.5t-17.5 -81.5t-16 -73l-95 -451 q-12 -51 -23 -83t-29.5 -61t-46 -43.5t-68.5 -23t-99 -8.5h-27l27 127h26q48 0 70.5 18.5t31.5 63.5l100 459q3 16 14 65.5t17 78t14 68.5t11.5 67.5t3.5 43.5z" />
<glyph unicode="&#x14c;" horiz-adv-x="1018" d="M901 405q-47 -212 -159.5 -317t-313.5 -105q-56 0 -106.5 11.5t-94 37t-75.5 62.5t-50 90t-18 117q0 16 0.5 26.5t1 22.5t4.5 31.5t8 40t13.5 62t18.5 84t26 119.5t35 156q47 212 159.5 317t314.5 105q70 0 131 -19.5t109 -57.5t75.5 -100.5t27.5 -141.5v-22t-0.5 -18 t-2.5 -21.5t-4 -24.5t-7 -35.5t-9.5 -45t-13.5 -63t-18 -79.5t-23.5 -104.5t-28.5 -127.5zM221 311q0 -96 57 -146.5t169 -50.5q122 0 204 74.5t114 216.5q106 476 106 530q0 64 -25 108.5t-75.5 67.5t-125.5 23q-122 0 -203.5 -75t-113.5 -216q-107 -480 -107 -532z M437 1365l26 119h531l-27 -119h-530z" />
<glyph unicode="&#x14d;" horiz-adv-x="938" d="M804 342q-40 -192 -144 -275.5t-279 -83.5q-82 0 -151 29.5t-113 90.5t-44 141q0 19 4 47.5t11.5 68t14 70.5t17.5 81.5t16 73.5q40 192 143.5 275.5t278.5 83.5q81 0 150.5 -29.5t113.5 -90.5t44 -142q0 -18 -3.5 -46t-11.5 -70t-13.5 -69t-18 -82.5t-15.5 -72.5z M398 109q106 0 177 59t95 172q4 18 10 47t11.5 52t11.5 52t10.5 53t9 47t6.5 41.5t2 30.5q0 39 -16 69.5t-43 48.5t-60 27.5t-70 9.5q-106 0 -177.5 -59.5t-95.5 -172.5q-4 -16 -10.5 -46t-11.5 -52.5t-11 -52t-10.5 -53t-8.5 -47t-6 -42t-2 -29.5q0 -52 28 -88t69.5 -51.5 t91.5 -15.5zM335 1074l23 116h531l-23 -116h-531z" />
<glyph unicode="&#x14e;" horiz-adv-x="1018" d="M901 405q-47 -212 -159.5 -317t-313.5 -105q-56 0 -106.5 11.5t-94 37t-75.5 62.5t-50 90t-18 117q0 16 0.5 26.5t1 22.5t4.5 31.5t8 40t13.5 62t18.5 84t26 119.5t35 156q47 212 159.5 317t314.5 105q70 0 131 -19.5t109 -57.5t75.5 -100.5t27.5 -141.5v-22t-0.5 -18 t-2.5 -21.5t-4 -24.5t-7 -35.5t-9.5 -45t-13.5 -63t-18 -79.5t-23.5 -104.5t-28.5 -127.5zM221 311q0 -96 57 -146.5t169 -50.5q122 0 204 74.5t114 216.5q106 476 106 530q0 64 -25 108.5t-75.5 67.5t-125.5 23q-122 0 -203.5 -75t-113.5 -216q-107 -480 -107 -532z M782 1440q35 0 63.5 23.5t34.5 58.5h120q-20 -89 -75.5 -141.5t-156.5 -52.5h-142q-61 0 -109 46t-48 112q0 11 3 36h109q-2 -6 -2 -16q0 -29 19.5 -47.5t49.5 -18.5h134z" />
<glyph unicode="&#x14f;" horiz-adv-x="938" d="M804 342q-40 -192 -144 -275.5t-279 -83.5q-82 0 -151 29.5t-113 90.5t-44 141q0 19 4 47.5t11.5 68t14 70.5t17.5 81.5t16 73.5q40 192 143.5 275.5t278.5 83.5q81 0 150.5 -29.5t113.5 -90.5t44 -142q0 -18 -3.5 -46t-11.5 -70t-13.5 -69t-18 -82.5t-15.5 -72.5z M398 109q106 0 177 59t95 172q4 18 10 47t11.5 52t11.5 52t10.5 53t9 47t6.5 41.5t2 30.5q0 39 -16 69.5t-43 48.5t-60 27.5t-70 9.5q-106 0 -177.5 -59.5t-95.5 -172.5q-4 -16 -10.5 -46t-11.5 -52.5t-11 -52t-10.5 -53t-8.5 -47t-6 -42t-2 -29.5q0 -52 28 -88t69.5 -51.5 t91.5 -15.5zM554 1017q-82 0 -134.5 52.5t-52.5 131.5q0 23 5 47h104q-4 -18 -4 -26q0 -41 30.5 -68.5t75.5 -27.5h67q47 0 88.5 35.5t52.5 86.5h114q-22 -102 -92.5 -166.5t-185.5 -64.5h-68z" />
<glyph unicode="&#x150;" horiz-adv-x="1018" d="M901 405q-47 -212 -159.5 -317t-313.5 -105q-56 0 -106.5 11.5t-94 37t-75.5 62.5t-50 90t-18 117q0 16 0.5 26.5t1 22.5t4.5 31.5t8 40t13.5 62t18.5 84t26 119.5t35 156q47 212 159.5 317t314.5 105q70 0 131 -19.5t109 -57.5t75.5 -100.5t27.5 -141.5v-22t-0.5 -18 t-2.5 -21.5t-4 -24.5t-7 -35.5t-9.5 -45t-13.5 -63t-18 -79.5t-23.5 -104.5t-28.5 -127.5zM221 311q0 -96 57 -146.5t169 -50.5q122 0 204 74.5t114 216.5q106 476 106 530q0 64 -25 108.5t-75.5 67.5t-125.5 23q-122 0 -203.5 -75t-113.5 -216q-107 -480 -107 -532z M609 1522h187l-210 -194h-123zM908 1522h188l-210 -194h-123z" />
<glyph unicode="&#x151;" horiz-adv-x="938" d="M804 342q-40 -192 -144 -275.5t-279 -83.5q-82 0 -151 29.5t-113 90.5t-44 141q0 19 4 47.5t11.5 68t14 70.5t17.5 81.5t16 73.5q40 192 143.5 275.5t278.5 83.5q81 0 150.5 -29.5t113.5 -90.5t44 -142q0 -18 -3.5 -46t-11.5 -70t-13.5 -69t-18 -82.5t-15.5 -72.5z M398 109q106 0 177 59t95 172q4 18 10 47t11.5 52t11.5 52t10.5 53t9 47t6.5 41.5t2 30.5q0 39 -16 69.5t-43 48.5t-60 27.5t-70 9.5q-106 0 -177.5 -59.5t-95.5 -172.5q-4 -16 -10.5 -46t-11.5 -52.5t-11 -52t-10.5 -53t-8.5 -47t-6 -42t-2 -29.5q0 -52 28 -88t69.5 -51.5 t91.5 -15.5zM465 1248h183l-192 -231h-111zM765 1248h183l-193 -231h-110z" />
<glyph unicode="&#x152;" horiz-adv-x="1599" d="M665 1265q87 0 153.5 -31.5t102.5 -85.5l23 100h710l-29 -133h-572l-89 -418h572l-28 -132h-571l-92 -433h571l-28 -132h-709l18 82q-50 -48 -112 -73.5t-157 -25.5q-56 0 -106.5 11.5t-94 37t-75.5 62.5t-50 90t-18 117q0 16 0.5 26.5t1 22.5t4.5 31.5t8 40t13.5 62 t18.5 84t26 119.5t35 156q47 212 159.5 317t314.5 105zM221 311q0 -96 57 -146.5t169 -50.5q122 0 204 74.5t114 216.5q106 476 106 530q0 64 -25 108.5t-75.5 67.5t-125.5 23q-122 0 -203.5 -75t-113.5 -216q-107 -480 -107 -532z" />
<glyph unicode="&#x153;" horiz-adv-x="1513" d="M967 -17q-94 0 -167 33t-107 96q-36 -43 -85.5 -72t-106.5 -43t-120 -14q-82 0 -151 29.5t-113 90.5t-44 141q0 19 4 47.5t11.5 68t14 70.5t17.5 81.5t16 73.5q40 192 143.5 275.5t278.5 83.5q90 0 162 -36t106 -101q32 47 83.5 78.5t110 45t124.5 13.5q82 0 151 -29.5 t113 -90.5t44 -142q0 -56 -43 -252h-588q-27 -135 -27 -166q0 -40 16 -70.5t43 -48.5t60 -27t70 -9q93 0 160 45.5t98 134.5h136q-45 -163 -146.5 -234.5t-263.5 -71.5zM398 109q106 0 177 59t95 172q4 18 10 47t11.5 52t11.5 52t10.5 53t9 47t6.5 41.5t2 30.5 q0 39 -16 69.5t-43 48.5t-60 27.5t-70 9.5q-106 0 -177.5 -59.5t-95.5 -172.5q-4 -16 -10.5 -46t-11.5 -52.5t-11 -52t-10.5 -53t-8.5 -47t-6 -42t-2 -29.5q0 -52 28 -88t69.5 -51.5t91.5 -15.5zM1301 551q15 86 15 112q0 32 -10.5 58t-28.5 43.5t-42 30t-51 18t-56 5.5 q-79 0 -138 -32.5t-94.5 -92t-47.5 -142.5h453z" />
<glyph unicode="&#x154;" horiz-adv-x="1018" d="M515 566h-214l-119 -566h-138l266 1248h403q77 0 139 -25.5t100 -68t58 -95t20 -109.5q0 -39 -8.5 -79t-26.5 -82.5t-48 -80.5t-70 -68.5t-96.5 -50t-122.5 -23.5l211 -566h-142zM330 695h315q107 0 175.5 71t68.5 176q0 53 -21.5 92t-64.5 60t-103 21h-282zM702 1522 h196l-228 -194h-132z" />
<glyph unicode="&#x155;" horiz-adv-x="582" d="M626 809h-61q-106 0 -177.5 -59t-95.5 -172l-122 -578h-134l195 920h134l-21 -100q21 31 55 56.5t85 42t109 16.5h59zM488 1248h192l-209 -231h-120z" />
<glyph unicode="&#x156;" horiz-adv-x="1018" d="M515 566h-214l-119 -566h-138l266 1248h403q77 0 139 -25.5t100 -68t58 -95t20 -109.5q0 -39 -8.5 -79t-26.5 -82.5t-48 -80.5t-70 -68.5t-96.5 -50t-122.5 -23.5l211 -566h-142zM330 695h315q107 0 175.5 71t68.5 176q0 53 -21.5 92t-64.5 60t-103 21h-282zM289 -258 l37 169h169l-37 -169l-77 -150h-114l77 150h-55z" />
<glyph unicode="&#x157;" horiz-adv-x="582" d="M626 809h-61q-106 0 -177.5 -59t-95.5 -172l-122 -578h-134l195 920h134l-21 -100q21 31 55 56.5t85 42t109 16.5h59zM-39 -258l37 169h170l-38 -169l-77 -150h-114l77 150h-55z" />
<glyph unicode="&#x158;" horiz-adv-x="1018" d="M515 566h-214l-119 -566h-138l266 1248h403q77 0 139 -25.5t100 -68t58 -95t20 -109.5q0 -39 -8.5 -79t-26.5 -82.5t-48 -80.5t-70 -68.5t-96.5 -50t-122.5 -23.5l211 -566h-142zM330 695h315q107 0 175.5 71t68.5 176q0 53 -21.5 92t-64.5 60t-103 21h-282zM593 1522 l86 -91l125 91h185l-263 -194h-119l-182 194h168z" />
<glyph unicode="&#x159;" horiz-adv-x="582" d="M626 809h-61q-106 0 -177.5 -59t-95.5 -172l-122 -578h-134l195 920h134l-21 -100q21 31 55 56.5t85 42t109 16.5h59zM403 1017l-175 231h150l96 -127l150 127h167l-271 -231h-117z" />
<glyph unicode="&#x15a;" horiz-adv-x="920" d="M823 345q0 -75 -23.5 -139t-70.5 -115t-125.5 -79.5t-181.5 -28.5q-57 0 -111.5 13t-104 41.5t-86.5 69t-59 98t-22 125.5q0 28 2 39h139q-2 -14 -2 -27q0 -110 71 -169t184 -59q118 0 185.5 59t67.5 158q0 33 -5.5 59t-19 54t-41.5 50t-69 38l-145 56q-233 91 -233 319 q0 162 101.5 260t281.5 98q96 0 173 -34t126 -105.5t52 -170.5q0 -23 -2 -35h-137q2 14 2 22q0 86 -59 139t-160 53q-76 0 -131 -29t-82.5 -77t-27.5 -108q0 -77 35 -126t107 -76l145 -55q226 -86 226 -318zM675 1522h196l-228 -194h-131z" />
<glyph unicode="&#x15b;" horiz-adv-x="838" d="M782 651h-134v12q0 74 -52.5 114.5t-126.5 40.5q-47 0 -87.5 -14.5t-68.5 -47.5t-28 -79q0 -98 103 -128l120 -36q98 -29 154.5 -87.5t56.5 -141.5q0 -140 -87.5 -220.5t-257.5 -80.5q-65 0 -124.5 17.5t-108.5 51t-78 89t-29 124.5q0 20 2 29h134v-18q0 -56 31.5 -95 t80.5 -55.5t110 -16.5q34 0 66 7.5t61.5 23.5t47.5 46.5t18 70.5q0 98 -122 135l-119 36q-90 26 -142 86.5t-52 146.5q0 127 85.5 205t243.5 78q134 0 219.5 -74.5t85.5 -189.5q0 -15 -2 -29zM565 1248h192l-210 -231h-119z" />
<glyph unicode="&#x15c;" horiz-adv-x="920" d="M823 345q0 -75 -23.5 -139t-70.5 -115t-125.5 -79.5t-181.5 -28.5q-57 0 -111.5 13t-104 41.5t-86.5 69t-59 98t-22 125.5q0 28 2 39h139q-2 -14 -2 -27q0 -110 71 -169t184 -59q118 0 185.5 59t67.5 158q0 33 -5.5 59t-19 54t-41.5 50t-69 38l-145 56q-233 91 -233 319 q0 162 101.5 260t281.5 98q96 0 173 -34t126 -105.5t52 -170.5q0 -23 -2 -35h-137q2 14 2 22q0 86 -59 139t-160 53q-76 0 -131 -29t-82.5 -77t-27.5 -108q0 -77 35 -126t107 -76l145 -55q226 -86 226 -318zM745 1328l-86 90l-125 -90h-185l264 194h118l182 -194h-168z" />
<glyph unicode="&#x15d;" horiz-adv-x="838" d="M782 651h-134v12q0 74 -52.5 114.5t-126.5 40.5q-47 0 -87.5 -14.5t-68.5 -47.5t-28 -79q0 -98 103 -128l120 -36q98 -29 154.5 -87.5t56.5 -141.5q0 -140 -87.5 -220.5t-257.5 -80.5q-65 0 -124.5 17.5t-108.5 51t-78 89t-29 124.5q0 20 2 29h134v-18q0 -56 31.5 -95 t80.5 -55.5t110 -16.5q34 0 66 7.5t61.5 23.5t47.5 46.5t18 70.5q0 98 -122 135l-119 36q-90 26 -142 86.5t-52 146.5q0 127 85.5 205t243.5 78q134 0 219.5 -74.5t85.5 -189.5q0 -15 -2 -29zM643 1248l175 -231h-150l-96 127l-150 -127h-167l270 231h118z" />
<glyph unicode="&#x15e;" horiz-adv-x="920" d="M257 -282l110 268q-65 8 -122.5 33t-104 66.5t-74 104.5t-27.5 140q0 28 2 39h139q-2 -14 -2 -27q0 -110 71 -169t184 -59q118 0 185.5 59t67.5 158q0 33 -5.5 59t-19 54t-41.5 50t-69 38l-145 56q-233 91 -233 319q0 162 101.5 260t281.5 98q96 0 173 -34t126 -105.5 t52 -170.5q0 -23 -2 -35h-137q2 14 2 22q0 86 -59 139t-160 53q-76 0 -131 -29t-82.5 -77t-27.5 -108q0 -77 35 -126t107 -76l145 -55q226 -86 226 -318q0 -68 -19 -127t-57.5 -107.5t-101.5 -80.5t-146 -42l-64 -270h-178z" />
<glyph unicode="&#x15f;" horiz-adv-x="838" d="M192 -282l119 270q-55 7 -104 27.5t-88 54t-62 84t-23 111.5q0 20 2 29h134v-18q0 -56 31.5 -95t80.5 -55.5t110 -16.5q34 0 66 7.5t61.5 23.5t47.5 46.5t18 70.5q0 98 -122 135l-119 36q-90 26 -142 86.5t-52 146.5q0 127 85.5 205t243.5 78q134 0 219.5 -74.5 t85.5 -189.5q0 -15 -2 -29h-134v12q0 74 -52.5 114.5t-126.5 40.5q-47 0 -87.5 -14.5t-68.5 -47.5t-28 -79q0 -98 103 -128l120 -36q98 -29 154.5 -87.5t56.5 -141.5q0 -128 -72.5 -206.5t-214.5 -91.5l-65 -268h-175z" />
<glyph unicode="&#x160;" horiz-adv-x="920" d="M823 345q0 -75 -23.5 -139t-70.5 -115t-125.5 -79.5t-181.5 -28.5q-57 0 -111.5 13t-104 41.5t-86.5 69t-59 98t-22 125.5q0 28 2 39h139q-2 -14 -2 -27q0 -110 71 -169t184 -59q118 0 185.5 59t67.5 158q0 33 -5.5 59t-19 54t-41.5 50t-69 38l-145 56q-233 91 -233 319 q0 162 101.5 260t281.5 98q96 0 173 -34t126 -105.5t52 -170.5q0 -23 -2 -35h-137q2 14 2 22q0 86 -59 139t-160 53q-76 0 -131 -29t-82.5 -77t-27.5 -108q0 -77 35 -126t107 -76l145 -55q226 -86 226 -318zM556 1522l85 -91l125 91h186l-264 -194h-118l-182 194h168z" />
<glyph unicode="&#x161;" horiz-adv-x="838" d="M782 651h-134v12q0 74 -52.5 114.5t-126.5 40.5q-47 0 -87.5 -14.5t-68.5 -47.5t-28 -79q0 -98 103 -128l120 -36q98 -29 154.5 -87.5t56.5 -141.5q0 -140 -87.5 -220.5t-257.5 -80.5q-65 0 -124.5 17.5t-108.5 51t-78 89t-29 124.5q0 20 2 29h134v-18q0 -56 31.5 -95 t80.5 -55.5t110 -16.5q34 0 66 7.5t61.5 23.5t47.5 46.5t18 70.5q0 98 -122 135l-119 36q-90 26 -142 86.5t-52 146.5q0 127 85.5 205t243.5 78q134 0 219.5 -74.5t85.5 -189.5q0 -15 -2 -29zM478 1017l-175 231h149l97 -127l150 127h167l-271 -231h-117z" />
<glyph unicode="&#x162;" horiz-adv-x="852" d="M497 1115h-333l28 133h804l-29 -133h-333l-236 -1115h-138zM189 -258l37 169h170l-38 -169l-76 -150h-114l76 150h-55z" />
<glyph unicode="&#x163;" horiz-adv-x="607" d="M607 793h-226q-32 -151 -74 -350q-56 -259 -56 -268q0 -49 74 -49h142l-27 -126h-142q-87 0 -132 41t-45 114q0 32 15 109.5t76 361.5q23 105 36 167h-131l27 127h130l45 208h133l-44 -208h226zM119 -258l38 169h169l-37 -169l-77 -150h-114l77 150h-56z" />
<glyph unicode="&#x164;" horiz-adv-x="852" d="M497 1115h-333l28 133h804l-29 -133h-333l-236 -1115h-138zM538 1522l86 -91l124 91h186l-264 -194h-118l-181 194h167z" />
<glyph unicode="&#x165;" horiz-adv-x="607" d="M780 1248l-156 -231h-105l81 231h180zM607 793h-226q-32 -151 -74 -350q-56 -259 -56 -268q0 -49 74 -49h142l-27 -126h-142q-87 0 -132 41t-45 114q0 32 15 109.5t76 361.5q23 105 36 167h-131l27 127h130l45 208h133l-44 -208h226z" />
<glyph unicode="&#x166;" horiz-adv-x="852" d="M497 1115h-333l28 133h804l-29 -133h-333l-94 -442h208l-19 -97h-210l-121 -576h-138l121 576h-206l19 97h209z" />
<glyph unicode="&#x167;" horiz-adv-x="607" d="M607 793h-226l-50 -228h237l-19 -94h-238q-27 -130 -41 -197t-16.5 -80.5t-2.5 -18.5q0 -49 74 -49h142l-27 -126h-142q-87 0 -132 41t-45 114q0 50 57 316h-119l19 94h119l51 228h-131l27 127h130l45 208h133l-44 -208h226z" />
<glyph unicode="&#x168;" horiz-adv-x="1057" d="M238 311q0 -96 57.5 -146.5t169.5 -50.5q122 0 204.5 75t112.5 216l185 843h138l-185 -843q-47 -212 -160 -317t-315 -105q-70 0 -131 19t-109 57t-75.5 100t-27.5 142q0 22 9.5 77.5t30.5 156.5t41 191t55.5 252t59.5 270h137q-197 -883 -197 -937zM638 1518 q52 0 98 -25l53 -29q28 -14 47 -14q23 0 41.5 16.5t27.5 48.5h116q-16 -80 -66.5 -131t-116.5 -51q-52 0 -98 25l-54 28q-30 15 -47 15q-23 0 -41.5 -16.5t-27.5 -48.5h-116q17 80 67.5 131t116.5 51z" />
<glyph unicode="&#x169;" horiz-adv-x="963" d="M378 -17q-54 0 -105.5 17.5t-93.5 49.5t-68 83t-26 111q0 16 3 40.5t7.5 49.5t11.5 60.5t13 62.5t14.5 66.5t13.5 61.5l71 335h134l-71 -334q-4 -19 -14.5 -65t-17 -77t-14 -69.5t-11.5 -66.5t-4 -44q0 -76 54 -115.5t130 -39.5q103 0 173 59.5t94 171.5l122 580h134 l-195 -920h-134l21 98q-33 -48 -97.5 -81.5t-144.5 -33.5zM438 1044h-103q16 80 67 131t117 51q52 0 98 -25l53 -30q26 -17 56 -17q15 0 30 9t26.5 24.5t16.5 34.5h102q-16 -80 -66.5 -130.5t-116.5 -50.5q-51 0 -98 25l-54 30q-25 16 -54 16q-24 0 -45.5 -19.5t-28.5 -48.5 z" />
<glyph unicode="&#x16a;" horiz-adv-x="1057" d="M238 311q0 -96 57.5 -146.5t169.5 -50.5q122 0 204.5 75t112.5 216l185 843h138l-185 -843q-47 -212 -160 -317t-315 -105q-70 0 -131 19t-109 57t-75.5 100t-27.5 142q0 22 9.5 77.5t30.5 156.5t41 191t55.5 252t59.5 270h137q-197 -883 -197 -937zM459 1365l27 119h531 l-26 -119h-532z" />
<glyph unicode="&#x16b;" horiz-adv-x="963" d="M378 -17q-54 0 -105.5 17.5t-93.5 49.5t-68 83t-26 111q0 16 3 40.5t7.5 49.5t11.5 60.5t13 62.5t14.5 66.5t13.5 61.5l71 335h134l-71 -334q-4 -19 -14.5 -65t-17 -77t-14 -69.5t-11.5 -66.5t-4 -44q0 -76 54 -115.5t130 -39.5q103 0 173 59.5t94 171.5l122 580h134 l-195 -920h-134l21 98q-33 -48 -97.5 -81.5t-144.5 -33.5zM342 1074l23 116h531l-23 -116h-531z" />
<glyph unicode="&#x16c;" horiz-adv-x="1057" d="M238 311q0 -96 57.5 -146.5t169.5 -50.5q122 0 204.5 75t112.5 216l185 843h138l-185 -843q-47 -212 -160 -317t-315 -105q-70 0 -131 19t-109 57t-75.5 100t-27.5 142q0 22 9.5 77.5t30.5 156.5t41 191t55.5 252t59.5 270h137q-197 -883 -197 -937zM804 1440 q23 0 43.5 10.5t35 29.5t18.5 42h120q-7 -34 -19 -62t-31.5 -53t-44.5 -42t-60 -27t-77 -10h-143q-60 0 -108 46t-48 112q0 11 3 36h109q-2 -6 -2 -16q0 -29 19.5 -47.5t50.5 -18.5h134z" />
<glyph unicode="&#x16d;" horiz-adv-x="963" d="M378 -17q-54 0 -105.5 17.5t-93.5 49.5t-68 83t-26 111q0 16 3 40.5t7.5 49.5t11.5 60.5t13 62.5t14.5 66.5t13.5 61.5l71 335h134l-71 -334q-4 -19 -14.5 -65t-17 -77t-14 -69.5t-11.5 -66.5t-4 -44q0 -76 54 -115.5t130 -39.5q103 0 173 59.5t94 171.5l122 580h134 l-195 -920h-134l21 98q-33 -48 -97.5 -81.5t-144.5 -33.5zM561 1017q-82 0 -134.5 52.5t-52.5 131.5q0 23 5 47h104q-4 -18 -4 -26q0 -16 5.5 -31t15 -26.5t22.5 -20.5t29 -13.5t34 -4.5h67q48 0 89 35.5t52 86.5h114q-22 -102 -92.5 -166.5t-185.5 -64.5h-68z" />
<glyph unicode="&#x16e;" horiz-adv-x="1057" d="M238 311q0 -96 57.5 -146.5t169.5 -50.5q122 0 204.5 75t112.5 216l185 843h138l-185 -843q-47 -212 -160 -317t-315 -105q-70 0 -131 19t-109 57t-75.5 100t-27.5 142q0 22 9.5 77.5t30.5 156.5t41 191t55.5 252t59.5 270h137q-197 -883 -197 -937zM590 1423 q0 55 38.5 94.5t92.5 39.5q36 0 67 -18t49 -49t18 -67t-18 -66t-49 -47.5t-67 -17.5q-55 0 -93 38.5t-38 92.5zM675 1423q0 -19 13.5 -32.5t32.5 -13.5t33 13.5t14 32.5t-14 33t-33 14t-32.5 -14t-13.5 -33z" />
<glyph unicode="&#x16f;" horiz-adv-x="963" d="M378 -17q-54 0 -105.5 17.5t-93.5 49.5t-68 83t-26 111q0 16 3 40.5t7.5 49.5t11.5 60.5t13 62.5t14.5 66.5t13.5 61.5l71 335h134l-71 -334q-4 -19 -14.5 -65t-17 -77t-14 -69.5t-11.5 -66.5t-4 -44q0 -76 54 -115.5t130 -39.5q103 0 173 59.5t94 171.5l122 580h134 l-195 -920h-134l21 98q-33 -48 -97.5 -81.5t-144.5 -33.5zM551 1131q0 -20 14.5 -35t35 -15t35.5 15t15 35t-15 35t-36 15q-13 0 -24.5 -6.5t-18 -18.5t-6.5 -25zM469 1131q0 27 10.5 51.5t28 43t41.5 29t51 10.5q55 0 94.5 -39.5t39.5 -94.5t-39.5 -93t-94.5 -38t-93 38 t-38 93z" />
<glyph unicode="&#x170;" horiz-adv-x="1057" d="M238 311q0 -96 57.5 -146.5t169.5 -50.5q122 0 204.5 75t112.5 216l185 843h138l-185 -843q-47 -212 -160 -317t-315 -105q-70 0 -131 19t-109 57t-75.5 100t-27.5 142q0 22 9.5 77.5t30.5 156.5t41 191t55.5 252t59.5 270h137q-197 -883 -197 -937zM619 1522h187 l-211 -194h-123zM918 1522h187l-211 -194h-122z" />
<glyph unicode="&#x171;" horiz-adv-x="963" d="M378 -17q-54 0 -105.5 17.5t-93.5 49.5t-68 83t-26 111q0 16 3 40.5t7.5 49.5t11.5 60.5t13 62.5t14.5 66.5t13.5 61.5l71 335h134l-71 -334q-4 -19 -14.5 -65t-17 -77t-14 -69.5t-11.5 -66.5t-4 -44q0 -76 54 -115.5t130 -39.5q103 0 173 59.5t94 171.5l122 580h134 l-195 -920h-134l21 98q-33 -48 -97.5 -81.5t-144.5 -33.5zM467 1248h184l-193 -231h-111zM766 1248h184l-193 -231h-111z" />
<glyph unicode="&#x172;" horiz-adv-x="1057" d="M238 311q0 -96 57.5 -146.5t169.5 -50.5q122 0 204.5 75t112.5 216l185 843h138l-185 -843q-32 -139 -90 -231t-150 -142q-31 -17 -52.5 -29.5t-59 -38t-61 -47.5t-42 -51t-18.5 -55q0 -35 45 -35q43 0 98 30l-24 -110q-51 -33 -112 -33q-62 0 -106.5 33t-44.5 92 q0 63 41.5 113.5t106.5 81.5q-74 0 -136.5 19t-110.5 57t-75 100t-27 142q0 22 9.5 77.5t30.5 156.5t41 191t55.5 252t59.5 270h137q-197 -883 -197 -937z" />
<glyph unicode="&#x173;" horiz-adv-x="963" d="M378 -17q-54 0 -105.5 17.5t-93.5 49.5t-68 83t-26 111q0 16 3 40.5t7.5 49.5t11.5 60.5t13 62.5t14.5 66.5t13.5 61.5l71 335h134l-71 -334q-4 -19 -14.5 -65t-17 -77t-14 -69.5t-11.5 -66.5t-4 -44q0 -76 54 -115.5t130 -39.5q103 0 173 59.5t94 171.5l122 580h134 l-195 -920q-5 -3 -31 -18.5t-41 -25t-39.5 -28.5t-38.5 -34t-25 -35.5t-11 -40.5q0 -10 3 -19t9 -15t13.5 -9t17.5 -3q41 0 100 31l-24 -107q-52 -33 -119 -33q-38 0 -68.5 14.5t-49.5 43t-19 67.5q0 145 189 212l21 98q-33 -48 -97.5 -81.5t-144.5 -33.5z" />
<glyph unicode="&#x174;" horiz-adv-x="1291" d="M786 0l-55 840l-420 -840h-131l36 1248h131l-29 -968l393 789h129l49 -789l381 968h143l-495 -1248h-132zM944 1328l-85 90l-125 -90h-185l264 194h117l182 -194h-168z" />
<glyph unicode="&#x175;" horiz-adv-x="1218" d="M775 920l45 -717l336 717h138l-437 -920h-139l-46 733l-364 -733h-138l-49 920h129l32 -699l345 699h148zM836 1248l174 -231h-150l-95 127l-150 -127h-168l271 231h118z" />
<glyph unicode="&#x176;" horiz-adv-x="970" d="M561 495l-105 -495h-137l105 497l-251 751h133l206 -617l468 617h154zM782 1328l-85 90l-125 -90h-186l265 194h117l182 -194h-168z" />
<glyph unicode="&#x177;" horiz-adv-x="831" d="M175 -146l73 129l-141 937h130l110 -762l428 762h145l-660 -1153q-30 -52 -81.5 -73t-141.5 -22h-51l26 127h68q27 0 46 7.5t29 18.5t20 29zM641 1248l175 -231h-150l-96 127l-150 -127h-167l271 231h117z" />
<glyph unicode="&#x178;" horiz-adv-x="970" d="M561 495l-105 -495h-137l105 497l-251 751h133l206 -617l468 617h154zM955 1511l-37 -173h-138l38 173h137zM604 1511l-38 -173h-136l37 173h137z" />
<glyph unicode="&#x179;" horiz-adv-x="956" d="M787 0h-812l28 132l844 983h-628l29 133h796l-29 -133l-842 -983h643zM707 1522h196l-228 -194h-131z" />
<glyph unicode="&#x17a;" horiz-adv-x="829" d="M823 793l-646 -667h518l-27 -126h-691l26 126l648 667h-496l27 127h668zM563 1248h192l-210 -231h-120z" />
<glyph unicode="&#x17b;" horiz-adv-x="956" d="M787 0h-812l28 132l844 983h-628l29 133h796l-29 -133l-842 -983h643zM772 1511l-38 -173h-137l37 173h138z" />
<glyph unicode="&#x17c;" horiz-adv-x="829" d="M823 793l-646 -667h518l-27 -126h-691l26 126l648 667h-496l27 127h668zM648 1219l-37 -173h-133l37 173h133z" />
<glyph unicode="&#x17d;" horiz-adv-x="956" d="M787 0h-812l28 132l844 983h-628l29 133h796l-29 -133l-842 -983h643zM590 1522l85 -91l125 91h186l-265 -194h-117l-182 194h168z" />
<glyph unicode="&#x17e;" horiz-adv-x="829" d="M823 793l-646 -667h518l-27 -126h-691l26 126l648 667h-496l27 127h668zM478 1017l-175 231h149l97 -127l150 127h167l-271 -231h-117z" />
<glyph unicode="&#x218;" horiz-adv-x="920" d="M823 345q0 -75 -23.5 -139t-70.5 -115t-125.5 -79.5t-181.5 -28.5q-57 0 -111.5 13t-104 41.5t-86.5 69t-59 98t-22 125.5q0 28 2 39h139q-2 -14 -2 -27q0 -110 71 -169t184 -59q118 0 185.5 59t67.5 158q0 33 -5.5 59t-19 54t-41.5 50t-69 38l-145 56q-233 91 -233 319 q0 162 101.5 260t281.5 98q96 0 173 -34t126 -105.5t52 -170.5q0 -23 -2 -35h-137q2 14 2 22q0 86 -59 139t-160 53q-76 0 -131 -29t-82.5 -77t-27.5 -108q0 -77 35 -126t107 -76l145 -55q226 -86 226 -318zM244 -258l38 169h169l-38 -169l-76 -150h-114l76 150h-55z" />
<glyph unicode="&#x219;" horiz-adv-x="838" d="M782 651h-134v12q0 74 -52.5 114.5t-126.5 40.5q-47 0 -87.5 -14.5t-68.5 -47.5t-28 -79q0 -98 103 -128l120 -36q98 -29 154.5 -87.5t56.5 -141.5q0 -140 -87.5 -220.5t-257.5 -80.5q-65 0 -124.5 17.5t-108.5 51t-78 89t-29 124.5q0 20 2 29h134v-18q0 -56 31.5 -95 t80.5 -55.5t110 -16.5q34 0 66 7.5t61.5 23.5t47.5 46.5t18 70.5q0 98 -122 135l-119 36q-90 26 -142 86.5t-52 146.5q0 127 85.5 205t243.5 78q134 0 219.5 -74.5t85.5 -189.5q0 -15 -2 -29zM216 -258l37 169h169l-37 -169l-77 -150h-114l77 150h-55z" />
<glyph unicode="&#x21a;" horiz-adv-x="852" d="M497 1115h-333l28 133h804l-29 -133h-333l-236 -1115h-138zM189 -258l37 169h170l-38 -169l-76 -150h-114l76 150h-55z" />
<glyph unicode="&#x21b;" horiz-adv-x="607" d="M607 793h-226q-32 -151 -74 -350q-56 -259 -56 -268q0 -49 74 -49h142l-27 -126h-142q-87 0 -132 41t-45 114q0 32 15 109.5t76 361.5q23 105 36 167h-131l27 127h130l45 208h133l-44 -208h226zM119 -258l38 169h169l-37 -169l-77 -150h-114l77 150h-56z" />
<glyph unicode="&#x232;" horiz-adv-x="970" d="M561 495l-105 -495h-137l105 497l-251 751h133l206 -617l468 617h154zM412 1365l26 119h531l-27 -119h-530z" />
<glyph unicode="&#x233;" horiz-adv-x="831" d="M175 -146l73 129l-141 937h130l110 -762l428 762h145l-660 -1153q-30 -52 -81.5 -73t-141.5 -22h-51l26 127h68q27 0 46 7.5t29 18.5t20 29zM280 1074l23 116h530l-22 -116h-531z" />
<glyph unicode="&#x237;" horiz-adv-x="400" d="M10 -119l221 1039h134l-217 -1029q-11 -51 -22 -83t-30 -61t-46.5 -43.5t-68 -23t-98.5 -8.5h-27l27 129h27q47 0 69 17.5t31 62.5z" />
<glyph unicode="&#x2c6;" horiz-adv-x="769" d="M609 1248l175 -231h-150l-96 127l-150 -127h-167l271 231h117z" />
<glyph unicode="&#x2c7;" horiz-adv-x="769" d="M444 1017l-175 231h149l97 -127l150 127h167l-271 -231h-117z" />
<glyph unicode="&#x2d8;" horiz-adv-x="701" d="M435 1017q-82 0 -134.5 52.5t-52.5 131.5q0 23 5 47h104q-4 -18 -4 -26q0 -41 30 -68.5t75 -27.5h67q48 0 89.5 35.5t51.5 86.5h114q-21 -102 -91.5 -166.5t-185.5 -64.5h-68z" />
<glyph unicode="&#x2d9;" horiz-adv-x="325" d="M391 1219l-38 -173h-134l38 173h134z" />
<glyph unicode="&#x2da;" horiz-adv-x="435" d="M310 1131q0 -10 4 -19t11 -16t16 -11t19 -4q20 0 35 15t15 35t-15 35t-35 15t-35 -15t-15 -35zM228 1131q0 36 17.5 67t48 49t66.5 18t67 -18t48.5 -49t17.5 -67q0 -55 -39 -93t-94 -38t-93.5 38t-38.5 93z" />
<glyph unicode="&#x2db;" horiz-adv-x="430" d="M244 0q-6 -4 -22 -13.5t-28.5 -17t-30 -19.5t-31 -22.5t-28 -24.5t-24 -26.5t-15.5 -28t-6 -30.5q0 -21 12 -33.5t31 -12.5q40 0 99 31l-23 -107q-52 -33 -119 -33q-58 0 -97.5 33.5t-39.5 91.5q0 145 188 212h134z" />
<glyph unicode="&#x2dc;" horiz-adv-x="783" d="M459 1044h-102q16 80 66.5 131t116.5 51q51 0 98 -25l54 -30q26 -17 54 -17q16 0 31 9t26.5 24.5t16.5 34.5h103q-16 -80 -67 -130.5t-116 -50.5q-53 0 -99 25l-53 30q-25 16 -56 16q-15 0 -30 -8.5t-26.5 -24.5t-16.5 -35z" />
<glyph unicode="&#x2dd;" horiz-adv-x="813" d="M379 1248h184l-192 -231h-111zM679 1248h183l-192 -231h-111z" />
<glyph unicode="&#x32c;" horiz-adv-x="769" d="M150 -230l-175 230h149l97 -126l150 126h167l-271 -230h-117z" />
<glyph unicode="&#x394;" horiz-adv-x="1008" d="M948 0h-958l401 1248h156zM765 136l-296 920l-298 -920h594z" />
<glyph unicode="&#x3a9;" horiz-adv-x="1003" d="M860 935q0 97 -56.5 148t-169.5 51q-121 0 -203 -75t-113 -216q-8 -34 -18.5 -81.5t-16 -73.5t-12.5 -59.5t-11 -52.5t-7.5 -40t-5 -34t-1.5 -23q0 -150 130 -185l-63 -294h-284l28 132h152l17 86q-54 35 -85.5 100.5t-31.5 150.5q0 27 6.5 69t14 78t24 108.5t26.5 118.5 q47 212 160 317t314 105q71 0 132 -19.5t109 -57.5t75.5 -100.5t27.5 -141.5q0 -22 -4 -53.5t-13.5 -77t-16 -76.5t-20 -89.5t-17.5 -77.5q-22 -98 -55.5 -170.5t-84 -127t-119.5 -83.5l-12 -59h151l-28 -132h-287l60 291q60 14 107 50.5t80 95t50 135.5q9 43 24 110.5 t21 96.5t13.5 66.5t10 57t2.5 32.5z" />
<glyph unicode="&#x3bc;" horiz-adv-x="976" d="M365 920l-71 -334q-4 -19 -14 -65t-17 -77t-14.5 -69.5t-11.5 -66.5t-4 -44q0 -76 54 -115.5t130 -39.5q68 0 122 26t91.5 78t53.5 127l123 580h133l-195 -920h-134l21 98q-39 -55 -104 -85t-130 -30q-64 0 -124.5 32.5t-82.5 89.5l-91 -433h-134l265 1248h134z" />
<glyph unicode="&#x3c0;" horiz-adv-x="1079" d="M251 793h-130l27 127h980l-27 -127h-130l-167 -793h-134l168 793h-453l-167 -793h-134z" />
<glyph unicode="&#x1e80;" horiz-adv-x="1291" d="M786 0l-55 840l-420 -840h-131l36 1248h131l-29 -968l393 789h129l49 -789l381 968h143l-495 -1248h-132zM611 1522h183l124 -194h-119z" />
<glyph unicode="&#x1e81;" horiz-adv-x="1218" d="M775 920l45 -717l336 717h138l-437 -920h-139l-46 733l-364 -733h-138l-49 920h129l32 -699l345 699h148zM534 1248h180l90 -231h-107z" />
<glyph unicode="&#x1e82;" horiz-adv-x="1291" d="M786 0l-55 840l-420 -840h-131l36 1248h131l-29 -968l393 789h129l49 -789l381 968h143l-495 -1248h-132zM875 1522h196l-228 -194h-132z" />
<glyph unicode="&#x1e83;" horiz-adv-x="1218" d="M775 920l45 -717l336 717h138l-437 -920h-139l-46 733l-364 -733h-138l-49 920h129l32 -699l345 699h148zM755 1248h193l-210 -231h-119z" />
<glyph unicode="&#x1e84;" horiz-adv-x="1291" d="M786 0l-55 840l-420 -840h-131l36 1248h131l-29 -968l393 789h129l49 -789l381 968h143l-495 -1248h-132zM1115 1511l-37 -173h-138l38 173h137zM765 1511l-38 -173h-137l37 173h138z" />
<glyph unicode="&#x1e85;" horiz-adv-x="1218" d="M775 920l45 -717l336 717h138l-437 -920h-139l-46 733l-364 -733h-138l-49 920h129l32 -699l345 699h148zM663 1219l-37 -173h-134l37 173h134zM1017 1219l-37 -173h-133l37 173h133z" />
<glyph unicode="&#x1eca;" horiz-adv-x="421" d="M44 0l266 1248h137l-265 -1248h-138zM162 -89l-38 -173h-136l37 173h137z" />
<glyph unicode="&#x1ecb;" horiz-adv-x="400" d="M435 1248l-37 -174h-134l37 174h134zM365 920l-195 -920h-134l195 920h134zM150 -89l-38 -173h-134l38 173h134z" />
<glyph unicode="&#x1ecc;" horiz-adv-x="1018" d="M901 405q-47 -212 -159.5 -317t-313.5 -105q-56 0 -106.5 11.5t-94 37t-75.5 62.5t-50 90t-18 117q0 16 0.5 26.5t1 22.5t4.5 31.5t8 40t13.5 62t18.5 84t26 119.5t35 156q47 212 159.5 317t314.5 105q70 0 131 -19.5t109 -57.5t75.5 -100.5t27.5 -141.5v-22t-0.5 -18 t-2.5 -21.5t-4 -24.5t-7 -35.5t-9.5 -45t-13.5 -63t-18 -79.5t-23.5 -104.5t-28.5 -127.5zM221 311q0 -96 57 -146.5t169 -50.5q122 0 204 74.5t114 216.5q106 476 106 530q0 64 -25 108.5t-75.5 67.5t-125.5 23q-122 0 -203.5 -75t-113.5 -216q-107 -480 -107 -532z M461 -89l-37 -173h-137l38 173h136z" />
<glyph unicode="&#x1ecd;" horiz-adv-x="938" d="M804 342q-40 -192 -144 -275.5t-279 -83.5q-82 0 -151 29.5t-113 90.5t-44 141q0 19 4 47.5t11.5 68t14 70.5t17.5 81.5t16 73.5q40 192 143.5 275.5t278.5 83.5q81 0 150.5 -29.5t113.5 -90.5t44 -142q0 -18 -3.5 -46t-11.5 -70t-13.5 -69t-18 -82.5t-15.5 -72.5z M398 109q106 0 177 59t95 172q4 18 10 47t11.5 52t11.5 52t10.5 53t9 47t6.5 41.5t2 30.5q0 39 -16 69.5t-43 48.5t-60 27.5t-70 9.5q-106 0 -177.5 -59.5t-95.5 -172.5q-4 -16 -10.5 -46t-11.5 -52.5t-11 -52t-10.5 -53t-8.5 -47t-6 -42t-2 -29.5q0 -52 28 -88t69.5 -51.5 t91.5 -15.5zM420 -89l-37 -173h-133l37 173h133z" />
<glyph unicode="&#x1ee4;" horiz-adv-x="1057" d="M238 311q0 -96 57.5 -146.5t169.5 -50.5q122 0 204.5 75t112.5 216l185 843h138l-185 -843q-47 -212 -160 -317t-315 -105q-70 0 -131 19t-109 57t-75.5 100t-27.5 142q0 22 9.5 77.5t30.5 156.5t41 191t55.5 252t59.5 270h137q-197 -883 -197 -937zM481 -89l-37 -173 h-138l38 173h137z" />
<glyph unicode="&#x1ee5;" horiz-adv-x="963" d="M378 -17q-54 0 -105.5 17.5t-93.5 49.5t-68 83t-26 111q0 16 3 40.5t7.5 49.5t11.5 60.5t13 62.5t14.5 66.5t13.5 61.5l71 335h134l-71 -334q-4 -19 -14.5 -65t-17 -77t-14 -69.5t-11.5 -66.5t-4 -44q0 -76 54 -115.5t130 -39.5q103 0 173 59.5t94 171.5l122 580h134 l-195 -920h-134l21 98q-33 -48 -97.5 -81.5t-144.5 -33.5zM428 -89l-37 -173h-134l37 173h134z" />
<glyph unicode="&#x1ef2;" horiz-adv-x="970" d="M561 495l-105 -495h-137l105 497l-251 751h133l206 -617l468 617h154zM454 1522h184l122 -194h-119z" />
<glyph unicode="&#x1ef3;" horiz-adv-x="831" d="M175 -146l73 129l-141 937h130l110 -762l428 762h145l-660 -1153q-30 -52 -81.5 -73t-141.5 -22h-51l26 127h68q27 0 46 7.5t29 18.5t20 29zM347 1248h180l90 -231h-107z" />
<glyph unicode="&#x2000;" horiz-adv-x="778" />
<glyph unicode="&#x2001;" horiz-adv-x="1557" />
<glyph unicode="&#x2002;" horiz-adv-x="778" />
<glyph unicode="&#x2003;" horiz-adv-x="1557" />
<glyph unicode="&#x2004;" horiz-adv-x="519" />
<glyph unicode="&#x2005;" horiz-adv-x="389" />
<glyph unicode="&#x2006;" horiz-adv-x="259" />
<glyph unicode="&#x2007;" horiz-adv-x="259" />
<glyph unicode="&#x2008;" horiz-adv-x="194" />
<glyph unicode="&#x2009;" horiz-adv-x="311" />
<glyph unicode="&#x200a;" horiz-adv-x="86" />
<glyph unicode="&#x2010;" horiz-adv-x="712" d="M611 442h-516l22 116h517z" />
<glyph unicode="&#x2011;" horiz-adv-x="712" d="M611 442h-516l22 116h517z" />
<glyph unicode="&#x2012;" horiz-adv-x="712" d="M611 442h-516l22 116h517z" />
<glyph unicode="&#x2013;" horiz-adv-x="915" d="M814 442h-719l22 116h721z" />
<glyph unicode="&#x2014;" horiz-adv-x="1448" d="M1347 442h-1252l22 116h1253z" />
<glyph unicode="&#x2018;" horiz-adv-x="428" d="M442 1080l-41 -187h-187l41 187l98 168h114l-100 -168h75z" />
<glyph unicode="&#x2019;" horiz-adv-x="428" d="M250 1061l41 187h187l-41 -187l-99 -168h-114l99 168h-73z" />
<glyph unicode="&#x201a;" horiz-adv-x="428" d="M23 0l41 187h187l-40 -187l-99 -168h-114l99 168h-74z" />
<glyph unicode="&#x201c;" horiz-adv-x="755" d="M442 1080l-41 -187h-187l41 187l98 168h114l-100 -168h75zM768 1080l-41 -187h-187l41 187l98 168h114l-100 -168h75z" />
<glyph unicode="&#x201d;" horiz-adv-x="755" d="M250 1061l41 187h187l-41 -187l-99 -168h-114l101 168h-75zM576 1061l41 187h187l-41 -187l-98 -168h-114l100 168h-75z" />
<glyph unicode="&#x201e;" horiz-adv-x="755" d="M23 0l41 187h187l-40 -187l-99 -168h-114l99 168h-74zM349 0l42 187h187l-42 -187l-98 -168h-113l97 168h-73z" />
<glyph unicode="&#x2020;" horiz-adv-x="1037" d="M952 807h-301l-204 -962h-116l203 962h-301l25 113h301l70 328h116l-70 -328h301z" />
<glyph unicode="&#x2021;" horiz-adv-x="1037" d="M818 173h-301l-70 -328h-116l70 328h-301l24 112h300l110 522h-301l25 113h301l70 328h116l-70 -328h301l-24 -113h-301l-111 -522h303z" />
<glyph unicode="&#x2022;" horiz-adv-x="1425" d="M445 531q0 124 88 211.5t212 87.5t211.5 -87.5t87.5 -211.5t-87.5 -212t-211.5 -88t-212 88t-88 212z" />
<glyph unicode="&#x2026;" horiz-adv-x="1469" d="M542 0l41 187h187l-41 -187h-187zM1032 0l41 187h187l-41 -187h-187zM51 0l41 187h188l-42 -187h-187z" />
<glyph unicode="&#x202f;" horiz-adv-x="311" />
<glyph unicode="&#x2030;" horiz-adv-x="2041" d="M1630 98q50 0 79.5 30.5t40.5 76.5q10 44 38.5 183t28.5 152q0 42 -31 64t-67 22q-49 0 -78 -30.5t-41 -76.5q-6 -26 -22.5 -103t-31 -150t-14.5 -82q0 -42 30.5 -64t67.5 -22zM1616 -10q-57 0 -102 22.5t-70.5 66t-25.5 101.5q0 16 13 83t30.5 150.5t20.5 101.5 q10 52 27.5 90t46 68t73 45.5t105.5 15.5q88 0 142 -51t54 -139q0 -16 -13 -83t-30.5 -150.5t-21.5 -101.5q-10 -52 -26.5 -90t-45 -68.5t-72.5 -45.5t-105 -15zM1148 1248h126l-857 -1248h-126zM394 622q50 0 79.5 30.5t39.5 76.5q11 44 39.5 182.5t28.5 152.5 q0 42 -31 63.5t-67 21.5q-50 0 -78.5 -30t-40.5 -77q-11 -44 -39.5 -182.5t-28.5 -152.5q0 -42 30.5 -63.5t67.5 -21.5zM379 513q-43 0 -79.5 13.5t-62.5 37.5t-40.5 60t-14.5 80q0 16 13 82.5t30.5 150.5t20.5 102q10 52 27 90t45.5 68t73 45.5t105.5 15.5q88 0 142 -51 t54 -140q0 -15 -12.5 -82t-30.5 -150.5t-21 -101.5q-10 -52 -27 -90t-45 -68.5t-72.5 -46t-105.5 -15.5zM1083 98q50 0 79.5 30.5t39.5 76.5q11 44 39.5 183t28.5 152q0 42 -30.5 64t-66.5 22q-50 0 -79 -30.5t-41 -76.5q-11 -43 -39 -182.5t-28 -152.5q0 -42 30 -64t67 -22 zM1069 -10q-88 0 -143 51t-55 139q0 16 13 83t30.5 150.5t20.5 101.5q10 52 27 90t46 68t73.5 45.5t105.5 15.5q88 0 141.5 -51t53.5 -139q0 -16 -12.5 -82.5t-30 -151.5t-20.5 -101q-10 -52 -27 -90t-45 -68.5t-72.5 -45.5t-105.5 -15z" />
<glyph unicode="&#x2039;" horiz-adv-x="514" d="M335 158l-240 262l26 132l355 262l-36 -168l-235 -172l160 -175z" />
<glyph unicode="&#x203a;" horiz-adv-x="514" d="M192 814l241 -262l-27 -132l-355 -262l36 168l236 173l-161 174z" />
<glyph unicode="&#x2044;" horiz-adv-x="180" d="M490 1248h127l-857 -1248h-127z" />
<glyph unicode="&#x205f;" horiz-adv-x="389" />
<glyph unicode="&#x2070;" horiz-adv-x="573" d="M358 704q-88 0 -143 51t-55 139q0 16 13 83t30.5 150.5t20.5 101.5q10 52 27.5 90t46 68.5t73 46t105.5 15.5q88 0 142 -51.5t54 -139.5q0 -16 -13 -82.5t-30.5 -150.5t-21.5 -102q-10 -52 -26.5 -90t-45 -68t-72.5 -45.5t-105 -15.5zM372 813q50 0 79.5 30t40.5 77 q1 4 44 208l-260 -214q-2 -7 -2 -16q0 -42 30.5 -63.5t67.5 -21.5zM342 1233q-24 -98 -44 -208l260 213q0 4 0.5 10t0.5 7q0 41 -31 63t-67 22q-49 0 -78 -30t-41 -77z" />
<glyph unicode="&#x2074;" horiz-adv-x="548" d="M385 714l37 177h-317l21 105l412 442h116l-95 -442h77l-23 -105h-75l-38 -177h-115zM282 996h162l49 226z" />
<glyph unicode="&#x2075;" horiz-adv-x="557" d="M362 704q-88 0 -143 51t-55 139q0 6 4 27h114l-2 -10t-1.5 -8.5t-0.5 -4.5q0 -42 30.5 -63.5t67.5 -21.5q49 0 78 29.5t39 75.5q2 11 6 27.5t5.5 25.5t1.5 16q0 43 -30.5 64.5t-67.5 21.5t-64 -17.5t-38 -45.5h-119l93 428h413l-25 -109h-297l-36 -175q12 11 38 20t57 9 q54 0 97 -23t68 -66.5t25 -100.5q0 -23 -9 -70q-10 -52 -26.5 -90t-45 -68t-73 -45.5t-104.5 -15.5z" />
<glyph unicode="&#x2076;" horiz-adv-x="562" d="M358 704q-88 0 -143 51t-55 139q0 16 13 83t30.5 150.5t20.5 101.5q10 52 27.5 90t46 68.5t73 46t105.5 15.5q88 0 142 -51.5t54 -139.5q0 -15 -2 -27h-114q1 5 1.5 11t1 9t0.5 4q0 41 -31 63t-67 22q-50 0 -79.5 -30.5t-39.5 -76.5l-19 -91q41 32 101 32q56 0 99 -22 t67.5 -65.5t24.5 -100.5q0 -27 -8 -63q-17 -107 -74 -163t-175 -56zM372 813q50 0 79 30t41 77q8 38 8 60q0 43 -30 64.5t-67 21.5q-49 0 -78 -30t-40 -76q-11 -44 -11 -62q0 -42 30.5 -63.5t67.5 -21.5z" />
<glyph unicode="&#x2077;" horiz-adv-x="482" d="M162 714l351 615h-316l24 109h445l-25 -109l-350 -615h-129z" />
<glyph unicode="&#x2078;" horiz-adv-x="568" d="M362 704q-95 0 -153 53.5t-58 140.5q0 147 114 202q-42 50 -42 128q0 22 4.5 46.5t19.5 57t39.5 57.5t70 42.5t104.5 17.5q93 0 152 -54t59 -144q0 -15 -2.5 -32t-9.5 -40t-18.5 -43.5t-31.5 -41.5t-45 -35q42 -51 42 -125q0 -112 -66 -171t-179 -59zM378 813 q48 0 81.5 32.5t33.5 81.5q0 27 -10.5 50t-36.5 38t-63 15q-49 0 -83.5 -32.5t-34.5 -79.5q0 -28 11.5 -51t37.5 -38.5t64 -15.5zM449 1126q30 0 55 14t39.5 39t14.5 54q0 52 -31.5 79.5t-81.5 27.5q-45 0 -76.5 -31.5t-31.5 -75.5q0 -53 31 -80t81 -27z" />
<glyph unicode="&#x2079;" horiz-adv-x="562" d="M347 704q-43 0 -79 13t-62 37t-40.5 60t-14.5 80q0 15 2 27h114q-2 -12 -2 -23q0 -42 30.5 -63.5t68.5 -21.5q49 0 78 30t39 77q18 71 22 90q-45 -32 -104 -32q-84 0 -137 51t-53 138q0 19 7 62q17 107 74.5 163.5t176.5 56.5q88 0 142 -51.5t54 -139.5q0 -12 -8.5 -59 t-19 -97t-22 -105.5t-14.5 -73.5q-8 -41 -20 -73t-31.5 -60.5t-46.5 -46.5t-66 -28.5t-88 -10.5zM420 1087q50 0 78.5 29.5t39.5 75.5q11 44 11 63q0 41 -30.5 63t-67.5 22q-50 0 -78.5 -30.5t-39.5 -76.5q-10 -37 -10 -60q0 -43 30.5 -64.5t66.5 -21.5z" />
<glyph unicode="&#x207a;" horiz-adv-x="587" d="M184 955v99h176v175h99v-175h175v-99h-175v-176h-99v176h-176z" />
<glyph unicode="&#x207b;" horiz-adv-x="587" d="M184 955v99h450v-99h-450z" />
<glyph unicode="&#x207c;" horiz-adv-x="587" d="M184 832v100h450v-100h-450zM184 1066v99h450v-99h-450z" />
<glyph unicode="&#x207d;" horiz-adv-x="318" d="M301 558h-16q-53 0 -93.5 32.5t-40.5 93.5q0 16 7 56.5t35.5 176.5t84.5 392q9 42 26 69.5t49 43.5t80 16h55l-23 -102h-25q-29 0 -42.5 -13t-19.5 -44q-121 -572 -121 -580q0 -18 9.5 -28t27.5 -10h31z" />
<glyph unicode="&#x207e;" horiz-adv-x="318" d="M114 558h-55l23 103h25q15 0 25.5 3t18 10t11.5 17t8 25q121 574 121 583q0 17 -10.5 27t-27.5 10h-30l23 102h16q34 0 63 -12.5t49 -42t20 -70.5q0 -51 -125 -627q-9 -42 -26 -69t-49 -43t-80 -16z" />
<glyph unicode="&#x207f;" horiz-adv-x="595" d="M128 714l115 534h115l-11 -51q16 26 50 45.5t72 19.5q49 0 89.5 -21.5t65 -62.5t24.5 -95q0 -17 -1 -33t-4.5 -35.5t-5 -29.5t-7.5 -36t-8 -36l-43 -199h-116l42 194q2 13 11 51.5t15.5 70t6.5 37.5q0 39 -26 62.5t-75 23.5q-45 0 -76.5 -27.5t-41.5 -69.5l-75 -342h-116 z" />
<glyph unicode="&#x2080;" horiz-adv-x="573" d="M170 -184q-89 0 -144 51.5t-55 139.5q0 16 13 82.5t30.5 150.5t21.5 102q10 52 27 90t45.5 68t73.5 45.5t105 15.5q88 0 142 -51t54 -139q0 -16 -13 -83t-30.5 -150.5t-21.5 -101.5q-10 -52 -26.5 -90t-44.5 -68.5t-72.5 -46t-104.5 -15.5zM184 -75q49 0 79 30.5t40 76.5 q1 5 44 208l-260 -213q-2 -7 -2 -17q0 -41 30.5 -63t68.5 -22zM153 345q-24 -98 -44 -208l260 214q0 4 1 10l1 6q0 42 -31 63.5t-68 21.5q-49 0 -78 -30t-41 -77z" />
<glyph unicode="&#x2081;" horiz-adv-x="386" d="M50 -173l121 569l-164 -120l32 156l164 119h116l-154 -724h-115z" />
<glyph unicode="&#x2082;" horiz-adv-x="549" d="M-90 -173l24 109l316 267q40 34 62.5 58t34 50t11.5 56q0 42 -30.5 63.5t-67.5 21.5q-30 0 -52.5 -11t-36 -30.5t-21 -39.5t-11.5 -43h-116q14 112 74.5 172.5t178.5 60.5q88 0 142 -51t54 -139q0 -66 -32 -123t-102 -116l-231 -196h276l-23 -109h-450z" />
<glyph unicode="&#x2083;" horiz-adv-x="546" d="M151 -184q-88 0 -143.5 51.5t-55.5 139.5q0 18 2 27h114q-2 -7 -2 -24q0 -41 32 -63t70 -22q55 0 85.5 32.5t30.5 90.5q0 39 -27 64t-66 25h-63l23 101h61q61 0 99 37.5t38 91.5q0 42 -30 63.5t-68 21.5q-47 0 -79 -30t-40 -77h-116q10 51 27 88t45.5 67t73 45.5 t103.5 15.5q44 0 80.5 -13t62.5 -37.5t40.5 -60t14.5 -79.5q0 -56 -33.5 -114t-82.5 -82q23 -19 37.5 -52.5t14.5 -69.5q0 -23 -4 -46t-13 -51t-27.5 -52t-45 -44t-67 -32t-91.5 -12z" />
<glyph unicode="&#x2084;" horiz-adv-x="548" d="M196 -173l37 176h-317l21 106l412 442h116l-94 -442h76l-23 -106h-75l-38 -176h-115zM92 109h163l49 226z" />
<glyph unicode="&#x2085;" horiz-adv-x="557" d="M173 -184q-88 0 -143 51.5t-55 139.5q0 10 3 27h114q0 -5 -1 -10.5t-1.5 -8.5t-0.5 -5q0 -41 30.5 -63t67.5 -22q49 0 78 30t39 75q3 11 7 28t5.5 25.5t1.5 16.5q0 43 -31 64t-68 21t-64 -17t-38 -45h-119l92 428h415l-26 -109h-297l-36 -175q6 5 15 10t20.5 9t27 7 t31.5 3q83 0 137.5 -52t54.5 -139q0 -23 -10 -69q-8 -42 -19.5 -73.5t-31.5 -60t-46.5 -47t-64.5 -29t-87 -10.5z" />
<glyph unicode="&#x2086;" horiz-adv-x="562" d="M170 -184q-89 0 -144 51.5t-55 139.5q0 16 13 82.5t30.5 150.5t21.5 102q10 52 27 90t45.5 68t73.5 45.5t105 15.5q88 0 142 -51t54 -139q0 -15 -2 -27h-114q1 5 2 10.5t1.5 8.5t0.5 4q0 42 -31 63.5t-68 21.5q-49 0 -79 -30t-40 -77l-19 -90q41 32 101 32 q85 0 137.5 -51t52.5 -138q0 -30 -7 -62q-4 -30 -11.5 -54.5t-18 -47t-25 -40.5t-33.5 -33t-42.5 -24.5t-53 -15t-64.5 -5.5zM184 -75q49 0 78 30t41 77q8 38 8 60q0 43 -29.5 64.5t-67.5 21.5q-49 0 -78 -29.5t-39 -75.5q-12 -44 -12 -63q0 -41 30.5 -63t68.5 -22z" />
<glyph unicode="&#x2087;" horiz-adv-x="482" d="M-27 -173l352 615h-316l23 109h446l-26 -109l-350 -615h-129z" />
<glyph unicode="&#x2088;" horiz-adv-x="568" d="M173 -184q-94 0 -152 54t-58 140q0 148 114 202q-43 51 -43 128q0 15 2 31.5t8.5 39t17 42.5t29.5 40t43 35t59.5 24t78.5 9q93 0 152 -53.5t59 -143.5q0 -15 -2.5 -32t-9.5 -40t-18 -44t-31 -41.5t-46 -35.5q42 -50 42 -125t-31 -127t-85.5 -77.5t-128.5 -25.5zM189 -75 q48 0 81.5 33t33.5 81q0 44 -27.5 74t-82.5 30q-48 0 -82.5 -33t-34.5 -80q0 -43 28.5 -74t83.5 -31zM260 238q46 0 77.5 31.5t31.5 75.5q0 53 -31.5 80t-80.5 27q-46 0 -77.5 -31t-31.5 -76q0 -52 31 -79.5t81 -27.5z" />
<glyph unicode="&#x2089;" horiz-adv-x="562" d="M158 -184q-88 0 -141.5 51.5t-53.5 139.5q0 15 1 27h114q-1 -12 -1 -24q0 -41 30.5 -63t67.5 -22q26 0 46.5 9t34.5 24.5t22.5 33.5t13.5 40q13 53 21 91q-45 -33 -102 -33q-85 0 -138 51.5t-53 138.5q0 19 7 62q9 52 25 90.5t45 68.5t74 45t107 15q88 0 142 -51t54 -139 q0 -16 -13 -83t-30.5 -150.5t-20.5 -101.5q-10 -52 -27 -90t-45.5 -68.5t-73 -46t-106.5 -15.5zM231 199q34 0 59.5 15.5t38.5 38t20 51.5q11 45 11 63q0 42 -30.5 63.5t-67.5 21.5q-50 0 -78.5 -30t-39.5 -77q-10 -36 -10 -60q0 -42 30.5 -64t66.5 -22z" />
<glyph unicode="&#x208d;" horiz-adv-x="318" d="M112 -330h-15q-54 0 -94 33t-40 94q0 17 6.5 57t35 175.5t84.5 392.5q14 64 49.5 96.5t105.5 32.5h55l-23 -102h-25q-29 0 -42 -13t-20 -44q-121 -571 -121 -581q0 -17 10 -27t27 -10h31z" />
<glyph unicode="&#x208e;" horiz-adv-x="318" d="M-75 -330h-55l23 104h25q30 0 42.5 12t19.5 43q37 175 81 384q41 190 41 199q0 16 -10 26.5t-28 10.5h-30l23 102h16q54 0 93 -32.5t39 -93.5q0 -49 -125 -626q-9 -41 -26 -68.5t-49 -44t-80 -16.5z" />
<glyph unicode="&#x20ac;" horiz-adv-x="1036" d="M417 777h491l-42 -95h-470l-25 -116h440l-46 -94h-416q-17 -76 -20.5 -104.5t-3.5 -61.5q0 -92 56.5 -144.5t162.5 -52.5q64 0 124.5 26.5t108.5 76.5l100 -88q-128 -141 -360 -141q-63 0 -121 21t-104 59.5t-73.5 97.5t-27.5 130q0 31 4.5 63.5t22.5 117.5h-138l46 94 h111l25 116h-136l44 95h114q2 12 14 66q16 80 42.5 144.5t66.5 117t92.5 87.5t122 54t155.5 19q99 0 174 -39.5t118 -113.5l-112 -73q-63 100 -207 100q-117 0 -202.5 -75t-115.5 -221z" />
<glyph unicode="&#x2113;" horiz-adv-x="585" d="M243 974q33 154 89 222.5t161 68.5q75 0 113.5 -47.5t38.5 -129t-33 -175.5t-86.5 -179.5t-122.5 -161t-141 -127.5q-36 -168 -43 -207t-7 -67q0 -34 11.5 -54.5t32.5 -29.5t54 -9q34 0 115 17l7 -56q-116 -56 -202 -56q-69 0 -112 41t-43 120q0 23 1 37t7.5 50.5 t20.5 103.5l-87 -59l-33 57l139 97zM381 994q-8 -36 -96 -449q76 66 141.5 149t110 183.5t44.5 188.5q0 101 -81 101q-82 0 -119 -173z" />
<glyph unicode="&#x2116;" horiz-adv-x="1566" d="M1525 552h-451l22 99h451zM1367 813q44 0 76 27t41 68q32 132 32 159q0 39 -25 62.5t-75 23.5q-44 0 -76 -27.5t-41 -69.5q-34 -132 -34 -156q0 -39 26.5 -63t75.5 -24zM1352 704q-42 0 -78 12t-63 35t-42.5 57t-15.5 76q0 21 3 43.5t6 37.5t9.5 44t9.5 44q23 105 80 157 t170 52q56 0 100.5 -20.5t71 -61.5t26.5 -97q0 -21 -3 -45t-5 -36t-9.5 -45.5t-9.5 -43.5q-23 -105 -80 -157t-170 -52zM1115 1248l-265 -1248h-137l-317 1007l-214 -1007h-138l266 1248h137l318 -1008l213 1008h137z" />
<glyph unicode="&#x2117;" horiz-adv-x="1442" d="M114 624q0 131 50.5 249.5t136.5 204.5t204.5 136.5t249.5 50.5t250 -50.5t205 -136.5t136.5 -204.5t50.5 -249.5t-50.5 -250t-136.5 -204.5t-205 -136t-250 -50.5t-249.5 50.5t-204.5 136t-136.5 204.5t-50.5 250zM230 624q0 -108 41 -205.5t111.5 -168t167.5 -112 t205 -41.5t205.5 41.5t168 112t112 168t41.5 205.5t-41.5 205.5t-112 168t-168 112t-205.5 41.5q-86 0 -166.5 -26.5t-145 -75t-113 -113.5t-74.5 -145.5t-26 -166.5zM525 251v745h295q50 0 91.5 -13t71 -36t50 -54.5t30.5 -68t10 -76.5q0 -68 -27 -123t-85.5 -90 t-140.5 -35h-174v-249h-121zM646 622h174q64 0 97 36t33 92q0 35 -13.5 63.5t-43.5 47t-73 18.5h-174v-257z" />
<glyph unicode="&#x2122;" horiz-adv-x="1326" d="M335 524v610h-205v114h526v-114h-205v-610h-116zM750 524v724h116l190 -395l192 395h115v-724h-114v493l-144 -299h-95l-144 299v-493h-116z" />
<glyph unicode="&#x212e;" horiz-adv-x="1450" d="M337 517v-308q0 -27 21 -45q61 -51 139 -82q102 -39 249.5 -39t249.5 39q103 42 175 114h89q-96 -115 -233 -169q-112 -44 -281 -44q-167 0 -279 44q-162 65 -263.5 208t-101.5 329.5t101.5 330t263.5 208.5q112 45 279 45q169 0 281 -45q162 -65 263 -208t101 -330v-31 h-1036q-8 0 -13 -4.5t-5 -12.5zM1156 613v308q0 27 -21 45q-60 50 -139 81q-102 40 -249.5 40t-249.5 -40q-78 -31 -139 -81q-21 -19 -21 -45v-308q0 -5 2 -9t6.5 -6.5t9.5 -2.5h784q5 0 9 2.5t6 6.5t2 9z" />
<glyph unicode="&#x2153;" horiz-adv-x="1328" d="M271 524l121 568l-164 -119l32 155l164 120h116l-154 -724h-115zM1017 1248h127l-857 -1248h-127zM935 -10q-88 0 -143.5 51t-55.5 139q0 18 2 27h114q-2 -7 -2 -23q0 -42 32 -64t70 -22q36 0 62 15t39.5 42.5t13.5 65.5q0 39 -26.5 64t-66.5 25h-61l22 102h61 q61 0 99.5 37.5t38.5 90.5q0 42 -30.5 64t-68.5 22q-47 0 -79 -30t-40 -77h-116q10 50 27 87t45.5 67t73 45.5t103.5 15.5q90 0 144.5 -51t54.5 -139q0 -56 -34 -114.5t-83 -82.5q23 -19 37.5 -52t14.5 -69q0 -28 -5 -56t-21.5 -62t-42.5 -59t-72.5 -42t-106.5 -17z" />
<glyph unicode="&#x2154;" horiz-adv-x="1433" d="M95 524l24 108l316 268q60 50 84.5 85t24.5 79q0 42 -30.5 63.5t-68.5 21.5q-29 0 -52 -11t-36.5 -30.5t-21 -39.5t-10.5 -43h-116q14 112 74 172.5t178 60.5q88 0 142.5 -51t54.5 -140q0 -66 -32.5 -123t-101.5 -116l-232 -196h276l-23 -108h-450zM1122 1248h127 l-857 -1248h-127zM1041 -10q-58 0 -103 22.5t-71 66t-26 101.5q0 18 2 27h114q-2 -7 -2 -23q0 -18 6.5 -32.5t17 -24t24 -16.5t27 -10t26.5 -3q36 0 62.5 15t40.5 42.5t14 65.5q0 39 -27 64t-66 25h-63l24 102h60q61 0 99 37t38 91q0 22 -9 39t-24 27t-31.5 15t-32.5 5 q-47 0 -79.5 -30t-40.5 -77h-116q10 50 27 87t45.5 67t73 45.5t103.5 15.5q90 0 144 -51t54 -139q0 -56 -33.5 -114.5t-82.5 -82.5q23 -19 37.5 -52t14.5 -69q0 -28 -5 -56t-21.5 -62t-42.5 -59t-72 -42t-106 -17z" />
<glyph unicode="&#x2155;" horiz-adv-x="1331" d="M271 524l121 568l-164 -119l32 155l164 120h116l-154 -724h-115zM1017 1248h127l-857 -1248h-127zM957 -10q-88 0 -143 51t-55 139q0 5 4 27h114q-1 -5 -2 -10.5t-1.5 -8.5t-0.5 -4q0 -42 30.5 -64t67.5 -22q49 0 78 30t39 75q2 10 5 22t4.5 19t2.5 14.5t1 13.5 q0 43 -30.5 64.5t-67.5 21.5t-64 -17t-38 -45h-119l93 427h413l-25 -108h-297l-36 -175q12 11 38 20t57 9q54 0 97 -23t68 -67t25 -101q0 -23 -9 -69q-10 -52 -26.5 -90t-45 -68.5t-73 -45.5t-104.5 -15z" />
<glyph unicode="&#x2156;" horiz-adv-x="1438" d="M95 524l24 108l316 268q60 50 84.5 85t24.5 79q0 42 -30.5 63.5t-68.5 21.5q-29 0 -52 -11t-36.5 -30.5t-21 -39.5t-10.5 -43h-116q14 112 74 172.5t178 60.5q88 0 142.5 -51t54.5 -140q0 -66 -32.5 -123t-101.5 -116l-232 -196h276l-23 -108h-450zM1122 1248h127 l-857 -1248h-127zM1062 -10q-88 0 -143 51t-55 139q0 10 3 27h114q0 -5 -1 -10.5t-1.5 -8.5t-0.5 -4q0 -29 16 -49t37.5 -28.5t44.5 -8.5q50 0 78.5 30t39.5 75q12 59 12 69q0 43 -30.5 64.5t-67.5 21.5t-64 -17t-37 -45h-120l93 427h414l-25 -108h-298l-36 -175 q13 11 38.5 20t55.5 9q83 0 137.5 -52.5t54.5 -138.5q0 -23 -10 -69q-10 -52 -26.5 -90t-45 -68.5t-72.5 -45.5t-105 -15z" />
<glyph unicode="&#x2157;" horiz-adv-x="1425" d="M337 513q-89 0 -144.5 51.5t-55.5 139.5q0 18 2 27h114q-2 -7 -2 -24q0 -41 32 -63t70 -22q55 0 85.5 32.5t30.5 90.5q0 39 -27 63.5t-66 24.5h-63l24 102h61q61 0 98.5 37.5t37.5 91.5q0 42 -30 63.5t-67 21.5q-32 0 -57.5 -14t-41 -38t-20.5 -55h-117q10 50 27 87.5 t45.5 67.5t73 45.5t104.5 15.5q89 0 143 -51t54 -140q0 -56 -33.5 -114t-82.5 -82q16 -13 27.5 -32t18.5 -42.5t7 -46.5t-4 -46t-13.5 -51.5t-28 -52t-44.5 -43.5t-67 -32t-91 -12zM1108 1248h127l-857 -1248h-127zM1047 -10q-88 0 -142.5 51t-54.5 139q0 10 3 27h114 q0 -4 -1 -8t-1 -7t-0.5 -5t-0.5 -3q0 -29 16 -49t37.5 -28.5t44.5 -8.5q50 0 78.5 30t39.5 75q12 59 12 69q0 43 -31 64.5t-67 21.5q-38 0 -64 -17t-37 -45h-120l93 427h413l-25 -108h-298l-35 -175q13 11 38.5 20t55.5 9q83 0 137 -52.5t54 -138.5q0 -27 -9 -69 q-10 -52 -26.5 -90t-45 -68.5t-73 -45.5t-105.5 -15z" />
<glyph unicode="&#x2158;" horiz-adv-x="1371" d="M328 524l37 176h-317l22 106l411 442h116l-94 -442h76l-23 -106h-75l-37 -176h-116zM224 806h162l51 226zM1056 1248h127l-857 -1248h-127zM996 -10q-88 0 -142.5 51t-54.5 139q0 10 3 27h114q-1 -5 -1.5 -10.5t-1 -8.5t-0.5 -4q0 -42 30 -64t67 -22q50 0 78.5 30 t39.5 75q2 10 4.5 22t4 19t3 14.5t1.5 13.5q0 30 -17 50t-38 28t-44 8q-37 0 -64 -17t-38 -45h-119l93 427h414l-26 -108h-297l-36 -175q12 11 38.5 20t56.5 9q83 0 137 -52.5t54 -138.5q0 -27 -9 -69q-10 -52 -27 -90t-45.5 -68.5t-72.5 -45.5t-105 -15z" />
<glyph unicode="&#x2159;" horiz-adv-x="1325" d="M271 524l121 568l-164 -119l32 155l164 120h116l-154 -724h-115zM1017 1248h127l-857 -1248h-127zM942 -10q-88 0 -142.5 51t-54.5 139q0 16 13 83t30.5 150.5t20.5 101.5q10 52 27 90t46 68t73.5 45.5t105.5 15.5q88 0 141.5 -51t53.5 -139q0 -15 -1 -27h-114 q0 5 1 10.5t1.5 9l0.5 3.5q0 42 -31 64t-67 22q-50 0 -79.5 -30.5t-39.5 -76.5l-20 -91q40 31 101 31q86 0 138.5 -50.5t52.5 -137.5q0 -30 -7 -62q-18 -107 -75 -163t-175 -56zM957 98q34 0 59.5 16t39 38.5t20.5 52.5q9 38 9 60q0 43 -30 64.5t-68 21.5q-48 0 -78 -29.5 t-40 -75.5q-10 -41 -10 -62q0 -42 30.5 -64t67.5 -22z" />
<glyph unicode="&#x215a;" horiz-adv-x="1421" d="M358 513q-57 0 -102 22.5t-70.5 66t-25.5 102.5q0 9 4 27h114q-1 -4 -1.5 -8.5t-1 -7t-1 -4.5t-0.5 -4q0 -42 30.5 -63.5t67.5 -21.5q34 0 59.5 16t38.5 38t20 51q2 12 6 28t5.5 24.5t1.5 16.5q0 43 -31 64.5t-67 21.5q-38 0 -64.5 -17.5t-37.5 -44.5h-119l92 428h414 l-25 -109h-298l-36 -175q13 11 38.5 20t55.5 9q84 0 138 -52t54 -139q0 -23 -10 -69q-10 -52 -26.5 -90t-45 -68.5t-72.5 -46t-105 -15.5zM1112 1248h126l-857 -1248h-126zM1039 -10q-88 0 -143 51t-55 139q0 16 12.5 82.5t30.5 151.5t21 101q10 52 27 90t45.5 68t73.5 45.5 t105 15.5q88 0 142 -51t54 -139q0 -15 -2 -27h-114q1 5 2 10.5t1.5 9l0.5 3.5q0 42 -30.5 64t-67.5 22q-49 0 -79 -30.5t-40 -76.5l-20 -91q40 31 102 31q85 0 137.5 -50.5t52.5 -137.5q0 -30 -7 -62q-17 -107 -74.5 -163t-174.5 -56zM1053 98q49 0 78.5 30.5t41.5 76.5 q8 38 8 60q0 43 -30 64.5t-68 21.5q-49 0 -78 -29.5t-39 -75.5q-11 -41 -11 -62q0 -42 30 -64t68 -22z" />
<glyph unicode="&#x215b;" horiz-adv-x="1296" d="M271 524l121 568l-164 -119l32 155l164 120h116l-154 -724h-115zM1017 1248h127l-857 -1248h-127zM930 -10q-94 0 -152.5 53.5t-58.5 140.5q0 146 114 201q-42 50 -42 128q0 23 4.5 47.5t20 57t40 57t70 42t104.5 17.5q92 0 151 -54t59 -144q0 -19 -4.5 -41.5t-14.5 -51 t-33 -55.5t-54 -44q42 -51 42 -125q0 -112 -66.5 -170.5t-179.5 -58.5zM946 98q48 0 82 33t34 81q0 44 -27.5 73.5t-82.5 29.5q-49 0 -84 -33t-35 -79q0 -44 29 -74.5t84 -30.5zM1017 412q46 0 77.5 31t31.5 76q0 52 -31.5 79.5t-80.5 27.5q-30 0 -55 -14.5t-39.5 -39 t-14.5 -53.5q0 -53 31 -80t81 -27z" />
<glyph unicode="&#x215c;" horiz-adv-x="1387" d="M337 513q-89 0 -144.5 51.5t-55.5 139.5q0 18 2 27h114q-2 -7 -2 -24q0 -41 32 -63t70 -22q55 0 85.5 32.5t30.5 90.5q0 39 -27 63.5t-66 24.5h-63l24 102h61q61 0 98.5 37.5t37.5 91.5q0 42 -30 63.5t-67 21.5q-32 0 -57.5 -14t-41 -38t-20.5 -55h-117q10 50 27 87.5 t45.5 67.5t73 45.5t104.5 15.5q89 0 143 -51t54 -140q0 -56 -33.5 -114t-82.5 -82q16 -13 27.5 -32t18.5 -42.5t7 -46.5t-4 -46t-13.5 -51.5t-28 -52t-44.5 -43.5t-67 -32t-91 -12zM1108 1248h127l-857 -1248h-127zM1021 -10q-94 0 -152 53.5t-58 140.5q0 146 114 201 q-43 50 -43 128q0 15 2 31.5t9 39t17.5 42.5t29 40.5t42.5 35t60 23.5t79 9q92 0 151 -54t59 -144q0 -15 -2.5 -32t-9.5 -40t-18 -43.5t-31 -41.5t-46 -35q43 -51 43 -125q0 -112 -66.5 -170.5t-179.5 -58.5zM1037 98q48 0 82 33t34 81q0 44 -28 73.5t-83 29.5 q-48 0 -82.5 -33t-34.5 -79q0 -44 28.5 -74.5t83.5 -30.5zM1108 412q46 0 77.5 31t31.5 76q0 52 -31 79.5t-81 27.5q-46 0 -77.5 -31.5t-31.5 -75.5q0 -27 8.5 -48t24 -33.5t35.5 -19t44 -6.5z" />
<glyph unicode="&#x215d;" horiz-adv-x="1392" d="M358 513q-57 0 -102 22.5t-70.5 66t-25.5 102.5q0 9 4 27h114q-1 -4 -1.5 -8.5t-1 -7t-1 -4.5t-0.5 -4q0 -42 30.5 -63.5t67.5 -21.5q34 0 59.5 16t38.5 38t20 51q2 12 6 28t5.5 24.5t1.5 16.5q0 43 -31 64.5t-67 21.5q-38 0 -64.5 -17.5t-37.5 -44.5h-119l92 428h414 l-25 -109h-298l-36 -175q13 11 38.5 20t55.5 9q84 0 138 -52t54 -139q0 -23 -10 -69q-10 -52 -26.5 -90t-45 -68.5t-72.5 -46t-105 -15.5zM1112 1248h126l-857 -1248h-126zM1027 -10q-95 0 -153 53.5t-58 140.5q0 146 114 201q-43 50 -43 128q0 15 2.5 31.5t9 39t17 42.5 t29 40.5t42.5 35t60 23.5t79 9q92 0 151 -54t59 -144q0 -19 -4 -41.5t-14.5 -51t-33.5 -55.5t-55 -44q43 -51 43 -125q0 -112 -66.5 -170.5t-178.5 -58.5zM1042 98q49 0 82.5 33t33.5 81q0 44 -27.5 73.5t-83.5 29.5q-48 0 -82.5 -33t-34.5 -79q0 -44 28.5 -74.5t83.5 -30.5 zM1114 412q45 0 76.5 31t31.5 76q0 52 -31 79.5t-81 27.5q-45 0 -77 -31.5t-32 -75.5q0 -27 9 -48t24 -33.5t35.5 -19t44.5 -6.5z" />
<glyph unicode="&#x215e;" horiz-adv-x="1270" d="M158 524l352 615h-316l24 109h445l-25 -109l-351 -615h-129zM991 1248h126l-857 -1248h-126zM903 -10q-94 0 -152 53.5t-58 140.5q0 146 114 201q-42 50 -42 128q0 23 4.5 47t19.5 57t39.5 57.5t70 42t104.5 17.5q92 0 151.5 -54t59.5 -144q0 -19 -4.5 -41.5t-15 -51 t-33.5 -55.5t-54 -44q42 -51 42 -125q0 -112 -66.5 -170.5t-179.5 -58.5zM920 98q48 0 81.5 33t33.5 81q0 44 -27.5 73.5t-82.5 29.5q-49 0 -83.5 -33t-34.5 -79q0 -44 28.5 -74.5t84.5 -30.5zM991 412q45 0 77 31t32 76q0 52 -31.5 79.5t-81.5 27.5q-45 0 -76.5 -31.5 t-31.5 -75.5q0 -36 15 -60.5t40 -35.5t57 -11z" />
<glyph unicode="&#x215f;" horiz-adv-x="709" d="M271 524l121 568l-164 -119l32 155l164 120h116l-154 -724h-115zM1017 1248h127l-857 -1248h-127z" />
<glyph unicode="&#x2190;" horiz-adv-x="1425" d="M298 433l370 -370l-80 -80l-508 507l508 508l80 -80l-370 -371h1047v-114h-1047z" />
<glyph unicode="&#x2191;" horiz-adv-x="1425" d="M656 1047l-371 -370l-80 80l508 508l508 -508l-80 -80l-371 370v-1047h-114v1047z" />
<glyph unicode="&#x2192;" horiz-adv-x="1425" d="M757 63l371 370h-1048v114h1048l-371 371l81 80l507 -508l-507 -507z" />
<glyph unicode="&#x2193;" horiz-adv-x="1425" d="M285 570l371 -371v1049h114v-1049l371 371l80 -80l-508 -507l-508 507z" />
<glyph unicode="&#x2196;" horiz-adv-x="1425" d="M347 825v-524h-114v718h719v-112h-524l837 -836l-80 -80z" />
<glyph unicode="&#x2197;" horiz-adv-x="1425" d="M1078 301v524l-838 -834l-80 80l838 836h-524v112h718v-718h-114z" />
<glyph unicode="&#x2198;" horiz-adv-x="1425" d="M1078 194v524h114v-718h-718v112h524l-838 836l80 80z" />
<glyph unicode="&#x2199;" horiz-adv-x="1425" d="M347 718v-524l838 834l80 -80l-837 -836h524v-112h-719v718h114z" />
<glyph unicode="&#x21b0;" horiz-adv-x="1425" d="M298 433l370 -370l-80 -80l-508 507l508 508l80 -80l-370 -371h1047v-875h-114v761h-933z" />
<glyph unicode="&#x21b1;" horiz-adv-x="1425" d="M194 433v-761h-114v875h1048l-371 371l81 80l507 -508l-507 -507l-81 80l371 370h-934z" />
<glyph unicode="&#x21b2;" horiz-adv-x="1425" d="M298 433l370 -370l-80 -80l-508 507l508 508l80 -80l-370 -371h933v701h114v-815h-1047z" />
<glyph unicode="&#x21b3;" horiz-adv-x="1425" d="M757 63l371 370h-1048v815h114v-701h934l-371 371l81 80l507 -508l-507 -507z" />
<glyph unicode="&#x2202;" horiz-adv-x="1008" d="M718 357q16 80 16 101q0 90 -55.5 149t-144.5 59q-241 0 -291 -261q-15 -76 -15 -102q0 -90 55.5 -149t144.5 -59q119 0 190.5 64t99.5 198zM930 845l-94 -488q-16 -84 -46.5 -148.5t-70 -106.5t-89.5 -69.5t-102 -38.5t-111 -11q-94 0 -164 43t-105.5 114.5t-35.5 160.5 q0 44 12 104q23 103 65 177.5t99 116t120 61t137 19.5q76 0 139.5 -33t92.5 -85l43 228q5 30 5 55q0 44 -14.5 82.5t-40.5 66.5t-63.5 44t-80.5 16q-78 0 -137 -28.5t-97.5 -87.5t-54.5 -146h-118q13 70 36 126.5t54 97t67.5 70t79.5 47t87 25.5t93 8q93 0 163.5 -43 t105.5 -115t35 -161q0 -50 -10 -101z" />
<glyph unicode="&#x220f;" horiz-adv-x="1090" d="M177 0v1248h804v-1248h-136v1112h-532v-1112h-136z" />
<glyph unicode="&#x2211;" horiz-adv-x="1250" d="M697 459l-546 675v114h930v-114h-775l546 -675l-546 -673h775v-114h-930v114z" />
<glyph unicode="&#x2212;" d="M866 442h-720v116h720v-116z" />
<glyph unicode="&#x221a;" horiz-adv-x="894" d="M847 1248l-373 -1248h-114l-127 420h-121v114h207l98 -327l312 1041h118z" />
<glyph unicode="&#x221e;" d="M128 598.5q0 93.5 64.5 159t158.5 65.5q52 0 97.5 -22t76.5 -61q32 39 77.5 61t97.5 22q94 0 159.5 -65.5t65.5 -159t-65.5 -158t-159.5 -64.5q-35 0 -67.5 10t-59.5 28.5t-48 43.5q-20 -26 -47 -44.5t-59.5 -28t-67.5 -9.5q-94 0 -158.5 64.5t-64.5 158zM593 598.5 q0 -46.5 30.5 -77.5t76.5 -31q31 0 56 14.5t39 39t14 55.5q0 46 -31 78t-77.5 32t-77 -32t-30.5 -78.5zM244 599q0 -31 13.5 -55.5t38 -39t55.5 -14.5q46 0 77 31.5t31 77.5t-31 78t-77 32q-47 0 -77 -32t-30 -78z" />
<glyph unicode="&#x222b;" horiz-adv-x="539" d="M362 1042v-1151q0 -120 -47 -169.5t-172 -49.5v114h10q53 0 73 21t20 70v1151q0 121 47 170.5t172 49.5v-114h-11q-53 0 -72.5 -21.5t-19.5 -70.5z" />
<glyph unicode="&#x2248;" d="M221 209l-75 82q55 60 116.5 87.5t118.5 27.5q29 0 56 -6t47 -15t40.5 -19.5t37.5 -19.5t38 -15t41 -6q23 0 45.5 8t47 25.5t57.5 47.5l75 -81q-38 -42 -81 -69t-80.5 -37t-73.5 -10q-42 0 -80.5 12.5t-63.5 28t-56.5 28.5t-59.5 13q-35 0 -68 -18.5t-82 -63.5zM221 573 l-75 83q55 61 116.5 88.5t118.5 27.5q29 0 56 -6t47 -15.5t40.5 -20t37.5 -19.5t38 -15t41 -6q34 0 67.5 18.5t82.5 63.5l75 -82q-55 -61 -117 -89t-118 -28q-42 0 -80.5 13t-63.5 28.5t-56.5 28.5t-59.5 13q-34 0 -67.5 -18.5t-82.5 -64.5z" />
<glyph unicode="&#x2260;" d="M866 250h-499l-137 -153l-84 74l70 79h-70v115h173l225 250h-398v116h500l136 151l84 -75l-70 -76h70v-116h-173l-222 -250h395v-115z" />
<glyph unicode="&#x2264;" d="M294 581l572 -226v-125l-720 285v131l720 286v-125zM866 0h-720v116h720v-116z" />
<glyph unicode="&#x2265;" d="M146 355l572 226l-572 226v125l720 -286v-131l-720 -285v125zM866 0h-720v116h720v-116z" />
<glyph unicode="&#x25a0;" horiz-adv-x="1425" d="M253 0v920h920v-920h-920z" />
<glyph unicode="&#x25a1;" horiz-adv-x="1425" d="M253 0v920h920v-920h-920zM367 806v-692h692v692h-692z" />
<glyph unicode="&#x25ca;" d="M948 624l-362 -624h-110l-362 624l362 624h110zM250 624l281 -485l282 485l-282 484z" />
<glyph unicode="&#x25cb;" horiz-adv-x="1425" d="M231 463q0 98 38.5 187t103 153.5t153.5 102.5t187 38q78 0 151.5 -24.5t132.5 -69t103.5 -103.5t69 -132.5t24.5 -151.5q0 -65 -17.5 -127.5t-48.5 -115t-75.5 -97t-97 -75.5t-115 -48t-127.5 -17q-98 0 -187 38t-153.5 102t-103 153t-38.5 187zM345 463 q0 -100 49.5 -184.5t134 -133t184 -48.5t184 48.5t134 133t49.5 184.5q0 75 -29 142.5t-78.5 117t-117.5 78.5t-142 29q-100 0 -184.5 -49t-134 -133.5t-49.5 -184.5z" />
<glyph unicode="&#x25cf;" horiz-adv-x="1425" d="M231 463q0 98 38.5 187t103 153.5t153.5 102.5t187 38q78 0 151.5 -24.5t132.5 -69t103.5 -103.5t69 -132.5t24.5 -151.5q0 -65 -17.5 -127.5t-48.5 -115t-75.5 -97t-97 -75.5t-115 -48t-127.5 -17q-98 0 -187 38t-153.5 102t-103 153t-38.5 187z" />
<glyph unicode="&#x25fc;" horiz-adv-x="916" d="M0 918h918v-918h-918v918z" />
<glyph unicode="&#xfb00;" horiz-adv-x="1129" d="M682 1121h-140q-48 0 -71 -19t-33 -63l-25 -119h226l-28 -127h-226l-167 -793h-134l167 793h-130l29 127h130l23 108q10 51 21 83.5t30 61t46.5 43.5t68.5 23.5t99 8.5h141zM1248 1121h-141q-48 0 -71.5 -19t-32.5 -63l-25 -119h226l-28 -127h-226l-168 -793h-134 l168 793h-130l28 127h131l22 108q11 51 22 83.5t30 61t46.5 43.5t68.5 23.5t100 8.5h140z" />
<glyph unicode="&#xfb01;" horiz-adv-x="965" d="M682 1121h-140q-48 0 -71 -19t-33 -63l-25 -119h226l-28 -127h-226l-167 -793h-134l167 793h-130l29 127h130l23 108q10 51 21 83.5t30 61t46.5 43.5t68.5 23.5t99 8.5h141zM1000 1248l-38 -174h-134l38 174h134zM930 920l-196 -920h-134l196 920h134z" />
<glyph unicode="&#xfb02;" horiz-adv-x="965" d="M682 1121h-140q-48 0 -71 -19t-33 -63l-25 -119h226l-28 -127h-226l-167 -793h-134l167 793h-130l29 127h130l23 108q10 51 21 83.5t30 61t46.5 43.5t68.5 23.5t99 8.5h141zM1000 1248l-266 -1248h-134l266 1248h134z" />
<glyph unicode="&#xfb03;" horiz-adv-x="1530" d="M682 1121h-140q-48 0 -71 -19t-33 -63l-25 -119h226l-28 -127h-226l-167 -793h-134l167 793h-130l29 127h130l23 108q10 51 21 83.5t30 61t46.5 43.5t68.5 23.5t99 8.5h141zM1248 1121h-141q-48 0 -71.5 -19t-32.5 -63l-25 -119h226l-28 -127h-226l-168 -793h-134 l168 793h-130l28 127h131l22 108q11 51 22 83.5t30 61t46.5 43.5t68.5 23.5t100 8.5h140zM1564 1248l-37 -174h-133l37 174h133zM1495 920l-196 -920h-134l197 920h133z" />
<glyph unicode="&#xfb04;" horiz-adv-x="1530" d="M682 1121h-140q-48 0 -71 -19t-33 -63l-25 -119h226l-28 -127h-226l-167 -793h-134l167 793h-130l29 127h130l23 108q10 51 21 83.5t30 61t46.5 43.5t68.5 23.5t99 8.5h141zM1248 1121h-141q-48 0 -71.5 -19t-32.5 -63l-25 -119h226l-28 -127h-226l-168 -793h-134 l168 793h-130l28 127h131l22 108q11 51 22 83.5t30 61t46.5 43.5t68.5 23.5t100 8.5h140zM1564 1248l-265 -1248h-134l266 1248h133z" />
<glyph horiz-adv-x="0" />
<glyph horiz-adv-x="1120" d="M326 46q-48 10 -68 43t-20 96v456q-48 0 -65 43q-43 16 -43 66q0 31 20 50q-30 16 -47.5 43.5t-17.5 61.5q0 33 17.5 61.5t47.5 43.5q-20 19 -20 51q0 27 16 46.5t41 23.5q11 37 42 61.5t70 24.5q41 0 79 -30q12 34 42 56t66 22q30 0 56 -15t43 -40q24 12 51 12 q22 0 42.5 -8t36.5 -23t26 -35q22 22 50 22q22 0 40 -11.5t26 -31.5q25 -6 46 -22.5t33 -41t12 -50.5q0 -32 -16.5 -59t-44.5 -42v-68h7q82 0 112.5 -32.5t30.5 -110.5v-383q0 -78 -30.5 -110t-112.5 -32h-7q0 -64 -19 -96t-68 -42v-46h-474v46zM800 185v723q-29 8 -52 31 h-148q-34 -34 -81 -34q-61 0 -95 49q-13 -6 -28 -6q-33 0 -52 19q-13 -20 -18 -27v-755q0 -33 12.5 -47t44.5 -14h360q32 0 44.5 14t12.5 47zM201 823v-34q-17 0 -27 -11.5t-10 -27.5t10.5 -26.5t26.5 -10.5q0 -17 10.5 -27.5t26.5 -10.5v262q34 0 58 21.5t27 53.5v7h34 q0 -17 11 -27.5t28 -10.5q16 0 26.5 10.5t10.5 27.5h34q0 -23 -16 -46q21 -34 68 -34q34 0 58.5 24t24.5 58h146q0 -34 23.5 -58t58.5 -24t59.5 24t24.5 58.5t-24.5 59t-59.5 24.5q0 16 -11.5 27.5t-27.5 11.5t-27 -10.5t-11 -28.5h-34q0 34 -24 58.5t-59 24.5 q-18 0 -33.5 -6.5t-26.5 -18.5t-17 -28q22 -6 36 -25t14 -43h-33q0 17 -12 27.5t-28 10.5t-26.5 -10.5t-10.5 -27.5h-34q0 27 16.5 46.5t42.5 23.5q10 32 34 53q-11 19 -30.5 30t-41.5 11q-33 0 -56.5 -23.5t-24.5 -56.5q12 -27 12 -51h-34q0 34 -24.5 58.5t-59.5 24.5 q-26 0 -47 -15t-29 -39q15 -4 26.5 -13.5t18 -24t6.5 -30.5h-34q0 16 -11.5 27.5t-27.5 11.5t-26.5 -11.5t-10.5 -27.5q0 -15 8.5 -26t21.5 -12h7v-34h-7q-32 -2 -53.5 -26.5t-21.5 -57.5q0 -22 10 -40.5t27 -29.5t38 -12h7zM950 326v383q0 23 -5.5 36t-17.5 19t-33 6h-7 v-505h7q31 0 43.5 14t12.5 47zM399 184v668h26v-668h-26zM699 184v668h27v-668h-27zM599 184v668h27v-668h-27zM499 184v668h26v-668h-26z" />
<glyph horiz-adv-x="471" d="M-3 -258l37 169h169l-38 -169l-76 -150h-114l76 150h-54z" />
<glyph d="M828 335q-40 -183 -140 -267.5t-268 -84.5q-77 0 -138 26t-97 69t-54.5 93t-18.5 103q0 57 42 270.5t77 368.5q41 182 141 267t267 85q53 0 98 -12t78.5 -33.5t59 -49.5t41.5 -61t24 -67.5t8 -68.5q0 -30 -13.5 -113.5t-34 -184t-39 -189t-33.5 -151.5zM695 333 q5 23 40.5 188t53.5 256l-546 -452q-3 -19 -3 -31q0 -85 53 -135t147 -50q91 0 161.5 58.5t93.5 165.5zM365 914q-6 -32 -23 -109.5t-38.5 -172.5t-34.5 -161l547 452q4 24 4 31q0 56 -23 97.5t-68.5 64.5t-108.5 23q-91 0 -162 -59t-93 -166z" />
<glyph d="M399 126l201 938l-282 -205l37 183l283 206h134l-240 -1122h293l-26 -126h-721l27 126h294z" />
<glyph d="M351 873h-133q39 204 139.5 298t276.5 94q78 0 139 -26.5t96.5 -69.5t54 -93t18.5 -103q0 -63 -14.5 -120t-34.5 -98.5t-56.5 -86.5t-66 -74t-77.5 -72l-440 -396h526l-27 -126h-718l27 126l546 491q42 37 72.5 68.5t64.5 76t52 93t18 99.5q0 56 -23 97.5t-68 64.5 t-108 23q-101 0 -174 -69.5t-90 -196.5z" />
<glyph d="M116 357h127q-8 -43 -8 -63q0 -85 52.5 -135t147.5 -50q73 0 133.5 40t93.5 103t33 131q0 37 -12.5 70t-35.5 57.5t-58 39.5t-77 15h-90l29 127h89q75 0 139 39t99.5 99t35.5 124q0 56 -23 97.5t-68 64.5t-108 23q-101 0 -173.5 -69.5t-90.5 -196.5h-133 q38 204 138.5 298t277.5 94q78 0 139 -26.5t96.5 -69.5t54 -93t18.5 -103q0 -132 -62.5 -225.5t-163.5 -136.5q33 -22 57.5 -55t38 -74.5t13.5 -85.5q0 -86 -26 -160t-76 -131t-129 -89.5t-179 -32.5q-77 0 -138.5 26t-97 69t-54 93t-18.5 103q0 51 9 83z" />
<glyph d="M866 337h-130l-71 -337h-134l71 337h-570l27 122l737 789h134l-167 -789h130zM226 459h403l119 558z" />
<glyph d="M731 345q19 92 19 150q0 72 -50 121t-148 49q-67 0 -126.5 -36t-94.5 -102h-137l153 721h656l-27 -127h-522l-89 -415q21 25 53.5 44.5t73.5 30t84 10.5q77 0 138.5 -26.5t97 -69.5t54 -94t18.5 -104q0 -35 -27 -162q-39 -183 -139.5 -267.5t-268.5 -84.5q-78 0 -139 26 t-96.5 69t-54 93t-18.5 103q0 41 9 83h126q-7 -39 -7 -63q0 -85 52.5 -135t147.5 -50q91 0 165 62t97 174z" />
<glyph d="M325 688q30 39 93.5 65t128.5 26q78 0 139 -26.5t97 -69.5t54 -94t18 -104q0 -57 -19 -150q-39 -183 -139.5 -267.5t-268.5 -84.5q-77 0 -138.5 26t-97.5 69t-54.5 93t-18.5 103q0 57 42 270.5t77 368.5q41 182 141 267t267 85q53 0 98 -12t78.5 -33.5t59 -49.5t41.5 -61 t24 -67.5t8 -68.5q0 -33 -9 -82h-126q6 38 6 63q0 56 -22.5 97.5t-68 64.5t-108.5 23q-90 0 -160.5 -59t-94.5 -166q-4 -17 -11.5 -54.5t-17 -84.5t-18.5 -87zM524 652q-44 0 -84.5 -14t-74.5 -42t-59 -71t-37 -97q-21 -101 -21 -134q0 -56 23 -97.5t68 -64.5t108 -23 q91 0 161.5 58.5t93.5 165.5q19 92 19 150q0 72 -50 120.5t-147 48.5z" />
<glyph d="M976 1121l-632 -1121h-150l632 1121h-559l27 127h709z" />
<glyph d="M838 388q0 -120 -42.5 -210t-132 -142.5t-218.5 -52.5q-65 0 -120.5 18.5t-92.5 49.5t-63 71.5t-38 82.5t-12 84q0 133 53.5 229t157.5 140q-75 82 -75 194q0 88 26 163t75.5 131t126 87.5t173.5 31.5q67 0 124 -25.5t93 -67t55.5 -92t19.5 -102.5q0 -128 -52.5 -225 t-152.5 -146q47 -44 71 -102t24 -117zM248 306q0 -86 56.5 -141.5t160.5 -55.5q99 0 171.5 72.5t72.5 187.5q0 42 -14 77.5t-40.5 62.5t-68.5 42t-94 15q-99 0 -171.5 -72.5t-72.5 -187.5zM820 959q0 82 -53.5 131t-134.5 49q-106 0 -177.5 -79.5t-71.5 -188.5 q0 -82 53 -130.5t134 -48.5q106 0 178 79t72 188z" />
<glyph d="M731 559q-31 -38 -94.5 -64t-128.5 -26q-62 0 -114.5 17.5t-87.5 46.5t-59.5 67.5t-36 79.5t-11.5 83q0 52 20 150q27 122 81 200.5t135 115t192 36.5q78 0 139 -26.5t97 -69.5t54 -93t18 -103q0 -57 -41.5 -270t-77.5 -368q-41 -183 -140.5 -267.5t-267.5 -84.5 q-62 0 -114.5 17t-87.5 46t-59.5 67t-35.5 78.5t-11 82.5q0 38 9 83h126q-7 -39 -7 -63q0 -85 52.5 -135t147.5 -50q90 0 160.5 58.5t93.5 165.5q4 16 20 95t29 131zM531 595q59 0 110 25t90 76.5t55 123.5q21 105 21 134q0 85 -52.5 135t-147.5 50q-90 0 -160 -58.5 t-94 -166.5q-20 -96 -20 -149q0 -72 50 -121t148 -49z" />
<glyph d="M828 335q-40 -183 -140 -267.5t-268 -84.5q-77 0 -138 26t-97 69t-54.5 93t-18.5 103q0 57 42 270.5t77 368.5q41 182 141 267t267 85q53 0 98 -12t78.5 -33.5t59 -49.5t41.5 -61t24 -67.5t8 -68.5q0 -30 -13.5 -113.5t-34 -184t-39 -189t-33.5 -151.5zM365 914 q-3 -18 -40 -184t-61 -285t-24 -151q0 -85 53 -135t147 -50q91 0 161.5 58.5t93.5 165.5q3 14 40.5 183.5t61 287.5t23.5 150q0 56 -23 97.5t-68.5 64.5t-108.5 23q-91 0 -162 -59t-93 -166z" />
<glyph d="M828 335q-40 -183 -140 -267.5t-268 -84.5q-77 0 -138 26t-97 69t-54.5 93t-18.5 103q0 57 42 270.5t77 368.5q41 182 141 267t267 85q53 0 98 -12t78.5 -33.5t59 -49.5t41.5 -61t24 -67.5t8 -68.5q0 -30 -13.5 -113.5t-34 -184t-39 -189t-33.5 -151.5zM695 333 q5 23 40.5 188t53.5 256l-546 -452q-3 -19 -3 -31q0 -85 53 -135t147 -50q91 0 161.5 58.5t93.5 165.5zM365 914q-6 -32 -23 -109.5t-38.5 -172.5t-34.5 -161l547 452q4 24 4 31q0 56 -23 97.5t-68.5 64.5t-108.5 23q-91 0 -162 -59t-93 -166z" />
<glyph horiz-adv-x="629" d="M235 0l226 1054l-283 -204l40 192l282 206h138l-266 -1248h-137z" />
<glyph horiz-adv-x="920" d="M-3 0l28 132l547 488q43 40 73 70.5t63.5 74t51 91t17.5 96.5q0 84 -52 133t-146 49q-99 0 -170.5 -70.5t-89.5 -192.5h-137q38 203 138.5 298.5t278.5 95.5q77 0 138.5 -26t97.5 -69t54.5 -94t18.5 -107q0 -61 -13.5 -116.5t-34 -97.5t-55 -86t-66.5 -75.5t-78 -71.5 l-438 -390h523l-28 -132h-721z" />
<glyph horiz-adv-x="923" d="M383 -17q-77 0 -138 25.5t-97.5 68.5t-55.5 94t-19 107q0 49 9 79h130q-7 -36 -7 -61q0 -84 53 -133t147 -49q72 0 131.5 39t92 100.5t32.5 129.5q0 49 -21 90t-63 65.5t-98 24.5h-91l29 130h91q56 0 107.5 23t87 59.5t56.5 83t21 93.5q0 83 -52.5 132.5t-144.5 49.5 q-49 0 -92.5 -17.5t-78 -50t-58.5 -81.5t-33 -110h-137q38 201 139 295.5t279 94.5q77 0 138.5 -26t98 -69t55.5 -94.5t19 -106.5q0 -128 -63 -222t-162 -138q49 -34 77.5 -90.5t28.5 -122.5q0 -83 -25.5 -156t-74.5 -131.5t-129.5 -92t-181.5 -33.5z" />
<glyph horiz-adv-x="931" d="M506 0l72 333h-571l29 126l736 789h136l-167 -789h130l-26 -126h-131l-71 -333h-137zM209 459h395l117 542z" />
<glyph horiz-adv-x="931" d="M412 -17q-78 0 -139.5 25.5t-97.5 68.5t-54.5 94t-18.5 107q0 40 8 79h130q-7 -39 -7 -61q0 -84 53 -133t146 -49q90 0 162.5 61.5t95.5 169.5q19 90 19 147q0 73 -50 121t-146 48q-66 0 -125 -35.5t-94 -100.5h-141l153 723h660l-27 -133h-522l-87 -404q29 36 86 59 t120 23q78 0 139 -26t97.5 -69.5t55.5 -95t19 -107.5q0 -38 -27 -157q-39 -182 -139 -268.5t-269 -86.5z" />
<glyph horiz-adv-x="943" d="M408 -17q-63 0 -115 17t-87.5 45.5t-60 66.5t-36 80t-11.5 86q0 54 41 263.5t77 366.5q41 183 141 270t269 87q77 0 138.5 -26t97.5 -69t54.5 -94t18.5 -107q0 -36 -8 -78h-131q8 43 8 61q0 83 -53 132.5t-145 49.5q-90 0 -159.5 -59t-93.5 -162q-32 -158 -47 -220 q15 19 39.5 35t53.5 27.5t62 18t64 6.5q78 0 139.5 -25.5t98 -69t55 -95t18.5 -107.5q0 -50 -20 -145q-38 -182 -138.5 -268.5t-269.5 -86.5zM428 114q89 0 158.5 59t92.5 162q20 92 20 144q0 74 -50 121.5t-146 47.5q-90 0 -159.5 -58.5t-92.5 -161.5q-21 -106 -21 -132 q0 -84 52 -133t146 -49z" />
<glyph horiz-adv-x="804" d="M109 0l632 1115h-561l29 133h711l-27 -133l-631 -1115h-153z" />
<glyph horiz-adv-x="916" d="M398 -17q-66 0 -121.5 18.5t-93 49t-64 71t-38 83.5t-11.5 87q0 133 52.5 227.5t155.5 139.5q-73 81 -73 196q0 67 15.5 127t48.5 112t79.5 90t112.5 59.5t145 21.5q68 0 125 -25.5t93.5 -67t56.5 -93.5t20 -106q0 -122 -51.5 -219t-150.5 -147q45 -44 68.5 -102.5 t23.5 -118.5q0 -121 -42.5 -210.5t-132.5 -141t-218 -51.5zM417 114q98 0 170 72t72 183q0 86 -55.5 141.5t-159.5 55.5q-98 0 -170.5 -71.5t-72.5 -183.5q0 -85 56.5 -141t159.5 -56zM524 692q105 0 175.5 77t70.5 183q0 55 -25 97t-67 63.5t-95 21.5q-105 0 -175.5 -77 t-70.5 -184q0 -82 53 -131.5t134 -49.5z" />
<glyph horiz-adv-x="943" d="M604 1265q77 0 138.5 -26t98 -69t55 -94t18.5 -107q0 -55 -40.5 -261.5t-77.5 -369.5q-41 -182 -141 -268.5t-269 -86.5q-77 0 -138.5 25.5t-97.5 68.5t-54.5 94t-18.5 107q0 36 8 79h131q-7 -39 -7 -61q0 -84 52.5 -133t144.5 -49q44 0 84.5 15t74 42.5t58.5 69.5t36 94 q38 182 47 219q-31 -37 -93.5 -62t-126.5 -25q-77 0 -138.5 26t-97.5 69t-54.5 95t-18.5 108q0 52 19 143q38 183 138.5 270t269.5 87zM585 1134q-90 0 -160 -59t-92 -162q-20 -92 -20 -145q0 -73 50.5 -121t146.5 -48q58 0 109 25t89 76t52 120q22 105 22 132q0 84 -52 133 t-145 49z" />
<glyph horiz-adv-x="965" d="M816 338q-27 -122 -80.5 -200.5t-135 -116.5t-194.5 -38q-77 0 -138.5 25.5t-97.5 68.5t-54.5 94t-18.5 107q0 54 40.5 258t78.5 372q41 183 141 270t269 87q77 0 138.5 -26t97.5 -69t54.5 -94t18.5 -107q0 -54 -40.5 -258.5t-78.5 -372.5zM679 335q2 9 39 177t55 260 l-543 -447q-2 -13 -2 -29q0 -84 52.5 -133t144.5 -49q90 0 161.5 59t92.5 162zM353 913q-4 -20 -40.5 -184.5t-54.5 -254.5l542 449q4 24 4 29q0 83 -53 132.5t-145 49.5q-90 0 -160.5 -59t-92.5 -162z" />
<glyph horiz-adv-x="965" d="M816 338q-27 -122 -80.5 -200.5t-135 -116.5t-194.5 -38q-77 0 -138.5 25.5t-97.5 68.5t-54.5 94t-18.5 107q0 54 40.5 258t78.5 372q41 183 141 270t269 87q77 0 138.5 -26t97.5 -69t54.5 -94t18.5 -107q0 -54 -40.5 -258.5t-78.5 -372.5zM679 335q2 9 39 177t55 260 l-543 -447q-2 -13 -2 -29q0 -84 52.5 -133t144.5 -49q90 0 161.5 59t92.5 162zM353 913q-4 -20 -40.5 -184.5t-54.5 -254.5l542 449q4 24 4 29q0 83 -53 132.5t-145 49.5q-90 0 -160.5 -59t-92.5 -162z" />
<glyph horiz-adv-x="578" d="M311 704q-82 0 -129.5 42.5t-47.5 112.5q0 67 33 107t113 61q78 19 239 22q1 7 1 18q0 39 -25.5 62.5t-74.5 23.5q-26 0 -48 -9.5t-37.5 -25.5t-24.5 -37h-118q24 91 80.5 136t162.5 45q85 0 141 -48t56 -131q0 -21 -2.5 -45t-5 -36t-9.5 -45.5t-9 -43.5l-43 -199h-116 l12 63q-12 -20 -32.5 -36t-50.5 -26.5t-65 -10.5zM326 813q25 0 48 4.5t48.5 16t44.5 37t26 61.5l4 16q-140 -5 -189 -18q-62 -15 -62 -59q0 -30 22 -44t58 -14z" />
<glyph horiz-adv-x="585" d="M385 813q45 0 77 27t43 68q2 11 7.5 38t10.5 50t9 44.5t4 26.5q0 39 -26 62.5t-75 23.5q-45 0 -76.5 -27.5t-40.5 -69.5q-8 -29 -20.5 -88t-12.5 -68q0 -26 10.5 -45t33.5 -30.5t56 -11.5zM394 704q-57 0 -90 23.5t-46 56.5l-14 -70h-116l156 724h115l-52 -241 q17 29 52 47t75 18q66 0 120 -49.5t54 -129.5q0 -21 -2.5 -44t-5.5 -37.5t-10 -44.5t-10 -44q-14 -66 -44 -112.5t-76 -71.5t-106 -25z" />
<glyph horiz-adv-x="561" d="M358 704q-55 0 -100 21t-72.5 62.5t-27.5 96.5q0 21 3 43.5t6 37.5t10 44t10 44q23 105 79.5 157t170.5 52q85 0 141 -48t56 -131v-16h-112v7q0 33 -26 56t-74 23q-45 0 -76.5 -27.5t-41.5 -69.5q-33 -132 -33 -156q0 -39 26 -63t75 -24q42 0 72 23.5t42 61.5h118 q-24 -98 -80 -146t-166 -48z" />
<glyph horiz-adv-x="585" d="M372 813q45 0 76.5 27t41.5 68q32 132 32 159q0 19 -6 34.5t-18.5 27t-31.5 18t-44 6.5q-45 0 -76.5 -27.5t-41.5 -69.5q-33 -132 -33 -156q0 -39 26 -63t75 -24zM333 704q-65 0 -120 50t-55 130q0 21 3 43.5t6 37.5t10 44t10 44q22 100 79.5 154.5t146.5 54.5 q57 0 90.5 -23.5t45.5 -57.5l53 257h116l-155 -724h-116l12 54q-8 -13 -21 -25t-29 -20.5t-36 -13.5t-40 -5z" />
<glyph horiz-adv-x="571" d="M358 704q-55 0 -100 21t-72.5 62.5t-27.5 96.5q0 21 3 43.5t6 37.5t10 44t10 44q23 105 79.5 157t170.5 52q85 0 141 -48t56 -131q0 -56 -21 -141h-335q-7 -29 -7 -42q0 -39 26 -63t75 -24q37 0 66 19.5t45 51.5h117q-25 -91 -80.5 -135.5t-161.5 -44.5zM299 1042h220 q3 12 3 25q0 19 -6 34.5t-18.5 27t-31.5 18t-44 6.5q-51 0 -83.5 -32.5t-39.5 -78.5z" />
<glyph horiz-adv-x="361" d="M155 714l91 427h-75l23 107h75l13 58q14 65 52 98.5t110 33.5h112l-24 -109h-81q-21 0 -33 -5.5t-17.5 -16.5t-9.5 -33l-6 -26h132l-24 -107h-131l-91 -427h-116z" />
<glyph horiz-adv-x="582" d="M311 513q-84 0 -140.5 48.5t-56.5 131.5v13h112q0 -23 10.5 -41t34 -29.5t55.5 -11.5q46 0 79 26.5t42 68.5l20 83q-17 -27 -52.5 -45.5t-76.5 -18.5q-19 0 -39.5 5.5t-40 15.5t-36 25.5t-29.5 34.5t-20.5 44t-7.5 53q0 11 0.5 20.5t0.5 16.5t1.5 16t2 13t2.5 15.5 t2.5 15t4 19t5.5 21.5q23 100 80.5 154.5t145.5 54.5q39 0 68.5 -13t44.5 -30t22 -38l14 67h116l-112 -525q-23 -106 -80 -158t-172 -52zM378 847q44 0 76 27t41 68q25 104 25 125q0 39 -25.5 62.5t-74.5 23.5q-45 0 -76.5 -27t-42.5 -70q-25 -98 -25 -122q0 -27 11 -46 t34 -30t57 -11z" />
<glyph horiz-adv-x="595" d="M128 714l156 724h115l-52 -241q16 26 50 45.5t72 19.5q49 0 89.5 -21.5t65 -62.5t24.5 -95q0 -17 -1 -33t-4.5 -35.5t-5 -29.5t-7.5 -36t-8 -36l-43 -199h-116l42 194q2 13 11 51.5t15.5 70t6.5 37.5q0 39 -26 62.5t-75 23.5q-45 0 -76.5 -27.5t-41.5 -69.5l-75 -342 h-116z" />
<glyph horiz-adv-x="265" d="M128 714l115 534h115l-114 -534h-116zM258 1326l26 112h115l-25 -112h-116z" />
<glyph horiz-adv-x="265" d="M23 524l25 110h15q30 0 41.5 11t18.5 43l120 560h115l-127 -592q-13 -65 -51.5 -98.5t-109.5 -33.5h-47zM258 1326l26 112h115l-25 -112h-116z" />
<glyph horiz-adv-x="559" d="M399 1438l-81 -384l216 194h156l-238 -209l154 -325h-125l-116 248l-83 -75l-38 -173h-116l156 724h115z" />
<glyph horiz-adv-x="294" d="M308 714h-14q-67 0 -101.5 36t-34.5 80q0 9 1 17t3 22.5t4.5 29t8 42t11.5 54.5t16.5 75.5t20.5 95t26.5 122.5t32.5 150h116q-124 -575 -124 -581q0 -12 5 -20t14.5 -11t24.5 -3h15z" />
<glyph horiz-adv-x="911" d="M128 714l115 534h115l-11 -51q15 26 51 45.5t71 19.5q40 0 75 -18.5t55 -48.5q27 33 77.5 50t91.5 17q90 0 144 -48t54 -131q0 -21 -3 -45t-5 -36t-9.5 -45.5t-9.5 -43.5l-43 -199h-116l41 194q3 12 11.5 51.5t14.5 70.5t6 37q0 38 -24.5 62t-68 24t-76 -28t-41.5 -69 l-73 -342h-116l41 194q2 11 8 37.5t11 50t9 45t4 26.5q0 38 -24.5 62t-67.5 24t-75.5 -28t-40.5 -69l-75 -342h-116z" />
<glyph horiz-adv-x="573" d="M372 813q45 0 76.5 27t41.5 68q32 132 32 159q0 19 -6 34.5t-18.5 27t-31.5 18t-44 6.5q-45 0 -76.5 -27.5t-41.5 -69.5q-33 -132 -33 -156q0 -39 26 -63t75 -24zM358 704q-55 0 -100 21t-72.5 62.5t-27.5 96.5q0 21 3 43.5t6 37.5t10 44t10 44q23 105 79.5 157t170.5 52 q85 0 141 -48t56 -131q0 -21 -2.5 -45t-5 -36t-10 -45.5t-9.5 -43.5q-23 -105 -79.5 -157t-169.5 -52z" />
<glyph horiz-adv-x="585" d="M385 813q45 0 77 27t43 68q2 11 7.5 38t10.5 50t9 44.5t4 26.5q0 39 -26 62.5t-75 23.5q-45 0 -76.5 -27.5t-40.5 -69.5q-8 -29 -20.5 -88t-12.5 -68q0 -26 10.5 -45t33.5 -30.5t56 -11.5zM89 524l154 724h115l-11 -51q17 29 52 47t75 18q66 0 120 -49.5t54 -129.5 q0 -21 -2.5 -44t-5.5 -37.5t-10 -44.5t-10 -44q-14 -66 -44 -112.5t-76 -71.5t-106 -25q-57 0 -90 23.5t-46 56.5l-53 -260h-116z" />
<glyph horiz-adv-x="585" d="M372 813q45 0 76.5 27t41.5 68q32 132 32 159q0 19 -6 34.5t-18.5 27t-31.5 18t-44 6.5q-45 0 -76.5 -27.5t-41.5 -69.5q-33 -132 -33 -156q0 -39 26 -63t75 -24zM406 524l53 244q-8 -13 -21 -25t-29 -20.5t-36 -13.5t-40 -5q-65 0 -120 50t-55 130q0 21 3 43.5t6 37.5 t10 44t10 44q22 100 79.5 154.5t146.5 54.5q57 0 90.5 -23.5t45.5 -57.5l12 67h116l-155 -724h-116z" />
<glyph horiz-adv-x="372" d="M244 714h-116l115 534h115l-13 -56q8 13 20.5 24.5t28 21t35 15t38.5 5.5h58l-25 -114h-65q-31 0 -55.5 -12t-40 -32.5t-21.5 -48.5z" />
<glyph horiz-adv-x="510" d="M347 704q-97 0 -158 44.5t-61 118.5v19h112v-7q0 -28 36.5 -47t78.5 -19q25 0 45.5 5.5t34.5 17.5t14 28q0 21 -12.5 32.5t-38.5 19.5l-113 34q-46 15 -74.5 48.5t-28.5 89.5q0 86 55.5 130t154.5 44q91 0 143.5 -46.5t52.5 -114.5v-9h-114v8q0 23 -28 38t-65 15 q-38 0 -61.5 -13.5t-23.5 -36.5q0 -22 9.5 -32.5t31.5 -16.5l112 -35q54 -18 84 -52t30 -81q0 -61 -29 -102.5t-76.5 -60.5t-110.5 -19z" />
<glyph horiz-adv-x="386" d="M401 714h-80q-34 0 -61 11t-42.5 28.5t-23 37t-7.5 39.5q0 29 10.5 87.5t46.5 223.5h-74l22 107h75l27 121h116l-27 -121h132l-23 -107h-132q-57 -271 -57 -284q0 -19 10 -26.5t32 -7.5h79z" />
<glyph horiz-adv-x="588" d="M337 704q-65 0 -117 49.5t-52 130.5q0 21 3 44t5.5 36.5t9.5 45t10 43.5l41 195h116l-42 -192q-1 -7 -10 -48.5t-15 -71t-6 -36.5q0 -39 26 -63t66 -24q32 0 58 13t41.5 34t21.5 48l73 340h116l-114 -534h-116l13 54q-11 -24 -48.5 -44t-79.5 -20z" />
<glyph horiz-adv-x="503" d="M251 714l-80 534h113l49 -369l207 369h128l-304 -534h-113z" />
<glyph horiz-adv-x="722" d="M207 714l-29 534h114l11 -359l162 359h121l11 -354l156 354h126l-253 -534h-114l-13 382l-171 -382h-121z" />
<glyph horiz-adv-x="523" d="M71 714l237 275l-117 259h117l73 -168l148 168h143l-235 -267l121 -267h-120l-74 175l-150 -175h-143z" />
<glyph horiz-adv-x="503" d="M98 524l25 110h18q13 0 23 3t16 5t14 12t10 13.5t11.5 20.5t12.5 23l18 30l-75 507h116l48 -359l203 359h130l-369 -644q-47 -80 -139 -80h-62z" />
<glyph horiz-adv-x="471" d="M570 1141l-299 -320h241l-24 -107h-396l24 107l299 320h-228l24 107h382z" />
<glyph horiz-adv-x="573" d="M358 704q-88 0 -143 51t-55 139q0 16 13 83t30.5 150.5t20.5 101.5q10 52 27.5 90t46 68.5t73 46t105.5 15.5q88 0 142 -51.5t54 -139.5q0 -16 -13 -82.5t-30.5 -150.5t-21.5 -102q-10 -52 -26.5 -90t-45 -68t-72.5 -45.5t-105 -15.5zM372 813q50 0 79.5 30t40.5 77 q1 4 44 208l-260 -214q-2 -7 -2 -16q0 -42 30.5 -63.5t67.5 -21.5zM342 1233q-24 -98 -44 -208l260 213q0 4 0.5 10t0.5 7q0 41 -31 63t-67 22q-49 0 -78 -30t-41 -77z" />
<glyph horiz-adv-x="316" d="M139 714l32 146h144l-30 -146h-146z" />
<glyph horiz-adv-x="407" d="M160 955l22 99h299l-22 -99h-299z" />
<glyph horiz-adv-x="316" d="M139 714l32 146h144l-30 -146l-64 -110h-85l63 110h-60z" />
<glyph horiz-adv-x="578" d="M123 -184q-82 0 -130 42.5t-48 112.5q0 68 32.5 107.5t112.5 60.5q79 20 240 23q1 7 1 18q0 39 -25 62t-75 23q-25 0 -47.5 -9t-38 -25t-24.5 -37h-118q25 90 81 135t162 45q85 0 141.5 -47.5t56.5 -130.5q0 -22 -3 -45.5t-5 -36t-9.5 -45.5t-9.5 -44l-43 -198h-116 l13 63q-20 -31 -59 -52.5t-89 -21.5zM137 -75q25 0 48 4.5t48.5 16.5t44.5 37t26 61l4 17q-140 -5 -189 -18q-62 -15 -62 -59q0 -30 22.5 -44.5t57.5 -14.5z" />
<glyph horiz-adv-x="585" d="M196 -75q45 0 76.5 27.5t42.5 69.5q2 10 8 36.5t11 50t9 45t4 26.5q0 39 -26 62t-75 23q-30 0 -55 -12.5t-41 -34t-22 -48.5q-3 -13 -8.5 -37.5t-10.5 -49t-8.5 -45.5t-3.5 -26q0 -39 25 -63t74 -24zM205 -184q-39 0 -68.5 13.5t-44 30t-22.5 36.5l-15 -69h-116l156 724 h116l-53 -241q17 28 52 46t75 18q66 0 120 -49t54 -129q0 -22 -2.5 -45t-5.5 -37t-9.5 -44t-9.5 -45q-15 -66 -45 -112t-76 -71.5t-106 -25.5z" />
<glyph horiz-adv-x="561" d="M170 -184q-86 0 -143 49t-57 132q0 16 1.5 32.5t4.5 34t6 31t8 35t8 35.5q23 106 79.5 157.5t170.5 51.5q86 0 141.5 -47.5t55.5 -130.5v-16h-112v7q0 21 -10.5 38.5t-33.5 28.5t-56 11q-44 0 -76 -26.5t-41 -68.5q-4 -14 -9.5 -37.5t-11 -49t-9.5 -46t-4 -25.5 q0 -39 26 -63t76 -24q41 0 71 24t43 61h117q-24 -97 -80 -145.5t-165 -48.5z" />
<glyph horiz-adv-x="585" d="M184 -75q44 0 76 27.5t41 69.5q32 132 32 158q0 39 -25.5 62t-74.5 23q-44 0 -76 -26.5t-41 -68.5q-4 -14 -9.5 -37.5t-11 -49t-9.5 -46t-4 -25.5q0 -39 26 -63t76 -24zM144 -184q-65 0 -119.5 50t-54.5 131q0 16 1.5 32.5t4.5 34t6 31t8 35t8 35.5q15 67 45 113.5t76 71 t105 24.5q40 0 69.5 -12.5t44 -29.5t22.5 -38l53 257h116l-155 -724h-116l13 54q-17 -28 -52 -46.5t-75 -18.5z" />
<glyph horiz-adv-x="571" d="M170 -184q-86 0 -143 49t-57 132q0 16 1.5 32.5t4.5 34t6 31t8 35t8 35.5q23 106 79.5 157.5t170.5 51.5q86 0 141.5 -47.5t55.5 -130.5q0 -53 -21 -141h-335q-7 -29 -7 -43q0 -39 26 -63t76 -24q37 0 65.5 19.5t44.5 52.5h118q-13 -45 -31.5 -77t-46.5 -56t-69 -36 t-95 -12zM110 155h220q3 12 3 25q0 39 -25.5 62t-74.5 23q-51 0 -83 -32.5t-40 -77.5z" />
<glyph horiz-adv-x="361" d="M-34 -173l91 426h-74l22 107h75l12 58q14 65 52.5 99t110.5 34h112l-23 -109h-82q-21 0 -33 -6t-17.5 -17t-10.5 -33l-5 -26h132l-24 -107h-131l-91 -426h-116z" />
<glyph horiz-adv-x="582" d="M123 -374q-85 0 -141.5 48.5t-56.5 131.5v12h112q0 -35 26 -58.5t74 -23.5q46 0 79 27t42 69l20 83q-17 -28 -52.5 -46.5t-75.5 -18.5q-65 0 -119 49.5t-54 129.5v20.5v16t1.5 16t2 13.5t2.5 15t3 14.5t4.5 19t4.5 21.5q11 50 31 88.5t48.5 65.5t65.5 41t81 14 q57 0 90 -23.5t46 -56.5l14 66h115l-112 -524q-23 -105 -80 -157.5t-171 -52.5zM189 -41q44 0 76 27.5t41 68.5q25 103 25 125q0 39 -25 62t-75 23q-45 0 -76.5 -26.5t-42.5 -68.5q-25 -99 -25 -124q0 -40 26 -63.5t76 -23.5z" />
<glyph horiz-adv-x="595" d="M-61 -173l156 724h116l-53 -241q16 26 50 45t72 19q75 0 127 -49t52 -129q0 -18 -1 -34t-4 -35t-5 -29.5t-8 -36.5t-8 -36l-42 -198h-117l41 195q2 13 11 51t16 69t7 38q0 39 -26 62t-75 23q-45 0 -76.5 -26.5t-41.5 -68.5l-75 -343h-116z" />
<glyph horiz-adv-x="265" d="M-61 -173l114 533h117l-115 -533h-116zM70 438l25 113h116l-26 -113h-115z" />
<glyph horiz-adv-x="265" d="M-165 -364l24 111h15q21 0 32.5 5.5t17 16t10.5 32.5l119 559h117l-127 -591q-14 -65 -52 -99t-110 -34h-46zM70 438l25 113h116l-26 -113h-115z" />
<glyph horiz-adv-x="559" d="M211 551l-83 -383l217 192h155l-236 -209l153 -324h-125l-115 248l-85 -75l-37 -173h-116l156 724h116z" />
<glyph horiz-adv-x="294" d="M119 -173h-14q-67 0 -101 36t-34 80q0 28 11 85t57 272q33 151 54 251h117q-124 -576 -124 -581q0 -19 10.5 -26.5t32.5 -7.5h16z" />
<glyph horiz-adv-x="911" d="M-61 -173l114 533h117l-12 -50q16 26 51.5 45t70.5 19q41 0 76 -18t54 -48q28 33 78 49.5t91 16.5q60 0 104.5 -21.5t69 -62t24.5 -94.5q0 -22 -3 -45.5t-5 -36t-9.5 -45.5t-9.5 -44l-43 -198h-115l40 195q3 12 11.5 51t15 69.5t6.5 37.5q0 37 -25 61t-68.5 24t-75.5 -27 t-42 -68l-73 -343h-116l41 195q2 10 8 36.5t11 50t9 45t4 26.5q0 37 -24.5 61t-67.5 24t-75 -27.5t-41 -67.5l-75 -343h-116z" />
<glyph horiz-adv-x="595" d="M-61 -173l114 533h117l-12 -50q16 26 50 45t72 19q75 0 127 -49t52 -129q0 -18 -1 -34t-4 -35t-5 -29.5t-8 -36.5t-8 -36l-42 -198h-117l41 195q2 13 11 51t16 69t7 38q0 39 -26 62t-75 23q-45 0 -76.5 -26.5t-41.5 -68.5l-75 -343h-116z" />
<glyph horiz-adv-x="573" d="M184 -75q44 0 76 27.5t41 69.5q32 132 32 158q0 39 -25.5 62t-74.5 23q-44 0 -76 -26.5t-41 -68.5q-4 -14 -9.5 -37.5t-11 -49t-9.5 -46t-4 -25.5q0 -39 26 -63t76 -24zM170 -184q-86 0 -143 49t-57 132q0 16 1.5 32.5t4.5 34t6 31t8 35t8 35.5q23 106 79.5 157.5 t170.5 51.5q86 0 141.5 -47.5t55.5 -130.5q0 -22 -2.5 -45.5t-5 -36t-9.5 -45.5t-10 -44q-15 -69 -41.5 -113t-78 -70t-128.5 -26z" />
<glyph horiz-adv-x="585" d="M196 -75q45 0 76.5 27.5t42.5 69.5q2 10 8 36.5t11 50t9 45t4 26.5q0 39 -26 62t-75 23q-30 0 -55 -12.5t-41 -34t-22 -48.5q-3 -13 -8.5 -37.5t-10.5 -49t-8.5 -45.5t-3.5 -26q0 -39 25 -63t74 -24zM-100 -364l153 724h117l-12 -50q17 28 52 46t75 18q66 0 120 -49 t54 -129q0 -22 -2.5 -45t-5.5 -37t-9.5 -44t-9.5 -45q-15 -66 -45 -112t-76 -71.5t-106 -25.5q-39 0 -68.5 13.5t-44 30t-22.5 36.5l-54 -260h-116z" />
<glyph horiz-adv-x="585" d="M184 -75q44 0 76 27.5t41 69.5q32 132 32 158q0 39 -25.5 62t-74.5 23q-44 0 -76 -26.5t-41 -68.5q-4 -14 -9.5 -37.5t-11 -49t-9.5 -46t-4 -25.5q0 -39 26 -63t76 -24zM218 -364l53 245q-17 -28 -52 -46.5t-75 -18.5q-65 0 -119.5 50t-54.5 131q0 16 1.5 32.5t4.5 34 t6 31t8 35t8 35.5q15 67 45 113.5t76 71t105 24.5q40 0 69.5 -12.5t44 -29.5t22.5 -38l12 66h116l-155 -724h-115z" />
<glyph horiz-adv-x="372" d="M55 -173h-116l114 533h117l-13 -56q10 18 28 32.5t42.5 24.5t50.5 10h59l-26 -114h-65q-46 0 -77.5 -25.5t-40.5 -67.5z" />
<glyph horiz-adv-x="510" d="M158 -184q-97 0 -158 45t-61 119v18h112v-7q0 -28 36 -47t78 -19q39 0 67 13.5t28 38.5q0 20 -12 31.5t-39 20.5l-112 34q-46 14 -75 48t-29 90q0 85 55 129t155 44q90 0 143 -46t53 -114v-9h-114v7q0 24 -27.5 38.5t-65.5 14.5q-37 0 -61 -13.5t-24 -35.5q0 -15 5 -24.5 t13.5 -14.5t22.5 -9l112 -36q55 -18 84.5 -52t29.5 -82q0 -60 -28.5 -101.5t-76.5 -61t-111 -19.5z" />
<glyph horiz-adv-x="386" d="M212 -173h-80q-66 0 -100 36t-34 80q0 30 10.5 89.5t46.5 220.5h-75l23 107h75l27 121h116l-27 -121h132l-23 -107h-132q-57 -271 -57 -283q0 -19 10 -26.5t33 -7.5h78z" />
<glyph horiz-adv-x="588" d="M148 -184q-65 0 -117.5 50t-52.5 131q0 16 1.5 32.5t5 34t6.5 31t8 35t8 35.5l41 195h116l-41 -190q-2 -9 -11 -49t-15.5 -70.5t-6.5 -38.5q0 -38 26.5 -62.5t67.5 -24.5q47 0 79 27.5t41 69.5l74 338h115l-114 -533h-115l12 54q-11 -24 -48.5 -44.5t-79.5 -20.5z" />
<glyph horiz-adv-x="503" d="M63 -173l-80 533h112l49 -369l207 369h128l-304 -533h-112z" />
<glyph horiz-adv-x="722" d="M17 -173l-27 533h114l10 -358l162 358h122l10 -353l157 353h125l-253 -533h-114l-13 382l-171 -382h-122z" />
<glyph horiz-adv-x="523" d="M-117 -173l236 275l-117 258h117l73 -168l148 168h143l-235 -265l121 -268h-119l-75 175l-150 -175h-142z" />
<glyph horiz-adv-x="503" d="M-90 -364l24 111h18q13 0 23.5 2.5t16.5 5t13.5 12t10 13.5t11.5 21t12 22l18 31l-74 506h115l48 -358l203 358h130l-369 -644q-46 -80 -139 -80h-61z" />
<glyph horiz-adv-x="471" d="M381 253l-299 -319h241l-24 -107h-396l24 107l299 319h-228l24 107h383z" />
<glyph horiz-adv-x="573" d="M170 -184q-89 0 -144 51.5t-55 139.5q0 16 13 82.5t30.5 150.5t21.5 102q10 52 27 90t45.5 68t73.5 45.5t105 15.5q88 0 142 -51t54 -139q0 -16 -13 -83t-30.5 -150.5t-21.5 -101.5q-10 -52 -26.5 -90t-44.5 -68.5t-72.5 -46t-104.5 -15.5zM184 -75q49 0 79 30.5t40 76.5 q1 5 44 208l-260 -213q-2 -7 -2 -17q0 -41 30.5 -63t68.5 -22zM153 345q-24 -98 -44 -208l260 214q0 4 1 10l1 6q0 42 -31 63.5t-68 21.5q-49 0 -78 -30t-41 -77z" />
<glyph horiz-adv-x="316" d="M-50 -173l33 146h143l-29 -146h-147z" />
<glyph horiz-adv-x="407" d="M-29 68l22 100h299l-21 -100h-300z" />
<glyph horiz-adv-x="316" d="M-50 -173l33 146h143l-29 -146l-65 -111h-85l63 111h-60z" />
<glyph horiz-adv-x="587" d="M-5 -55v99h450v-99h-450zM-5 178v100h450v-100h-450z" />
<glyph horiz-adv-x="587" d="M-5 68v100h176v174h100v-174h174v-100h-174v-177h-100v177h-176z" />
<glyph horiz-adv-x="587" d="M-5 68v100h450v-100h-450z" />
<glyph horiz-adv-x="527" d="M271 524l121 568l-164 -119l32 155l164 120h116l-154 -724h-115z" />
<glyph horiz-adv-x="634" d="M95 524l24 108l316 268q60 50 84.5 85t24.5 79q0 42 -30.5 63.5t-68.5 21.5q-29 0 -52 -11t-36.5 -30.5t-21 -39.5t-10.5 -43h-116q14 112 74 172.5t178 60.5q88 0 142.5 -51t54.5 -140q0 -66 -32.5 -123t-101.5 -116l-232 -196h276l-23 -108h-450z" />
<glyph horiz-adv-x="617" d="M337 513q-89 0 -144.5 51.5t-55.5 139.5q0 18 2 27h114q-2 -7 -2 -24q0 -41 32 -63t70 -22q55 0 85.5 32.5t30.5 90.5q0 39 -27 63.5t-66 24.5h-63l24 102h61q61 0 98.5 37.5t37.5 91.5q0 42 -30 63.5t-67 21.5q-32 0 -57.5 -14t-41 -38t-20.5 -55h-117q10 50 27 87.5 t45.5 67.5t73 45.5t104.5 15.5q89 0 143 -51t54 -140q0 -56 -33.5 -114t-82.5 -82q16 -13 27.5 -32t18.5 -42.5t7 -46.5t-4 -46t-13.5 -51.5t-28 -52t-44.5 -43.5t-67 -32t-91 -12z" />
<glyph horiz-adv-x="566" d="M328 524l37 176h-317l22 106l411 442h116l-94 -442h76l-23 -106h-75l-37 -176h-116zM224 806h162l51 226z" />
<glyph horiz-adv-x="622" d="M358 513q-57 0 -102 22.5t-70.5 66t-25.5 102.5q0 9 4 27h114q-1 -4 -1.5 -8.5t-1 -7t-1 -4.5t-0.5 -4q0 -42 30.5 -63.5t67.5 -21.5q34 0 59.5 16t38.5 38t20 51q2 12 6 28t5.5 24.5t1.5 16.5q0 43 -31 64.5t-67 21.5q-38 0 -64.5 -17.5t-37.5 -44.5h-119l92 428h414 l-25 -109h-298l-36 -175q13 11 38.5 20t55.5 9q84 0 138 -52t54 -139q0 -23 -10 -69q-10 -52 -26.5 -90t-45 -68.5t-72.5 -46t-105 -15.5z" />
<glyph horiz-adv-x="615" d="M345 513q-88 0 -142.5 51.5t-54.5 139.5q0 16 13 82.5t30.5 150.5t20.5 102q10 52 27 90t45.5 68t73 45.5t105.5 15.5q88 0 142 -51t54 -140q0 -14 -1 -26h-114q0 3 1 8l1.5 7.5t0.5 4.5v3q0 42 -31 63.5t-67 21.5q-50 0 -79.5 -30.5t-39.5 -76.5l-20 -90q40 31 102 31 q85 0 137.5 -51t52.5 -138q0 -29 -7 -61q-17 -107 -74.5 -163.5t-175.5 -56.5zM360 622q50 0 78.5 30t40.5 77q9 38 9 60q0 43 -30 64.5t-67 21.5q-49 0 -79 -30t-40 -75q-10 -41 -10 -63q0 -42 30.5 -63.5t67.5 -21.5z" />
<glyph horiz-adv-x="500" d="M158 524l352 615h-316l24 109h445l-25 -109l-351 -615h-129z" />
<glyph horiz-adv-x="587" d="M331 513q-94 0 -152 53.5t-58 140.5q0 147 114 201q-43 51 -43 129q0 15 2.5 31.5t9 39t17 42.5t29.5 40t43 35t59.5 24t79.5 9q92 0 150.5 -53.5t58.5 -143.5q0 -20 -4.5 -42.5t-15 -51t-33 -55.5t-54.5 -45q44 -52 44 -124q0 -75 -31.5 -127t-86 -77.5t-129.5 -25.5z M347 622q49 0 82.5 33t33.5 81q0 44 -27.5 74t-82.5 30q-48 0 -83 -33t-35 -80q0 -28 11 -51t37.5 -38.5t63.5 -15.5zM418 935q46 0 77.5 31.5t31.5 75.5q0 53 -31 80t-81 27q-46 0 -77.5 -31t-31.5 -76q0 -52 31.5 -79.5t80.5 -27.5z" />
<glyph horiz-adv-x="615" d="M335 513q-88 0 -142 51.5t-54 139.5q0 15 2 27h114q-2 -12 -2 -24q0 -42 30 -63.5t68 -21.5q49 0 78.5 30.5t39.5 76.5q13 53 21 91q-45 -33 -104 -33q-55 0 -98 22.5t-67.5 66t-24.5 100.5q0 20 7 63q17 107 74.5 163t176.5 56q88 0 142.5 -51t54.5 -140q0 -15 -13 -82 t-30.5 -150.5t-21.5 -101.5q-10 -53 -26.5 -90.5t-45 -68t-73.5 -46t-106 -15.5zM408 896q50 0 78.5 29.5t38.5 75.5q11 41 11 63t-9 39t-24 26.5t-31.5 14.5t-33.5 5q-49 0 -78 -30t-39 -77q-11 -39 -11 -61q0 -29 16.5 -49t37.5 -28t44 -8z" />
<glyph horiz-adv-x="626" d="M345 513q-88 0 -142.5 51.5t-54.5 139.5q0 16 13 82.5t30.5 150.5t20.5 102q10 52 27 90t45.5 68t73 45.5t105.5 15.5q88 0 142 -51t54 -140q0 -15 -12.5 -82t-30 -150.5t-21.5 -101.5q-10 -52 -26.5 -90t-45 -68.5t-73 -46t-105.5 -15.5zM360 622q34 0 60 16t39.5 39 t19.5 52q1 4 45 208l-260 -214q-2 -7 -2 -16q0 -42 30.5 -63.5t67.5 -21.5zM330 1042q-23 -95 -45 -209l260 214q0 5 1 11l1 6q0 42 -31 63.5t-67 21.5q-34 0 -59.5 -16t-39 -38.5t-20.5 -52.5z" />
<glyph horiz-adv-x="626" d="M345 513q-88 0 -142.5 51.5t-54.5 139.5q0 16 13 82.5t30.5 150.5t20.5 102q10 52 27 90t45.5 68t73 45.5t105.5 15.5q88 0 142 -51t54 -140q0 -15 -12.5 -82t-30 -150.5t-21.5 -101.5q-10 -52 -26.5 -90t-45 -68.5t-73 -46t-105.5 -15.5zM360 622q34 0 60 16t39.5 39 t19.5 52q1 4 45 208l-260 -214q-2 -7 -2 -16q0 -42 30.5 -63.5t67.5 -21.5zM330 1042q-23 -95 -45 -209l260 214q0 5 1 11l1 6q0 42 -31 63.5t-67 21.5q-34 0 -59.5 -16t-39 -38.5t-20.5 -52.5z" />
<glyph horiz-adv-x="527" d="M158 0l122 568l-164 -119l32 155l163 119h117l-154 -723h-116z" />
<glyph horiz-adv-x="634" d="M-16 0l25 109l316 267q60 51 84 85.5t24 78.5q0 42 -30.5 64t-67.5 22q-30 0 -52.5 -11.5t-36 -31.5t-21 -40t-11.5 -43h-116q29 234 253 234q88 0 142 -51t54 -139q0 -66 -32 -123t-102 -117l-231 -195h276l-23 -109h-451z" />
<glyph horiz-adv-x="617" d="M226 -10q-88 0 -143.5 51t-55.5 139q0 18 2 27h114q-2 -7 -2 -23q0 -22 9.5 -39t25.5 -27t33 -15t34 -5q27 0 48.5 8.5t36.5 24.5t22.5 38.5t7.5 51.5q0 39 -26.5 64t-66.5 25h-62l23 102h61q31 0 56.5 10t43 27.5t27.5 41t10 49.5q0 42 -30.5 64t-67.5 22q-47 0 -79 -30 t-40 -77h-117q11 50 28 87t45.5 67t73 45.5t103.5 15.5q89 0 143.5 -51t54.5 -139q0 -56 -33.5 -114.5t-82.5 -82.5q23 -19 37.5 -52t14.5 -69q0 -28 -5 -56t-21.5 -62t-42.5 -59t-72.5 -42t-106.5 -17z" />
<glyph horiz-adv-x="566" d="M218 0l37 177h-318l22 105l412 441h115l-94 -441h77l-24 -105h-74l-38 -177h-115zM114 282h162l50 226z" />
<glyph horiz-adv-x="622" d="M248 -10q-88 0 -143 51t-55 139q0 10 3 27h115q-1 -5 -2 -10.5t-1.5 -8.5t-0.5 -4q0 -42 30.5 -64t67.5 -22q49 0 78 30t39 75q3 10 6.5 27t5 25.5t1.5 16.5q0 43 -30.5 64.5t-67.5 21.5t-64 -17t-38 -45h-119l92 427h414l-25 -108h-297l-36 -175q12 11 38 20t56 9 q83 0 137 -52.5t54 -138.5q0 -23 -9 -69q-10 -52 -26.5 -90t-45 -68.5t-73 -45.5t-104.5 -15z" />
<glyph horiz-adv-x="615" d="M233 -10q-88 0 -142.5 51t-54.5 139q0 16 12.5 83t30.5 150.5t21 101.5q10 52 27 90t45.5 68t73 45.5t105.5 15.5q88 0 142 -51t54 -139q0 -15 -2 -27h-113q0 5 1 10.5t1.5 9l0.5 3.5q0 42 -31 64t-67 22q-34 0 -60 -16t-39.5 -39t-19.5 -52l-21 -91q41 31 102 31 q86 0 138.5 -50.5t52.5 -137.5q0 -30 -7 -62q-9 -52 -25.5 -90.5t-45.5 -68.5t-73.5 -45t-105.5 -15zM248 98q49 0 78 30t41 77q9 38 9 60q0 43 -30.5 64.5t-67.5 21.5q-49 0 -78.5 -29.5t-39.5 -75.5q-10 -41 -10 -62q0 -42 30.5 -64t67.5 -22z" />
<glyph horiz-adv-x="500" d="M46 0l352 615h-316l23 108h446l-26 -108l-350 -615h-129z" />
<glyph horiz-adv-x="587" d="M221 -10q-95 0 -153 53.5t-58 140.5q0 146 114 201q-42 50 -42 128q0 23 4.5 47.5t20 57t40 57t70 42t104.5 17.5q92 0 151 -54t59 -144q0 -19 -4.5 -41.5t-15 -51t-33.5 -55.5t-54 -44q43 -52 43 -125q0 -112 -66.5 -170.5t-179.5 -58.5zM237 98q48 0 82 33t34 81 q0 44 -27.5 73.5t-82.5 29.5q-49 0 -84 -33t-35 -79q0 -44 28.5 -74.5t84.5 -30.5zM308 412q46 0 77.5 31t31.5 76q0 52 -31.5 79.5t-81.5 27.5q-45 0 -76.5 -31.5t-31.5 -75.5q0 -53 31 -80t81 -27z" />
<glyph horiz-adv-x="615" d="M224 -10q-88 0 -141.5 51t-53.5 139q0 15 1 27h114q-1 -12 -1 -23q0 -42 30 -64t67 -22q50 0 79 30.5t39 76.5q14 53 21 91q-44 -32 -103 -32q-85 0 -138 51t-53 137q0 20 7 63q18 107 75.5 163t176.5 56q88 0 142 -51t54 -139q0 -16 -13 -83t-30.5 -150.5t-20.5 -101.5 q-10 -52 -26.5 -90t-45 -68.5t-73.5 -45.5t-107 -15zM298 372q20 0 38 6t30.5 15.5t22.5 23.5t16 28.5t10 32.5q10 40 10 62q0 42 -30 64t-67 22q-34 0 -59.5 -16t-38.5 -39t-19 -52q-12 -40 -12 -61q0 -43 31 -64.5t68 -21.5z" />
<glyph horiz-adv-x="624" d="M233 -10q-88 0 -142.5 51t-54.5 139q0 16 12.5 83t30.5 150.5t21 101.5q10 52 27 90t45.5 68t73 45.5t105.5 15.5q88 0 142 -51t54 -139q0 -13 -8.5 -59.5t-19 -96.5t-22 -105.5t-14.5 -73.5q-10 -52 -27 -90t-45.5 -68.5t-72.5 -45.5t-105 -15zM248 98q50 0 79.5 30.5 t39.5 76.5q1 5 45 208l-261 -214q-1 -7 -1 -15q0 -42 30.5 -64t67.5 -22zM218 519q-24 -96 -45 -209l260 214q0 4 1 10l1 6q0 42 -31 64t-67 22q-34 0 -59.5 -16t-39 -39t-20.5 -52z" />
<glyph horiz-adv-x="624" d="M233 -10q-88 0 -142.5 51t-54.5 139q0 16 12.5 83t30.5 150.5t21 101.5q10 52 27 90t45.5 68t73 45.5t105.5 15.5q88 0 142 -51t54 -139q0 -13 -8.5 -59.5t-19 -96.5t-22 -105.5t-14.5 -73.5q-10 -52 -27 -90t-45.5 -68.5t-72.5 -45.5t-105 -15zM248 98q50 0 79.5 30.5 t39.5 76.5q1 5 45 208l-261 -214q-1 -7 -1 -15q0 -42 30.5 -64t67.5 -22zM218 519q-24 -96 -45 -209l260 214q0 4 1 10l1 6q0 42 -31 64t-67 22q-34 0 -59.5 -16t-39 -39t-20.5 -52z" />
<glyph horiz-adv-x="1075" d="M360 0q-81 0 -145 32t-103 98.5t-39 158.5q0 64 12 117.5t38 99.5t68.5 83t100.5 65q-46 33 -73 92.5t-27 132.5q0 92 33 163t92 115.5t137 67.5t172 23h231l-27 -133h-233q-49 0 -94.5 -13.5t-84.5 -40t-63 -71.5t-24 -103q0 -85 49 -139.5t128 -54.5h232l30 145h137 l-32 -145h228l-29 -130h-226l-119 -563h-369zM386 132h234l91 431h-233q-114 0 -190.5 -67t-76.5 -183q0 -80 46 -130.5t129 -50.5z" />
<glyph horiz-adv-x="729" d="M643 544h-517l24 115h516z" />
<glyph horiz-adv-x="933" d="M847 544h-721l24 115h719z" />
<glyph horiz-adv-x="1465" d="M1379 544h-1253l24 115h1252z" />
<glyph horiz-adv-x="913" d="M311 891h-136q26 130 81 213t137 122t195 39q78 0 139 -26t97.5 -69t55 -94t18.5 -107t-16.5 -109.5t-43.5 -95.5t-56.5 -74.5t-62.5 -57.5l-126 -94q-44 -32 -63.5 -60t-29.5 -66l-7 -38h-136l7 39q12 71 47 121t104 102l124 95q127 97 127 221q0 23 -4 44.5t-13 39.5 t-21.5 33.5t-29 27.5t-36.5 20t-43.5 12.5t-50.5 4.5q-102 0 -170 -67.5t-87 -175.5zM253 0l39 187h187l-39 -187h-187z" />
<glyph horiz-adv-x="913" d="M638 357h137q-39 -194 -140.5 -284t-272.5 -90q-78 0 -139 25.5t-97.5 68.5t-55.5 94t-19 107q0 55 16.5 109t43.5 96t56.5 74.5t62.5 57.5l127 94q43 32 62.5 60t29.5 67l7 37h137l-7 -40q-12 -70 -47 -120t-104 -102l-125 -94q-126 -97 -126 -221q0 -84 52.5 -133 t144.5 -49q102 0 170.5 67.5t86.5 175.5zM697 1248l-39 -187h-187l39 187h187z" />
<glyph horiz-adv-x="507" d="M490 1248l-186 -874h-136l185 874h137zM63 0l39 187h187l-39 -187h-187z" />
<glyph horiz-adv-x="507" d="M87 0l185 873h138l-186 -873h-137zM515 1248l-39 -187h-187l39 187h187z" />
<glyph horiz-adv-x="532" d="M365 260l-241 262l27 132l355 262l-35 -168l-236 -172l161 -175z" />
<glyph horiz-adv-x="532" d="M223 916l240 -262l-26 -132l-355 -262l35 168l236 172l-161 175z" />
<glyph horiz-adv-x="850" d="M365 260l-241 262l27 132l355 262l-35 -168l-236 -172l161 -175zM684 260l-240 262l27 132l354 262l-36 -168l-235 -172l160 -175z" />
<glyph horiz-adv-x="850" d="M542 916l240 -262l-27 -132l-354 -262l36 168l235 172l-160 175zM223 916l240 -262l-26 -132l-355 -262l35 168l236 172l-161 175z" />
<glyph horiz-adv-x="503" d="M303 1035q9 46 18 77t23.5 56t32 39t45.5 24t61.5 13.5t82.5 3.5h29l-25 -113h-39q-54 0 -77 -19t-32 -67q-30 -141 -64.5 -298.5t-53 -245t-36 -169t-24.5 -118t-7 -43.5q0 -63 78 -63h40l-25 -112h-29q-86 0 -133 44.5t-47 120.5q0 11 8 53.5t25.5 125t37.5 174 t51.5 238.5t59.5 279z" />
<glyph horiz-adv-x="503" d="M272 212q-9 -46 -18 -76.5t-23.5 -55.5t-32 -39.5t-45.5 -24t-61.5 -13t-82.5 -3.5h-29l25 112h39q54 0 77 18.5t32 66.5q30 140 64.5 299t53 246t36 168.5t24.5 118t7 44.5q0 62 -78 62h-39l25 113h28q57 0 98 -21t61.5 -58t20.5 -88q0 -16 -19.5 -110t-71.5 -334 t-91 -425z" />
<glyph horiz-adv-x="505" d="M82 0l265 1248h248l-25 -113h-132l-215 -1023h132l-25 -112h-248z" />
<glyph horiz-adv-x="505" d="M493 1248l-265 -1248h-248l25 112h132l216 1023h-132l25 113h247z" />
<glyph horiz-adv-x="562" d="M248 529q0 28 -17.5 38.5t-60.5 10.5h-40l23 114h39q54 0 78.5 21t33.5 69l56 253q10 47 19.5 77t24 55.5t31.5 39.5t45 24t61.5 13.5t82.5 3.5h28l-25 -113h-39q-53 0 -76 -19t-33 -67l-55 -253q-5 -24 -7 -32t-7.5 -29t-9.5 -29.5t-11.5 -24t-16 -24t-21 -18 t-26.5 -15.5q39 -30 39 -82q0 -32 -35 -190.5t-35 -176.5q0 -63 78 -63h40l-26 -112h-28q-42 0 -76 12t-57 33.5t-35 52t-12 67.5q0 24 35 183.5t35 180.5z" />
<glyph horiz-adv-x="562" d="M385 718q0 -28 17 -38t61 -10h40l-24 -114h-39q-53 0 -78 -21t-34 -70l-56 -253q-10 -46 -19 -76.5t-23.5 -56t-32 -39.5t-45 -23.5t-61 -13t-82.5 -3.5h-29l25 112h39q54 0 77 18.5t32 66.5l56 254q5 24 6.5 31.5t7 29t9.5 30t12 24.5t16 24t20.5 17.5t27.5 16.5 q-39 29 -39 82q0 31 34.5 190t34.5 177q0 62 -78 62h-39l25 113h28q57 0 98 -21t61.5 -58t20.5 -88q0 -23 -34.5 -182.5t-34.5 -180.5z" />
<glyph horiz-adv-x="418" d="M185 0v1248h116v-1248h-116z" />
<glyph horiz-adv-x="418" d="M301 1248v-515h-116v515h116zM185 0v515h116v-515h-116z" />
<glyph horiz-adv-x="525" d="M184 525l40 188h188l-41 -188h-187z" />
<glyph horiz-adv-x="1599" d="M1183 1080v-722q0 -46 29 -73.5t73 -27.5t71.5 27.5t27.5 73.5v458q0 106 -45 199.5t-120 157.5t-175.5 101t-210 37t-210 -37t-175.5 -101t-119.5 -157.5t-44.5 -199.5v-392q0 -107 44.5 -200t119.5 -157t175.5 -101t209.5 -37q193 0 341 101l62 -100 q-175 -115 -403 -115q-138 0 -261 45t-212 124.5t-140.5 193.5t-51.5 246v392q0 132 51.5 246t140.5 193.5t212 124.5t261.5 45t261.5 -45t212 -124.5t141 -193.5t52 -246v-467q0 -68 -27 -115t-74.5 -69t-113.5 -22q-171 0 -236 112q-33 -54 -96 -83t-130 -29 q-54 0 -103.5 11t-97 38t-82.5 67t-56 103t-21 141v242q0 78 21 140.5t56 103t82.5 67.5t97 38t103.5 11q67 0 130 -29.5t96 -82.5v87h134zM597 746v-246q0 -73 32 -126.5t82.5 -78t111.5 -24.5q95 0 160.5 60t65.5 169v246q0 56 -18.5 100.5t-50 72.5t-72 42.5t-85.5 14.5 q-95 0 -160.5 -60t-65.5 -170z" />
<glyph d="M472 240v304h-307v115h307v301h116v-301h298v-115h-298v-304h-116z" />
<glyph d="M886 544h-721v115h721v-115z" />
<glyph d="M433 935q0 39 27 67t65 28q19 0 36.5 -7.5t30.5 -20.5t20.5 -30.5t7.5 -36.5q0 -38 -28 -65t-67 -27q-38 0 -65 27t-27 65zM433 265q0 39 27 67t65 28q19 0 36.5 -7.5t30.5 -20.5t20.5 -30.5t7.5 -36.5q0 -38 -28 -65t-67 -27q-38 0 -65 27t-27 65zM886 544h-721v115h721 v-115z" />
<glyph d="M153 311l289 289l-291 293l82 81l291 -292l292 292l82 -81l-292 -293l290 -289l-82 -81l-290 289l-289 -289z" />
<glyph d="M886 351h-721v116h721v-116zM886 716h-721v116h721v-116z" />
<glyph d="M886 648h-298v-256h-116v256h-307v117h307v256h116v-256h298v-117zM886 102h-721v116h721v-116z" />
<glyph d="M287 563l599 -337v-134l-721 405v132l721 405v-134z" />
<glyph d="M165 226l600 337l-600 337v134l721 -405v-132l-721 -405v134z" />
<glyph d="M313 682l573 -226v-125l-721 286v131l721 286v-126zM886 102h-721v116h721v-116z" />
<glyph d="M165 456l573 226l-573 226v126l721 -286v-131l-721 -286v125zM886 102h-721v116h721v-116z" />
<glyph d="M886 351h-500l-136 -154l-85 75l70 79h-70v116h173l225 249h-398v116h501l136 151l84 -75l-70 -76h70v-116h-173l-223 -249h396v-116z" />
<glyph horiz-adv-x="571" d="M486 1522h196l-228 -194h-131z" />
<glyph horiz-adv-x="701" d="M622 1440q35 0 63 23.5t34 58.5h121q-10 -42 -27 -76t-44.5 -61t-68.5 -42t-93 -15h-142q-60 0 -108.5 46t-48.5 112q0 11 3 36h109q-2 -6 -2 -16q0 -29 19.5 -47.5t50.5 -18.5h134z" />
<glyph horiz-adv-x="769" d="M495 1522l86 -91l125 91h185l-264 -194h-117l-182 194h167z" />
<glyph horiz-adv-x="480" d="M-53 -282l117 282h128l-68 -282h-177z" />
<glyph horiz-adv-x="769" d="M682 1328l-85 90l-125 -90h-185l264 194h117l182 -194h-168z" />
<glyph horiz-adv-x="726" d="M830 1511l-37 -173h-137l37 173h137zM479 1511l-37 -173h-138l38 173h137z" />
<glyph horiz-adv-x="328" d="M456 1511l-38 -173h-136l37 173h137z" />
<glyph horiz-adv-x="571" d="M331 1522h184l123 -194h-119z" />
<glyph horiz-adv-x="843" d="M469 1522h187l-211 -194h-122zM768 1522h187l-210 -194h-123z" />
<glyph horiz-adv-x="758" d="M304 1365l27 119h531l-26 -119h-532z" />
<glyph horiz-adv-x="434" d="M248 0q-2 -1 -7 -4q-25 -15 -41 -25.5t-45 -32t-46.5 -39.5t-31.5 -42t-14 -46q0 -35 44 -35q43 0 98 30l-23 -110q-52 -33 -112 -33q-63 0 -107.5 33t-44.5 92q0 74 55.5 129t136.5 83h138z" />
<glyph horiz-adv-x="435" d="M291 1423q0 55 38 94.5t93 39.5t94.5 -39.5t39.5 -94.5q0 -36 -18 -66t-49 -47.5t-67 -17.5q-55 0 -93 38.5t-38 92.5zM376 1423q0 -19 13.5 -32.5t32.5 -13.5t33 13.5t14 32.5t-14 33t-33 14t-32.5 -14t-13.5 -33z" />
<glyph horiz-adv-x="783" d="M497 1518q52 0 98 -25l53 -29q28 -14 47 -14q24 0 42.5 16.5t27.5 48.5h115q-8 -40 -25 -73.5t-41 -57.5t-54 -37.5t-63 -13.5q-52 0 -98 25l-54 28q-29 15 -46 15q-24 0 -42 -16.5t-27 -48.5h-117q17 80 67.5 131t116.5 51z" />
<glyph horiz-adv-x="1599" d="M1183 1080v-722q0 -46 29 -73.5t73 -27.5t71.5 27.5t27.5 73.5v458q0 106 -45 199.5t-120 157.5t-175.5 101t-210 37t-210 -37t-175.5 -101t-119.5 -157.5t-44.5 -199.5v-392q0 -107 44.5 -200t119.5 -157t175.5 -101t209.5 -37q193 0 341 101l62 -100 q-175 -115 -403 -115q-138 0 -261 45t-212 124.5t-140.5 193.5t-51.5 246v392q0 132 51.5 246t140.5 193.5t212 124.5t261.5 45t261.5 -45t212 -124.5t141 -193.5t52 -246v-467q0 -68 -27 -115t-74.5 -69t-113.5 -22q-171 0 -236 112q-33 -54 -96 -83t-130 -29 q-54 0 -103.5 11t-97 38t-82.5 67t-56 103t-21 141v242q0 78 21 140.5t56 103t82.5 67.5t97 38t103.5 11q67 0 130 -29.5t96 -82.5v87h134zM597 746v-246q0 -73 32 -126.5t82.5 -78t111.5 -24.5q95 0 160.5 60t65.5 169v246q0 56 -18.5 100.5t-50 72.5t-72 42.5t-85.5 14.5 q-95 0 -160.5 -60t-65.5 -170z" />
<glyph horiz-adv-x="961" d="M542 818q-106 0 -177.5 -59.5t-95.5 -172.5q-4 -16 -10.5 -46t-11.5 -52.5t-11 -52t-10.5 -53t-8.5 -47t-6 -42t-2 -29.5q0 -52 28 -88t69.5 -51.5t91.5 -15.5q106 0 177 59t95 172q4 18 10 47t11.5 52t11.5 52t10.5 53t9 47t6.5 41.5t2 30.5q0 39 -16 69.5t-43 48.5 t-60 27.5t-70 9.5zM597 0l22 98q-22 -32 -56 -57t-85 -41.5t-109 -16.5q-55 0 -107.5 17.5t-94.5 49.5t-68 83t-26 111q0 19 4 47.5t11.5 68t14 70.5t17.5 81.5t16 73.5q39 190 142.5 274.5t266.5 84.5q53 0 97.5 -16.5t76.5 -46t51 -68.5l23 107h134l-196 -920h-134z" />
<glyph horiz-adv-x="961" d="M542 818q-106 0 -177.5 -59.5t-95.5 -172.5q-4 -16 -10.5 -46t-11.5 -52.5t-11 -52t-10.5 -53t-8.5 -47t-6 -42t-2 -29.5q0 -52 28 -88t69.5 -51.5t91.5 -15.5q106 0 177 59t95 172q4 18 10 47t11.5 52t11.5 52t10.5 53t9 47t6.5 41.5t2 30.5q0 39 -16 69.5t-43 48.5 t-60 27.5t-70 9.5zM597 0l22 98q-22 -32 -56 -57t-85 -41.5t-109 -16.5q-55 0 -107.5 17.5t-94.5 49.5t-68 83t-26 111q0 19 4 47.5t11.5 68t14 70.5t17.5 81.5t16 73.5q39 190 142.5 274.5t266.5 84.5q53 0 97.5 -16.5t76.5 -46t51 -68.5l23 107h134l-196 -920h-134z M617 1248h192l-210 -231h-120z" />
<glyph horiz-adv-x="961" d="M542 818q-106 0 -177.5 -59.5t-95.5 -172.5q-4 -16 -10.5 -46t-11.5 -52.5t-11 -52t-10.5 -53t-8.5 -47t-6 -42t-2 -29.5q0 -52 28 -88t69.5 -51.5t91.5 -15.5q106 0 177 59t95 172q4 18 10 47t11.5 52t11.5 52t10.5 53t9 47t6.5 41.5t2 30.5q0 39 -16 69.5t-43 48.5 t-60 27.5t-70 9.5zM597 0l22 98q-22 -32 -56 -57t-85 -41.5t-109 -16.5q-55 0 -107.5 17.5t-94.5 49.5t-68 83t-26 111q0 19 4 47.5t11.5 68t14 70.5t17.5 81.5t16 73.5q39 190 142.5 274.5t266.5 84.5q53 0 97.5 -16.5t76.5 -46t51 -68.5l23 107h134l-196 -920h-134z M572 1017q-82 0 -134.5 52.5t-52.5 131.5q0 19 6 47h102q-3 -18 -3 -26q0 -41 30.5 -68.5t74.5 -27.5h68q47 0 89 35.5t52 86.5h114q-22 -102 -92.5 -166.5t-186.5 -64.5h-67z" />
<glyph horiz-adv-x="961" d="M542 818q-106 0 -177.5 -59.5t-95.5 -172.5q-4 -16 -10.5 -46t-11.5 -52.5t-11 -52t-10.5 -53t-8.5 -47t-6 -42t-2 -29.5q0 -52 28 -88t69.5 -51.5t91.5 -15.5q106 0 177 59t95 172q4 18 10 47t11.5 52t11.5 52t10.5 53t9 47t6.5 41.5t2 30.5q0 39 -16 69.5t-43 48.5 t-60 27.5t-70 9.5zM597 0l22 98q-22 -32 -56 -57t-85 -41.5t-109 -16.5q-55 0 -107.5 17.5t-94.5 49.5t-68 83t-26 111q0 19 4 47.5t11.5 68t14 70.5t17.5 81.5t16 73.5q39 190 142.5 274.5t266.5 84.5q53 0 97.5 -16.5t76.5 -46t51 -68.5l23 107h134l-196 -920h-134z M695 1248l174 -231h-150l-95 127l-150 -127h-168l272 231h117z" />
<glyph horiz-adv-x="961" d="M542 818q-106 0 -177.5 -59.5t-95.5 -172.5q-4 -16 -10.5 -46t-11.5 -52.5t-11 -52t-10.5 -53t-8.5 -47t-6 -42t-2 -29.5q0 -52 28 -88t69.5 -51.5t91.5 -15.5q106 0 177 59t95 172q4 18 10 47t11.5 52t11.5 52t10.5 53t9 47t6.5 41.5t2 30.5q0 39 -16 69.5t-43 48.5 t-60 27.5t-70 9.5zM597 0l22 98q-22 -32 -56 -57t-85 -41.5t-109 -16.5q-55 0 -107.5 17.5t-94.5 49.5t-68 83t-26 111q0 19 4 47.5t11.5 68t14 70.5t17.5 81.5t16 73.5q39 190 142.5 274.5t266.5 84.5q53 0 97.5 -16.5t76.5 -46t51 -68.5l23 107h134l-196 -920h-134z M520 1219l-37 -173h-134l37 173h134zM875 1219l-37 -173h-134l37 173h134z" />
<glyph horiz-adv-x="961" d="M542 818q-106 0 -177.5 -59.5t-95.5 -172.5q-4 -16 -10.5 -46t-11.5 -52.5t-11 -52t-10.5 -53t-8.5 -47t-6 -42t-2 -29.5q0 -52 28 -88t69.5 -51.5t91.5 -15.5q106 0 177 59t95 172q4 18 10 47t11.5 52t11.5 52t10.5 53t9 47t6.5 41.5t2 30.5q0 39 -16 69.5t-43 48.5 t-60 27.5t-70 9.5zM597 0l22 98q-22 -32 -56 -57t-85 -41.5t-109 -16.5q-55 0 -107.5 17.5t-94.5 49.5t-68 83t-26 111q0 19 4 47.5t11.5 68t14 70.5t17.5 81.5t16 73.5q39 190 142.5 274.5t266.5 84.5q53 0 97.5 -16.5t76.5 -46t51 -68.5l23 107h134l-196 -920h-134z M396 1248h180l89 -231h-107z" />
<glyph horiz-adv-x="961" d="M542 818q-106 0 -177.5 -59.5t-95.5 -172.5q-4 -16 -10.5 -46t-11.5 -52.5t-11 -52t-10.5 -53t-8.5 -47t-6 -42t-2 -29.5q0 -52 28 -88t69.5 -51.5t91.5 -15.5q106 0 177 59t95 172q4 18 10 47t11.5 52t11.5 52t10.5 53t9 47t6.5 41.5t2 30.5q0 39 -16 69.5t-43 48.5 t-60 27.5t-70 9.5zM597 0l22 98q-22 -32 -56 -57t-85 -41.5t-109 -16.5q-55 0 -107.5 17.5t-94.5 49.5t-68 83t-26 111q0 19 4 47.5t11.5 68t14 70.5t17.5 81.5t16 73.5q39 190 142.5 274.5t266.5 84.5q53 0 97.5 -16.5t76.5 -46t51 -68.5l23 107h134l-196 -920h-134z M335 1074l23 116h531l-23 -116h-531z" />
<glyph horiz-adv-x="961" d="M597 0l22 98q-22 -32 -56 -57t-85 -41.5t-109 -16.5q-55 0 -107.5 17.5t-94.5 49.5t-68 83t-26 111q0 19 4 47.5t11.5 68t14 70.5t17.5 81.5t16 73.5q39 190 142.5 274.5t266.5 84.5q53 0 97.5 -16.5t76.5 -46t51 -68.5l23 107h134l-196 -920q-5 -3 -31 -18.5t-41 -25 t-39.5 -28.5t-38.5 -34t-25 -35.5t-11 -40.5q0 -10 3.5 -19t9 -15t13.5 -9t17 -3q41 0 100 31l-23 -107q-53 -33 -120 -33q-58 0 -97.5 33.5t-39.5 91.5q0 145 189 212zM542 818q-106 0 -177.5 -59.5t-95.5 -172.5q-4 -16 -10.5 -46t-11.5 -52.5t-11 -52t-10.5 -53t-8.5 -47 t-6 -42t-2 -29.5q0 -52 28 -88t69.5 -51.5t91.5 -15.5q106 0 177 59t95 172q4 18 10 47t11.5 52t11.5 52t10.5 53t9 47t6.5 41.5t2 30.5q0 39 -16 69.5t-43 48.5t-60 27.5t-70 9.5z" />
<glyph horiz-adv-x="961" d="M542 818q-106 0 -177.5 -59.5t-95.5 -172.5q-4 -16 -10.5 -46t-11.5 -52.5t-11 -52t-10.5 -53t-8.5 -47t-6 -42t-2 -29.5q0 -52 28 -88t69.5 -51.5t91.5 -15.5q106 0 177 59t95 172q4 18 10 47t11.5 52t11.5 52t10.5 53t9 47t6.5 41.5t2 30.5q0 39 -16 69.5t-43 48.5 t-60 27.5t-70 9.5zM597 0l22 98q-22 -32 -56 -57t-85 -41.5t-109 -16.5q-55 0 -107.5 17.5t-94.5 49.5t-68 83t-26 111q0 19 4 47.5t11.5 68t14 70.5t17.5 81.5t16 73.5q39 190 142.5 274.5t266.5 84.5q53 0 97.5 -16.5t76.5 -46t51 -68.5l23 107h134l-196 -920h-134z M561 1131q0 -10 4 -19t10.5 -16t16 -11t19.5 -4q20 0 35 15t15 35t-15 35t-35 15q-13 0 -24.5 -6.5t-18.5 -18.5t-7 -25zM479 1131q0 27 10.5 51.5t28 43t42 29t51.5 10.5t51.5 -11t42.5 -29t29 -42.5t11 -51.5q0 -55 -39.5 -93t-94.5 -38t-93.5 38t-38.5 93z" />
<glyph horiz-adv-x="961" d="M542 818q-106 0 -177.5 -59.5t-95.5 -172.5q-4 -16 -10.5 -46t-11.5 -52.5t-11 -52t-10.5 -53t-8.5 -47t-6 -42t-2 -29.5q0 -52 28 -88t69.5 -51.5t91.5 -15.5q106 0 177 59t95 172q4 18 10 47t11.5 52t11.5 52t10.5 53t9 47t6.5 41.5t2 30.5q0 39 -16 69.5t-43 48.5 t-60 27.5t-70 9.5zM597 0l22 98q-22 -32 -56 -57t-85 -41.5t-109 -16.5q-55 0 -107.5 17.5t-94.5 49.5t-68 83t-26 111q0 19 4 47.5t11.5 68t14 70.5t17.5 81.5t16 73.5q39 190 142.5 274.5t266.5 84.5q53 0 97.5 -16.5t76.5 -46t51 -68.5l23 107h134l-196 -920h-134z M432 1044h-104q16 80 67 131t117 51q51 0 97 -25l54 -30q26 -17 55 -17q15 0 30 9t27 24.5t16 34.5h103q-16 -80 -66.5 -130.5t-116.5 -50.5q-51 0 -98 25l-54 30q-25 16 -54 16q-24 0 -45.5 -19.5t-27.5 -48.5z" />
<glyph horiz-adv-x="1581" d="M1141 920v-723q0 -30 13 -53t36 -35t51 -12q44 0 72.5 27t28.5 73v459q0 85 -29 162.5t-81 137.5t-120.5 104t-151 67.5t-169.5 23.5q-110 0 -210.5 -37t-175.5 -101t-120 -157.5t-45 -199.5v-392q0 -107 45 -200t120 -157.5t175.5 -101t210.5 -36.5q193 0 340 101 l63 -100q-175 -115 -403 -115q-139 0 -262 45t-212 124.5t-141 193.5t-52 246v392q0 132 52 246t141 193.5t212 124.5t262 45q111 0 212.5 -28.5t183.5 -83t143 -128t94 -168.5t33 -201v-467q0 -102 -57.5 -154t-158.5 -52q-170 0 -234 112q-33 -54 -96.5 -83t-130.5 -29 q-53 0 -103 11t-97.5 37.5t-82 66.5t-56 103t-21.5 141v243q0 65 14.5 120t41 93.5t60.5 67t75 45.5t83 25t86 8q67 0 130.5 -29.5t96.5 -82.5v88h134zM554 586v-246q0 -73 32.5 -126.5t82.5 -78.5t111 -25q96 0 161.5 60.5t65.5 169.5v246q0 56 -18.5 100.5t-50.5 72.5 t-72 42.5t-86 14.5q-95 0 -160.5 -60t-65.5 -170z" />
<glyph horiz-adv-x="400" d="M435 1248l-265 -1248h-134l265 1248h134z" />
<glyph horiz-adv-x="400" d="M435 1248l-265 -1248h-134l265 1248h134zM413 1557h193l-210 -229h-120z" />
<glyph horiz-adv-x="400" d="M718 1248l-184 -282h-104l108 282h180zM435 1248l-265 -1248h-134l265 1248h134z" />
<glyph horiz-adv-x="400" d="M435 1248l-265 -1248h-134l265 1248h134zM-37 -258l37 169h170l-38 -169l-77 -150h-114l76 150h-54z" />
<glyph horiz-adv-x="515" d="M435 1248l-265 -1248h-134l265 1248h134zM581 707l-37 -173h-134l37 173h134z" />
<glyph horiz-adv-x="428" d="M449 1248l-105 -489l128 62l-23 -110l-128 -63l-137 -648h-134l121 573l-127 -61l24 110l126 62l121 564h134z" />
<glyph horiz-adv-x="965" d="M682 1121h-140q-48 0 -71 -19t-33 -63l-25 -119h226l-28 -127h-226l-167 -793h-134l167 793h-130l29 127h130l23 108q10 51 21 83.5t30 61t46.5 43.5t68.5 23.5t99 8.5h141zM1000 1248l-266 -1248h-134l266 1248h134z" />
<glyph horiz-adv-x="1530" d="M682 1121h-140q-48 0 -71 -19t-33 -63l-25 -119h226l-28 -127h-226l-167 -793h-134l167 793h-130l29 127h130l23 108q10 51 21 83.5t30 61t46.5 43.5t68.5 23.5t99 8.5h141zM1248 1121h-141q-48 0 -71.5 -19t-32.5 -63l-25 -119h226l-28 -127h-226l-168 -793h-134 l168 793h-130l28 127h131l22 108q11 51 22 83.5t30 61t46.5 43.5t68.5 23.5t100 8.5h140zM1564 1248l-265 -1248h-134l266 1248h133z" />
</font>
</defs>
</svg>
